<svg width="291" height="83" viewBox="0 0 291 83" fill="none" xmlns="http://www.w3.org/2000/svg">
<path fill-rule="evenodd" clip-rule="evenodd" d="M284.089 60.9665L180.02 72.4242C180.02 72.4242 254.585 68.5408 287.096 64.3823C284.83 72.7009 278.363 77.3449 278.363 77.3449C202.37 88.9725 10.5337 77.3449 10.5337 77.3449L3.68434 37.7565L24.32 36.0575L32.6903 37.8973H76.9696L44.7775 35.8795L26.4429 30.8537L0.679537 33.31L0.00317383 16.5368C99.7621 8.27153 290.149 5.81201 290.149 5.81201C290.68 24.5528 287.169 47.7822 284.089 60.9665Z" fill="url(#paint0_linear_28_5975)"/>
<path fill-rule="evenodd" clip-rule="evenodd" d="M0 16.5434L2.07763 11.1778L9.67782 5.8122C9.67782 5.8122 213.78 4.4708 284.416 0L290.152 5.8122C290.152 5.8122 115.587 8.68433 0 16.5434Z" fill="#FF8B3E"/>
<path fill-rule="evenodd" clip-rule="evenodd" d="M2.07763 11.1798C2.07763 11.1798 70.3839 9.76074 140.768 9.76074L0 16.5454L2.07763 11.1798Z" fill="#E06834"/>
<path fill-rule="evenodd" clip-rule="evenodd" d="M3.68408 37.7553L8.11281 35.7683L24.7663 34.5386L32.6982 36.147L52.2674 36.3492L76.9694 37.8978H56.7609L32.5607 39.5805L25.0543 36.2181L3.68408 37.7553Z" fill="#E6774F"/>
<path fill-rule="evenodd" clip-rule="evenodd" d="M0.679443 33.3098L8.11297 35.7677L24.7665 34.5379L32.6983 36.1463L51.5637 36.9699L76.9695 37.8971L45.2208 35.3324L26.4428 30.8535L0.679443 33.3098Z" fill="#892334"/>
<g opacity="0.2">
<path fill-rule="evenodd" clip-rule="evenodd" d="M54.6091 79.566C54.6091 79.566 79.832 40.2382 140.766 22.8032C201.701 5.36656 289.296 27.7966 289.296 27.7966L288.599 34.3758C288.599 34.3758 208.184 4.25009 147.156 23.2514C86.1281 42.2527 63.3954 79.9414 63.3954 79.9414L54.6091 79.566Z" fill="url(#paint1_linear_28_5975)"/>
<path fill-rule="evenodd" clip-rule="evenodd" d="M67.7981 79.94C67.7981 79.94 82.738 48.4049 140.766 34.3744C198.794 20.3438 227.855 42.0263 246.409 51.1929C264.963 60.3578 285.934 52.0456 285.934 52.0456L284.088 60.9662C284.088 60.9662 263.285 61.4274 248.476 54.8579C233.668 48.2884 191.384 21.6464 145.075 36.219C98.7669 50.79 89.2508 80.9141 89.2508 80.9141L67.7981 79.94Z" fill="url(#paint2_linear_28_5975)"/>
<path fill-rule="evenodd" clip-rule="evenodd" d="M32.6983 78.5399C32.6983 78.5399 62.8807 63.2845 84.1166 44.1602C105.353 25.0376 111.835 11.1526 111.835 11.1526L126.153 4.49902L113.173 4.69158L91.2654 9.96497C91.2654 9.96497 55.9504 61.058 14.7051 77.5852L32.6983 78.5399Z" fill="url(#paint3_linear_28_5975)"/>
<path fill-rule="evenodd" clip-rule="evenodd" d="M119.031 81.7794C119.031 81.7794 137.745 55.0517 182.253 48.0518C226.762 41.0519 272.831 78.116 272.831 78.116L269.455 78.5399C269.455 78.5399 224.84 41.5794 182.086 49.4595C139.333 57.3396 123.071 81.7794 123.071 81.7794H119.031Z" fill="url(#paint4_linear_28_5975)"/>
<path fill-rule="evenodd" clip-rule="evenodd" d="M158.614 67.199C158.614 67.199 169.343 55.497 190.133 54.3223C210.922 53.1491 219.64 61.9726 219.64 61.9726C219.64 61.9726 178.062 72.5307 158.614 67.199Z" fill="url(#paint5_linear_28_5975)"/>
<path fill-rule="evenodd" clip-rule="evenodd" d="M236.911 37.8971C236.911 37.8971 212.222 23.3067 185.167 25.8213C185.167 25.8213 219.849 21.7938 236.911 37.8971Z" fill="url(#paint6_linear_28_5975)"/>
<path fill-rule="evenodd" clip-rule="evenodd" d="M101.61 34.3744L127.262 10.4087L137.999 4.31014L145.075 4.19199L131.064 9.75825L114.184 25.3729L151.404 9.75825L170.36 3.72762L174.05 3.65479L155.931 9.75825L101.61 34.3744Z" fill="url(#paint7_linear_28_5975)"/>
<path fill-rule="evenodd" clip-rule="evenodd" d="M7.41561 59.3237L28.0463 37.5587L25.0545 36.2173L17.731 36.5976L5.46582 48.0521L7.41561 59.3237Z" fill="url(#paint8_linear_28_5975)"/>
<path fill-rule="evenodd" clip-rule="evenodd" d="M23.8167 30.8528L34.3699 14.4339L42.4312 10.5036L75.1232 5.18652H79.5132L46.1982 10.5635L40.3261 14.599L34.2695 32.7201L26.4153 30.8528H23.8167Z" fill="url(#paint9_linear_28_5975)"/>
</g>
<path fill-rule="evenodd" clip-rule="evenodd" d="M76.9695 37.8975L103.006 39.4573L174.05 38.6774L76.9695 37.8975Z" fill="#892334"/>
<path fill-rule="evenodd" clip-rule="evenodd" d="M274.94 61.9727L287.095 64.382L241.939 70.0825L180.02 72.4239L274.94 61.9727Z" fill="#E6774F"/>
<path fill-rule="evenodd" clip-rule="evenodd" d="M49.2563 79.329L95.7427 78.541L160.122 82.4536C160.122 82.4536 81.4241 80.9455 49.2563 79.329Z" fill="#801B34"/>
<path fill-rule="evenodd" clip-rule="evenodd" d="M288.599 34.375L218.908 37.6662L265.858 36.218L288.599 34.375Z" fill="#801B34"/>
<path fill-rule="evenodd" clip-rule="evenodd" d="M133.465 39.1223L138.494 40.5754L149.727 38.9443L133.465 39.1223Z" fill="#E6774F"/>
<path opacity="0.4" fill-rule="evenodd" clip-rule="evenodd" d="M121.692 78.5407C121.692 78.5407 135.961 56.7094 168.915 50.9053C168.915 50.9053 139.26 57.156 121.692 78.5407Z" fill="#D9772F"/>
<path opacity="0.4" fill-rule="evenodd" clip-rule="evenodd" d="M35.1821 66.5084C35.1821 66.5084 63.0652 47.245 75.5294 29.7744C75.5294 29.7744 52.4149 53.3776 35.1821 66.5084Z" fill="#D9772F"/>
<path opacity="0.4" fill-rule="evenodd" clip-rule="evenodd" d="M149.727 32.4429C149.727 32.4429 170.182 26.9446 194.212 30.8539C218.242 34.7632 238.763 46.3974 249.124 52.4005C249.124 52.4005 239.341 45.2712 219.64 37.0545C199.942 28.8394 170.35 26.6598 149.727 32.4429Z" fill="#D9772F"/>
<path opacity="0.4" fill-rule="evenodd" clip-rule="evenodd" d="M165.711 17.8785C165.711 17.8785 198.671 9.4838 289.296 27.7958C289.296 27.7958 223.608 9.75889 165.711 17.8785Z" fill="#D9772F"/>
<path fill-rule="evenodd" clip-rule="evenodd" d="M262.059 1.14551L272.831 6.13895L270.009 13.1518L269.771 7.14866L262.059 1.14551Z" fill="#892334"/>
<path fill-rule="evenodd" clip-rule="evenodd" d="M40.3259 34.5381L47.7918 29.7744L44.7773 35.8795L40.3259 34.5381Z" fill="#892334"/>
<path fill-rule="evenodd" clip-rule="evenodd" d="M8.30737 64.4766L16.7571 69.7483L8.30737 66.5089V64.4766Z" fill="#892334"/>
<path fill-rule="evenodd" clip-rule="evenodd" d="M78.3062 72.4245L86.018 67.1123L80.9874 72.4245H78.3062Z" fill="#801B34"/>
<path fill-rule="evenodd" clip-rule="evenodd" d="M225.623 81.6534L218.908 77.3477L229.427 81.4997L225.623 81.6534Z" fill="#801B34"/>
<path fill-rule="evenodd" clip-rule="evenodd" d="M78.3062 72.4245L80.5262 71.8857L86.018 67.1123L80.9874 72.4245H78.3062Z" fill="#DC634F"/>
<path fill-rule="evenodd" clip-rule="evenodd" d="M8.30737 66.5088L8.89801 67.8923L16.7571 69.7482L8.30737 66.5088Z" fill="#DC634F"/>
<path fill-rule="evenodd" clip-rule="evenodd" d="M220.768 78.541L223.385 81.6543L224.949 81.7805L220.768 78.541Z" fill="#DC634F"/>
<path fill-rule="evenodd" clip-rule="evenodd" d="M55.355 13.8753H85.0115L190.469 9.75887L269.771 7.14889L268.586 6.22656L116.7 10.9191L55.355 13.8753Z" fill="#B64034"/>
<path fill-rule="evenodd" clip-rule="evenodd" d="M272.831 6.13856L287.096 7.14826L288.601 19.0154L286.761 32.6398L280.716 34.376H288.601C288.601 34.376 291.421 15.6514 290.153 5.81494L272.831 6.13856Z" fill="#B64034"/>
<path fill-rule="evenodd" clip-rule="evenodd" d="M10.5335 77.3433L8.89762 67.8919L9.71634 66.5085L8.30698 64.4762V55.9148L3.68408 37.7549L7.88952 66.5085L10.5335 77.3433Z" fill="#8E2634"/>
<path fill-rule="evenodd" clip-rule="evenodd" d="M276.544 61.7966L284.769 57.6802L284.089 60.9665L276.544 61.7966Z" fill="#8E2634"/>
<path fill-rule="evenodd" clip-rule="evenodd" d="M260.313 79.5003L281.656 74.2334L278.363 77.3434L260.313 79.5003Z" fill="#801B34"/>
<path fill-rule="evenodd" clip-rule="evenodd" d="M269.224 0.825081L280.903 1.14546L285.766 3.36548L286.185 5.81206L290.152 5.81366L284.416 0.00146484L269.224 0.825081Z" fill="#FCCA70"/>
<path fill-rule="evenodd" clip-rule="evenodd" d="M2.07764 11.1791L20.8362 10.836L12.6794 9.75838L7.14713 10.0513L6.25231 9.28914L9.32668 6.22607L13.5175 6.99791L17.5968 6.22607L30.8992 5.64355L9.67783 5.81345L2.07764 11.1791Z" fill="#FCCA70"/>
<defs>
<linearGradient id="paint0_linear_28_5975" x1="145.103" y1="82.5115" x2="145.103" y2="5.81169" gradientUnits="userSpaceOnUse">
<stop stop-color="#8C2747"/>
<stop offset="1" stop-color="#D65731"/>
</linearGradient>
<linearGradient id="paint1_linear_28_5975" x1="54.6099" y1="48.0525" x2="289.297" y2="48.0525" gradientUnits="userSpaceOnUse">
<stop stop-color="#C77CBD"/>
<stop offset="1" stop-color="#974577"/>
</linearGradient>
<linearGradient id="paint2_linear_28_5975" x1="67.7987" y1="55.3428" x2="285.935" y2="55.3428" gradientUnits="userSpaceOnUse">
<stop stop-color="#C77CBD"/>
<stop offset="1" stop-color="#974577"/>
</linearGradient>
<linearGradient id="paint3_linear_28_5975" x1="14.7072" y1="41.5191" x2="126.154" y2="41.5191" gradientUnits="userSpaceOnUse">
<stop stop-color="#C77CBD"/>
<stop offset="1" stop-color="#974577"/>
</linearGradient>
<linearGradient id="paint4_linear_28_5975" x1="119.031" y1="64.4756" x2="272.831" y2="64.4756" gradientUnits="userSpaceOnUse">
<stop stop-color="#C77CBD"/>
<stop offset="1" stop-color="#974577"/>
</linearGradient>
<linearGradient id="paint5_linear_28_5975" x1="158.613" y1="61.4585" x2="219.641" y2="61.4585" gradientUnits="userSpaceOnUse">
<stop stop-color="#C77CBD"/>
<stop offset="1" stop-color="#974577"/>
</linearGradient>
<linearGradient id="paint6_linear_28_5975" x1="185.166" y1="31.6348" x2="236.91" y2="31.6348" gradientUnits="userSpaceOnUse">
<stop stop-color="#C77CBD"/>
<stop offset="1" stop-color="#974577"/>
</linearGradient>
<linearGradient id="paint7_linear_28_5975" x1="101.61" y1="19.0149" x2="174.051" y2="19.0149" gradientUnits="userSpaceOnUse">
<stop stop-color="#C77CBD"/>
<stop offset="1" stop-color="#974577"/>
</linearGradient>
<linearGradient id="paint8_linear_28_5975" x1="5.46614" y1="47.7708" x2="28.0472" y2="47.7708" gradientUnits="userSpaceOnUse">
<stop stop-color="#C77CBD"/>
<stop offset="1" stop-color="#974577"/>
</linearGradient>
<linearGradient id="paint9_linear_28_5975" x1="23.8167" y1="18.9528" x2="79.5133" y2="18.9528" gradientUnits="userSpaceOnUse">
<stop stop-color="#C77CBD"/>
<stop offset="1" stop-color="#974577"/>
</linearGradient>
</defs>
</svg>
