<svg width="247" height="264" viewBox="0 0 247 264" fill="none" xmlns="http://www.w3.org/2000/svg">
<path opacity="0.2" d="M123.374 263.748C191.512 263.748 246.748 208.512 246.748 140.374C246.748 72.2364 191.512 17 123.374 17C55.2364 17 0 72.2364 0 140.374C0 208.512 55.2364 263.748 123.374 263.748Z" fill="black"/>
<path d="M123.374 246.748C191.512 246.748 246.748 191.512 246.748 123.374C246.748 55.2364 191.512 0 123.374 0C55.2364 0 0 55.2364 0 123.374C0 191.512 55.2364 246.748 123.374 246.748Z" fill="#FFECAD"/>
<path d="M123.374 232.348C183.559 232.348 232.348 183.559 232.348 123.374C232.348 63.1892 183.559 14.3999 123.374 14.3999C63.1892 14.3999 14.3999 63.1892 14.3999 123.374C14.3999 183.559 63.1892 232.348 123.374 232.348Z" fill="#FEFDD1"/>
<path d="M123.374 217.19C175.187 217.19 217.19 175.187 217.19 123.374C217.19 71.5609 175.187 29.5581 123.374 29.5581C71.561 29.5581 29.5581 71.5609 29.5581 123.374C29.5581 175.187 71.561 217.19 123.374 217.19Z" fill="#E4E3A3"/>
<path d="M123.374 213.563C173.184 213.563 213.563 173.184 213.563 123.374C213.563 73.564 173.184 33.1851 123.374 33.1851C73.564 33.1851 33.1851 73.564 33.1851 123.374C33.1851 173.184 73.564 213.563 123.374 213.563Z" fill="url(#paint0_linear_15_24)"/>
<path d="M201.954 96.0332C205.092 105.055 205.774 114.803 203.857 124.161C196.094 162.049 162.563 190.549 122.375 190.549C86.288 190.549 55.5701 167.571 44.0561 135.457C40.6601 125.986 39.9311 115.784 42.0291 105.944C50.0401 68.3732 83.417 40.1992 123.375 40.1992C159.737 40.1992 190.648 63.5282 201.954 96.0332Z" fill="url(#paint1_linear_15_24)"/>
<path d="M187.417 75.2836C190.964 70.6723 187.216 61.8402 179.046 55.5565C170.877 49.2728 161.378 47.9171 157.832 52.5284C154.285 57.1397 158.033 65.9719 166.202 72.2555C174.372 78.5392 183.87 79.8949 187.417 75.2836Z" fill="#F9EFDC"/>
<path d="M56.6909 156.885C61.2649 158.606 64.4039 162.049 67.7219 165.417C68.809 166.598 70.1339 167.927 71.3249 169.566C72.6049 171.183 71.594 173.732 69.576 174.061C63.05 175.213 56.2319 171.049 53.5219 165.174C52.1409 162.341 51.3539 154.741 56.6909 156.885Z" fill="#FFD6AF"/>
<path d="M161.689 181.864C168.593 178.623 184.132 171.544 191.132 172.682C193.554 173.076 194.92 175.641 193.947 177.893C192.134 182.088 184.707 190.846 155.547 203.369C155.547 203.369 128.768 215.369 128.136 203.369C128.135 202.639 128.247 201.566 128.894 200.59C128.894 200.59 157.867 183.658 161.689 181.864Z" fill="#EE6931"/>
<path d="M152.744 201.146C159.921 196.399 167.816 193.233 175.657 189.774C176.14 189.558 176.599 190.214 176.23 190.591C171.672 195.359 165.627 198.417 159.477 200.576C157.414 201.264 155.307 201.824 153.091 202.083C152.573 202.161 152.301 201.421 152.744 201.146Z" fill="#FF9B85"/>
<path d="M184.07 111.928V151.835C184.07 158.345 178.789 163.626 172.294 163.626H141.662V168.892C141.662 179.688 129.52 186.037 120.64 179.878L66.456 142.18C58.791 136.855 58.791 125.533 66.456 120.222L120.041 82.9477C129.169 76.5987 141.662 83.1237 141.662 94.2407V100.151H172.294C178.789 100.152 184.07 105.418 184.07 111.928Z" fill="url(#paint2_linear_15_24)"/>
<path d="M172.294 91.1507H141.662V90.2407V90.1787V90.1167V90.0547V89.9927V89.9307V89.8687V89.8067V89.7447V89.6827V89.6207V89.5587V89.4967V89.4347V89.3727V89.3107V89.2487V89.1867V89.1247V89.0627V89.0007V88.9387V88.8767V88.8147V88.7527V88.6977V88.6357V88.5737V88.5117V88.4497V88.3877V88.3257V88.2637V88.2017V88.1397V88.0777V88.0157V87.9537V87.8917V87.8297V87.7677V87.7057V87.6437V87.5817V87.5197V87.4577V87.3957V87.3337V87.2717V87.2097V87.1477V87.0857V87.0237V86.9617V86.8997V86.8377V86.7757V86.7137V86.6517V86.5897V86.5277V86.4657V86.4037V86.3417V86.2797V86.2177V86.1557V86.0937V86.0317V85.9697V85.9077V85.8457V85.7837V85.7217V85.6597V85.5977V85.5357V85.4737V85.4117V85.3497V85.2877V85.2257C141.662 74.1077 129.169 67.5837 120.041 73.9327L66.456 111.207C62.614 113.869 60.699 118.041 60.709 122.211C60.709 122.232 60.709 122.252 60.709 122.273C60.709 122.294 60.709 122.314 60.709 122.335C60.709 122.356 60.709 122.376 60.709 122.397C60.709 122.418 60.709 122.438 60.709 122.459C60.709 122.48 60.709 122.5 60.709 122.521C60.709 122.542 60.709 122.562 60.709 122.583C60.709 122.604 60.709 122.624 60.709 122.645C60.709 122.666 60.709 122.686 60.709 122.707C60.709 122.728 60.709 122.748 60.709 122.769C60.709 122.79 60.709 122.81 60.709 122.831C60.709 122.852 60.709 122.872 60.709 122.893C60.709 122.914 60.709 122.934 60.709 122.955C60.709 122.976 60.709 122.996 60.709 123.017C60.709 123.038 60.709 123.058 60.709 123.079C60.709 123.1 60.709 123.12 60.709 123.141C60.709 123.162 60.709 123.182 60.709 123.203C60.709 123.224 60.709 123.244 60.709 123.265C60.709 123.286 60.709 123.306 60.709 123.327C60.709 123.348 60.709 123.368 60.709 123.389C60.709 123.41 60.709 123.43 60.709 123.451C60.709 123.472 60.709 123.492 60.709 123.513C60.709 123.534 60.709 123.554 60.709 123.575C60.709 123.596 60.709 123.616 60.709 123.637C60.709 123.658 60.709 123.678 60.709 123.699C60.709 123.72 60.709 123.74 60.709 123.761C60.709 123.782 60.709 123.802 60.709 123.823C60.709 123.844 60.709 123.864 60.709 123.885C60.709 123.906 60.709 123.926 60.709 123.947C60.709 123.968 60.709 123.988 60.709 124.009C60.709 124.03 60.709 124.05 60.709 124.071C60.709 124.092 60.709 124.112 60.709 124.133C60.709 124.154 60.709 124.174 60.709 124.195C60.709 124.216 60.709 124.236 60.709 124.257C60.709 124.278 60.709 124.298 60.709 124.319C60.709 124.34 60.709 124.36 60.709 124.381C60.709 124.402 60.709 124.422 60.709 124.443C60.709 124.464 60.709 124.484 60.709 124.505C60.709 124.526 60.709 124.546 60.709 124.567C60.709 124.588 60.709 124.608 60.709 124.629C60.709 124.65 60.709 124.67 60.709 124.691C60.709 124.712 60.709 124.732 60.709 124.753C60.709 124.774 60.709 124.794 60.709 124.815C60.709 124.836 60.709 124.856 60.709 124.877C60.709 124.898 60.709 124.918 60.709 124.939C60.709 124.96 60.709 124.98 60.709 125.001C60.709 125.022 60.709 125.042 60.709 125.063C60.709 125.084 60.709 125.104 60.709 125.125C60.709 125.146 60.709 125.166 60.709 125.187C60.709 125.208 60.709 125.228 60.709 125.249C60.709 125.27 60.709 125.29 60.709 125.311C60.709 125.332 60.709 125.352 60.709 125.373C60.709 125.394 60.709 125.414 60.709 125.435C60.709 125.456 60.709 125.476 60.709 125.497C60.709 125.518 60.709 125.538 60.709 125.559C60.709 125.58 60.709 125.6 60.709 125.621C60.709 125.642 60.709 125.662 60.709 125.683C60.709 125.704 60.709 125.724 60.709 125.745C60.709 125.766 60.709 125.786 60.709 125.807C60.709 125.828 60.709 125.848 60.709 125.869C60.709 125.89 60.709 125.91 60.709 125.931C60.709 125.952 60.709 125.972 60.709 125.993C60.709 126.014 60.709 126.034 60.709 126.055C60.709 126.076 60.709 126.096 60.709 126.117C60.709 126.138 60.709 126.158 60.709 126.179C60.709 126.2 60.709 126.22 60.709 126.241C60.709 126.262 60.709 126.282 60.709 126.303C60.709 126.324 60.709 126.344 60.709 126.365C60.709 126.386 60.709 126.406 60.709 126.427C60.709 126.448 60.709 126.468 60.709 126.489C60.709 126.51 60.709 126.53 60.709 126.551C60.709 126.572 60.709 126.592 60.709 126.613C60.709 126.634 60.709 126.654 60.709 126.675C60.709 126.696 60.709 126.716 60.709 126.737C60.709 126.758 60.709 126.778 60.709 126.799C60.709 126.82 60.709 126.84 60.709 126.861C60.709 126.882 60.709 126.902 60.709 126.923C60.709 126.944 60.709 126.964 60.709 126.985C60.709 127.006 60.709 127.026 60.709 127.047C60.709 127.068 60.709 127.088 60.709 127.109C60.709 127.13 60.709 127.15 60.709 127.171C60.699 131.341 62.614 135.517 66.456 138.186L120.64 175.884C129.52 182.043 141.662 175.694 141.662 164.898V164.836V164.774V164.712V164.65V164.588V164.526V164.464V164.398V164.336V164.274V164.212V164.15V164.088V164.026V163.964V163.902V163.84V163.778V163.716V163.654V163.592V163.53V163.468V163.406V163.344V163.282V163.22V163.158V163.096V163.034V162.972V162.91V162.848V162.786V162.724V162.662V162.6V162.538V162.476V162.414V162.352V162.29V162.228V162.166V162.104V162.042V161.98V161.918V161.856V161.794V161.732V161.67V161.608V161.546V161.484V161.422V161.36V161.298V161.236V161.174V161.112V161.05V160.988V160.926V160.864V160.802V160.74V160.678V160.616V160.554V160.492V160.43V160.368V160.306V160.244V160.182V160.12V160.058V159.996V159.934V159.872V159.606H172.294C178.789 159.606 184.07 154.325 184.07 147.815V147.753V147.691V147.629V147.567V147.505V147.443V147.381V147.319V147.257V147.195V147.133V147.071V147.009V146.947V146.885V146.823V146.761V146.699V146.637V146.575V146.513V146.451V146.389V146.327V146.265V146.203V146.141V146.079V146.017V145.955V145.893V145.831V145.798V145.736V145.674V145.612V145.55V145.488V145.426V145.364V145.302V145.24V145.178V145.116V145.054V144.992V144.93V144.868V144.806V144.744V144.682V144.62V144.558V144.496V144.434V144.372V144.31V144.248V144.186V144.124V144.062V144V143.938V143.876V143.814V143.752V143.69V143.628V143.566V143.504V143.442V143.38V143.318V143.256V143.194V143.132V143.07V143.008V142.946V142.884V142.822V107.928V107.866V107.804V107.742V107.68V107.618V107.556V107.494V107.432V107.37V107.308V107.246V107.184V107.122V107.06V106.998V106.936V106.874V106.812V106.75V106.688V106.626V106.564V106.502V106.44V106.378V106.316V106.254V106.192V106.13V106.068V106.006V105.944V105.882V105.82V105.758V105.696V105.634V105.572V105.51V105.448V105.386V105.324V105.262V105.2V105.138V105.076V105.014V104.952V104.89V104.828V104.766V104.704V104.642V104.58V104.518V104.456V104.394V104.332V104.27V104.208V104.146V104.084V104.022V103.96V103.898V103.836V103.774V103.712V103.65V103.588V103.526V103.464V103.402V103.34V103.298V103.236V103.174V103.112V103.05V102.988V102.926C184.07 96.4177 178.789 91.1507 172.294 91.1507Z" fill="#C4C685"/>
<path d="M184.07 102.928V142.835C184.07 149.345 178.789 154.626 172.294 154.626H141.662V159.892C141.662 170.688 129.52 177.037 120.64 170.878L66.456 133.18C58.791 127.855 58.791 116.533 66.456 111.222L120.041 73.9477C129.169 67.5987 141.662 74.1237 141.662 85.2407V91.1507H172.294C178.789 91.1517 184.07 96.4177 184.07 102.928Z" fill="#FDFED2"/>
<defs>
<linearGradient id="paint0_linear_15_24" x1="123.374" y1="34.8637" x2="123.374" y2="214.351" gradientUnits="userSpaceOnUse">
<stop stop-color="#F9A000"/>
<stop offset="1" stop-color="#EE4200"/>
</linearGradient>
<linearGradient id="paint1_linear_15_24" x1="122.889" y1="41.5984" x2="122.889" y2="191.205" gradientUnits="userSpaceOnUse">
<stop stop-color="#FBBC00"/>
<stop offset="1" stop-color="#EF5F00"/>
</linearGradient>
<linearGradient id="paint2_linear_15_24" x1="122.388" y1="85.1369" x2="122.388" y2="186.342" gradientUnits="userSpaceOnUse">
<stop stop-color="#F88F00"/>
<stop offset="0.2049" stop-color="#F88A00"/>
<stop offset="0.4425" stop-color="#F67C00"/>
<stop offset="0.6965" stop-color="#F46500"/>
<stop offset="0.9601" stop-color="#F14500"/>
<stop offset="1" stop-color="#F03F00"/>
</linearGradient>
</defs>
</svg>
