<svg width="247" height="264" viewBox="0 0 247 264" fill="none" xmlns="http://www.w3.org/2000/svg">
<path opacity="0.2" d="M123.374 263.748C191.512 263.748 246.748 208.512 246.748 140.374C246.748 72.2364 191.512 17 123.374 17C55.2364 17 0 72.2364 0 140.374C0 208.512 55.2364 263.748 123.374 263.748Z" fill="black"/>
<path d="M123.374 246.748C191.512 246.748 246.748 191.512 246.748 123.374C246.748 55.2364 191.512 0 123.374 0C55.2364 0 0 55.2364 0 123.374C0 191.512 55.2364 246.748 123.374 246.748Z" fill="#FFECAD"/>
<path d="M232.348 123.374C232.348 183.558 183.559 232.348 123.374 232.348C63.1889 232.348 14.3999 183.559 14.3999 123.374C14.3999 63.1889 63.1889 14.3999 123.374 14.3999C183.559 14.3999 232.348 63.1889 232.348 123.374Z" fill="#FEFDD1"/>
<path d="M123.374 217.19C175.187 217.19 217.19 175.187 217.19 123.374C217.19 71.561 175.187 29.5581 123.374 29.5581C71.5609 29.5581 29.5581 71.561 29.5581 123.374C29.5581 175.187 71.5609 217.19 123.374 217.19Z" fill="#E4E3A3"/>
<path d="M123.374 213.563C173.184 213.563 213.563 173.184 213.563 123.374C213.563 73.5641 173.184 33.1851 123.374 33.1851C73.564 33.1851 33.1851 73.5641 33.1851 123.374C33.1851 173.184 73.564 213.563 123.374 213.563Z" fill="url(#paint0_linear_15_58)"/>
<path d="M201.954 96.0322C205.092 105.054 205.774 114.802 203.857 124.16C196.094 162.048 162.563 190.548 122.375 190.548C86.2881 190.548 55.5701 167.57 44.0561 135.456C40.6601 125.985 39.9311 115.783 42.0291 105.943C50.0401 68.3722 83.4171 40.1982 123.375 40.1982C159.738 40.1992 190.648 63.5282 201.954 96.0322Z" fill="url(#paint1_linear_15_58)"/>
<path d="M56.6908 156.884C61.2648 158.605 64.4038 162.048 67.7218 165.416C68.8088 166.597 70.1337 167.926 71.3247 169.565C72.6047 171.182 71.5938 173.731 69.5758 174.06C63.0498 175.212 56.2318 171.048 53.5218 165.173C52.1418 162.341 51.3538 154.741 56.6908 156.884Z" fill="#FFD6AF"/>
<path d="M161.69 181.864C168.594 178.623 184.133 171.544 191.133 172.682C193.555 173.076 194.921 175.641 193.948 177.893C192.135 182.088 184.708 190.846 155.548 203.369C155.548 203.369 128.769 215.369 128.137 203.369C128.136 202.639 128.248 201.566 128.895 200.59C128.895 200.59 157.867 183.658 161.69 181.864Z" fill="#EE6931"/>
<path d="M152.745 201.146C159.922 196.399 167.817 193.233 175.658 189.774C176.141 189.558 176.6 190.214 176.231 190.591C171.673 195.359 165.628 198.417 159.478 200.576C157.415 201.264 155.308 201.824 153.092 202.083C152.574 202.16 152.301 201.421 152.745 201.146Z" fill="#FF9B85"/>
<path d="M175.166 152.99C175.162 152.975 175.159 152.961 175.155 152.946C175.151 152.931 175.148 152.916 175.144 152.902C175.14 152.888 175.137 152.873 175.133 152.859C175.129 152.844 175.126 152.83 175.122 152.815C175.118 152.8 175.115 152.785 175.111 152.771C175.107 152.756 175.104 152.742 175.1 152.727C175.096 152.712 175.093 152.698 175.089 152.683C175.085 152.668 175.082 152.654 175.078 152.639C175.074 152.624 175.071 152.61 175.067 152.595C175.063 152.58 175.06 152.566 175.056 152.551C175.052 152.536 175.049 152.521 175.045 152.507C175.041 152.492 175.038 152.478 175.034 152.463C175.03 152.448 175.027 152.434 175.023 152.419C175.019 152.404 175.016 152.39 175.012 152.375C175.008 152.36 175.005 152.346 175.001 152.331C174.997 152.317 174.994 152.302 174.99 152.287C174.986 152.272 174.983 152.257 174.979 152.243C174.975 152.228 174.972 152.214 174.968 152.199C174.964 152.184 174.961 152.17 174.957 152.155C174.953 152.14 174.95 152.126 174.946 152.111C174.942 152.096 174.939 152.082 174.935 152.067C174.931 152.052 174.928 152.037 174.924 152.023C174.92 152.008 174.917 151.994 174.913 151.979C174.909 151.964 174.906 151.949 174.902 151.935C174.898 151.921 174.895 151.906 174.891 151.892C174.887 151.877 174.884 151.863 174.88 151.848C174.876 151.833 174.873 151.819 174.869 151.804C174.865 151.789 174.862 151.774 174.858 151.76C174.854 151.745 174.851 151.731 174.847 151.716C174.843 151.701 174.84 151.687 174.836 151.672C174.832 151.657 174.829 151.643 174.825 151.628C174.821 151.613 174.818 151.599 174.814 151.584C174.81 151.569 174.807 151.555 174.803 151.54C174.799 151.525 174.796 151.51 174.792 151.496C174.788 151.481 174.785 151.467 174.781 151.452C174.777 151.437 174.774 151.423 174.77 151.408C174.766 151.393 174.763 151.379 174.759 151.364C174.755 151.349 174.752 151.335 174.748 151.32C174.744 151.305 174.741 151.29 174.737 151.276C174.733 151.261 174.73 151.247 174.726 151.232C174.722 151.217 174.719 151.203 174.715 151.188C174.711 151.173 174.708 151.159 174.704 151.144C174.7 151.129 174.697 151.115 174.693 151.1C174.689 151.085 174.686 151.071 174.682 151.056C174.678 151.041 174.675 151.026 174.671 151.012C174.667 150.997 174.664 150.983 174.66 150.968C174.656 150.953 174.653 150.938 174.649 150.924C174.645 150.91 174.642 150.895 174.638 150.881C174.634 150.866 174.631 150.852 174.627 150.837C174.623 150.822 174.62 150.808 174.616 150.793C174.612 150.778 174.609 150.763 174.605 150.749C174.601 150.734 174.598 150.72 174.594 150.705C174.59 150.69 174.587 150.676 174.583 150.661C174.579 150.646 174.576 150.632 174.572 150.617C174.568 150.602 174.565 150.588 174.561 150.573C174.557 150.558 174.554 150.543 174.55 150.529C174.546 150.514 174.543 150.5 174.539 150.485C174.535 150.47 174.532 150.456 174.528 150.441C174.524 150.426 174.521 150.412 174.517 150.397C174.513 150.382 174.51 150.368 174.506 150.353C174.502 150.338 174.499 150.324 174.495 150.309C174.491 150.294 174.488 150.279 174.484 150.265C174.48 150.25 174.477 150.236 174.473 150.221C174.469 150.206 174.466 150.192 174.462 150.177C174.458 150.162 174.455 150.148 174.451 150.133C174.447 150.118 174.444 150.104 174.44 150.089C174.436 150.074 174.433 150.06 174.429 150.045C174.425 150.03 174.422 150.015 174.418 150.001C174.414 149.986 174.411 149.972 174.407 149.957C174.403 149.942 174.4 149.927 174.396 149.913C174.392 149.899 174.389 149.884 174.385 149.87C174.381 149.855 174.378 149.841 174.374 149.826C174.37 149.812 174.367 149.797 174.363 149.782C174.359 149.767 174.356 149.752 174.352 149.738C174.348 149.723 174.345 149.709 174.341 149.694C174.337 149.679 174.334 149.665 174.33 149.65C174.326 149.635 174.323 149.621 174.319 149.606C174.315 149.591 174.312 149.577 174.308 149.562C174.304 149.547 174.301 149.532 174.297 149.518C174.293 149.503 174.29 149.489 174.286 149.474C174.282 149.459 174.279 149.445 174.275 149.43C174.271 149.415 174.268 149.401 174.264 149.386C174.26 149.371 174.257 149.357 174.253 149.342C174.249 149.328 174.246 149.313 174.242 149.298C174.238 149.283 174.235 149.268 174.231 149.254C174.227 149.239 174.224 149.225 174.22 149.21C174.216 149.195 174.213 149.181 174.209 149.166C174.205 149.151 174.202 149.137 174.198 149.122C174.194 149.107 174.191 149.093 174.187 149.078C173.763 147.622 172.979 146.249 171.832 145.101L155.606 128.875L172.832 111.649C175.334 109.147 176.116 105.575 175.176 102.405C175.172 102.39 175.169 102.376 175.165 102.361C175.161 102.346 175.158 102.332 175.154 102.317C175.15 102.302 175.147 102.287 175.143 102.273C175.139 102.259 175.136 102.244 175.132 102.23C175.128 102.215 175.125 102.201 175.121 102.186C175.117 102.171 175.114 102.156 175.11 102.142C175.106 102.127 175.103 102.113 175.099 102.098C175.095 102.083 175.092 102.069 175.088 102.054C175.084 102.039 175.081 102.025 175.077 102.01C175.073 101.995 175.07 101.981 175.066 101.966C175.062 101.951 175.059 101.936 175.055 101.922C175.051 101.907 175.048 101.893 175.044 101.878C175.04 101.863 175.037 101.849 175.033 101.834C175.029 101.819 175.026 101.805 175.022 101.79C175.018 101.775 175.015 101.761 175.011 101.746C175.007 101.731 175.004 101.717 175 101.702C174.996 101.687 174.993 101.672 174.989 101.658C174.985 101.643 174.982 101.629 174.978 101.614C174.974 101.599 174.971 101.585 174.967 101.57C174.963 101.555 174.96 101.541 174.956 101.526C174.952 101.511 174.949 101.497 174.945 101.482C174.941 101.467 174.938 101.453 174.934 101.438C174.93 101.423 174.927 101.408 174.923 101.394C174.919 101.379 174.916 101.365 174.912 101.35C174.908 101.335 174.905 101.32 174.901 101.306C174.897 101.292 174.894 101.277 174.89 101.263C174.886 101.248 174.883 101.234 174.879 101.219C174.875 101.204 174.872 101.189 174.868 101.175C174.864 101.16 174.861 101.146 174.857 101.131C174.853 101.116 174.85 101.102 174.846 101.087C174.842 101.072 174.839 101.058 174.835 101.043C174.831 101.028 174.828 101.014 174.824 100.999C174.82 100.984 174.817 100.97 174.813 100.955C174.809 100.94 174.806 100.925 174.802 100.911C174.798 100.896 174.795 100.882 174.791 100.867C174.787 100.852 174.784 100.838 174.78 100.823C174.776 100.808 174.773 100.794 174.769 100.779C174.765 100.764 174.762 100.75 174.758 100.735C174.754 100.72 174.751 100.706 174.747 100.691C174.743 100.676 174.74 100.661 174.736 100.647C174.732 100.633 174.729 100.618 174.725 100.603C174.721 100.588 174.718 100.574 174.714 100.559C174.71 100.544 174.707 100.53 174.703 100.515C174.699 100.5 174.696 100.486 174.692 100.471C174.688 100.456 174.685 100.441 174.681 100.427C174.677 100.413 174.674 100.398 174.67 100.383C174.666 100.368 174.663 100.354 174.659 100.339C174.655 100.324 174.652 100.309 174.648 100.295C174.644 100.281 174.641 100.266 174.637 100.252C174.633 100.237 174.63 100.223 174.626 100.208C174.622 100.193 174.619 100.178 174.615 100.164C174.611 100.15 174.608 100.135 174.604 100.12C174.6 100.105 174.597 100.091 174.593 100.076C174.589 100.061 174.586 100.047 174.582 100.032C174.578 100.017 174.575 100.003 174.571 99.9878C174.567 99.9728 174.564 99.9588 174.56 99.9438C174.556 99.9288 174.553 99.9138 174.549 99.8998C174.545 99.8858 174.542 99.8708 174.538 99.8558C174.534 99.8408 174.531 99.8268 174.527 99.8118C174.523 99.7968 174.52 99.7828 174.516 99.7678C174.512 99.7528 174.509 99.7388 174.505 99.7238C174.501 99.7088 174.498 99.6948 174.494 99.6798C174.49 99.6648 174.487 99.6497 174.483 99.6357C174.479 99.6217 174.476 99.6067 174.472 99.5917C174.468 99.5767 174.465 99.5628 174.461 99.5478C174.457 99.5328 174.454 99.5188 174.45 99.5038C174.446 99.4888 174.443 99.4748 174.439 99.4598C174.435 99.4448 174.432 99.4298 174.428 99.4158C174.424 99.4018 174.421 99.3868 174.417 99.3718C174.413 99.3568 174.41 99.3428 174.406 99.3278C174.402 99.3128 174.399 99.2978 174.395 99.2838C174.391 99.2698 174.388 99.2548 174.384 99.2408C174.38 99.2258 174.377 99.2118 174.373 99.1968C174.369 99.1818 174.366 99.1668 174.362 99.1528C174.358 99.1378 174.355 99.1238 174.351 99.1088C174.347 99.0938 174.344 99.0798 174.34 99.0648C174.336 99.0498 174.333 99.0358 174.329 99.0208C174.325 99.0058 174.322 98.9917 174.318 98.9767C174.314 98.9617 174.311 98.9477 174.307 98.9327C174.303 98.9177 174.3 98.9028 174.296 98.8888C174.292 98.8738 174.289 98.8598 174.285 98.8448C174.281 98.8298 174.278 98.8158 174.274 98.8008C174.27 98.7858 174.267 98.7718 174.263 98.7568C174.259 98.7418 174.256 98.7278 174.252 98.7128C174.248 98.6978 174.245 98.6828 174.241 98.6688C174.237 98.6538 174.234 98.6398 174.23 98.6248C174.226 98.6098 174.223 98.5958 174.219 98.5808C174.215 98.5658 174.212 98.5517 174.208 98.5367C174.204 98.5217 174.201 98.5077 174.197 98.4927C174.193 98.4777 174.19 98.4638 174.186 98.4488C173.762 96.9928 172.978 95.6188 171.83 94.4708L156.277 78.9167C152.638 75.2778 146.738 75.2778 143.099 78.9167L124.375 97.6418L105.649 78.9158C102.01 75.2768 96.1097 75.2768 92.4707 78.9158L76.9168 94.4698C74.4148 96.9718 73.6328 100.544 74.5718 103.714C74.5758 103.729 74.5787 103.743 74.5827 103.758C74.5867 103.773 74.5898 103.787 74.5938 103.802C74.5978 103.817 74.6008 103.831 74.6048 103.846C74.6088 103.861 74.6118 103.875 74.6158 103.89C74.6198 103.905 74.6228 103.919 74.6268 103.934C74.6308 103.949 74.6338 103.964 74.6378 103.978C74.6418 103.992 74.6448 104.007 74.6488 104.022C74.6528 104.037 74.6558 104.051 74.6598 104.066C74.6638 104.081 74.6668 104.095 74.6708 104.11C74.6748 104.125 74.6777 104.139 74.6817 104.154C74.6857 104.169 74.6888 104.184 74.6928 104.198C74.6968 104.212 74.6998 104.227 74.7038 104.242C74.7078 104.257 74.7108 104.271 74.7148 104.286C74.7188 104.301 74.7218 104.315 74.7258 104.33C74.7298 104.345 74.7328 104.359 74.7368 104.374C74.7408 104.389 74.7438 104.403 74.7478 104.418C74.7518 104.433 74.7548 104.448 74.7588 104.462C74.7628 104.476 74.7658 104.491 74.7698 104.506C74.7738 104.521 74.7767 104.536 74.7807 104.55C74.7847 104.564 74.7878 104.579 74.7918 104.593C74.7958 104.608 74.7988 104.622 74.8028 104.637C74.8068 104.652 74.8098 104.666 74.8138 104.681C74.8178 104.696 74.8208 104.711 74.8248 104.725C74.8288 104.74 74.8318 104.754 74.8358 104.769C74.8398 104.784 74.8428 104.798 74.8468 104.813C74.8508 104.828 74.8538 104.842 74.8578 104.857C74.8618 104.872 74.8648 104.886 74.8688 104.901C74.8728 104.916 74.8757 104.931 74.8797 104.945C74.8837 104.96 74.8868 104.974 74.8908 104.989C74.8948 105.004 74.8978 105.018 74.9018 105.033C74.9058 105.048 74.9088 105.062 74.9128 105.077C74.9168 105.092 74.9198 105.106 74.9238 105.121C74.9278 105.136 74.9308 105.15 74.9348 105.165C74.9388 105.18 74.9418 105.195 74.9458 105.209C74.9498 105.224 74.9528 105.238 74.9568 105.253C74.9608 105.268 74.9638 105.282 74.9678 105.297C74.9718 105.312 74.9747 105.326 74.9787 105.341C74.9827 105.356 74.9858 105.37 74.9898 105.385C74.9938 105.4 74.9968 105.414 75.0008 105.429C75.0048 105.444 75.0078 105.459 75.0118 105.473C75.0158 105.488 75.0188 105.503 75.0228 105.518C75.0268 105.532 75.0298 105.547 75.0338 105.561C75.0378 105.576 75.0408 105.59 75.0448 105.605C75.0488 105.62 75.0518 105.634 75.0558 105.649C75.0598 105.664 75.0628 105.679 75.0668 105.693C75.0708 105.708 75.0738 105.722 75.0778 105.737C75.0818 105.752 75.0848 105.766 75.0888 105.781C75.0928 105.796 75.0958 105.81 75.0998 105.825C75.1038 105.84 75.1068 105.854 75.1108 105.869C75.1148 105.884 75.1178 105.898 75.1218 105.913C75.1258 105.928 75.1288 105.943 75.1328 105.957C75.1368 105.972 75.1398 105.986 75.1438 106.001C75.1478 106.016 75.1508 106.03 75.1548 106.045C75.1588 106.06 75.1618 106.074 75.1658 106.089C75.1698 106.104 75.1728 106.118 75.1768 106.133C75.1808 106.148 75.1838 106.162 75.1878 106.177C75.1918 106.192 75.1948 106.207 75.1988 106.221C75.2028 106.236 75.2058 106.25 75.2098 106.265C75.2138 106.28 75.2167 106.294 75.2207 106.309C75.2247 106.324 75.2278 106.338 75.2318 106.353C75.2358 106.368 75.2388 106.382 75.2428 106.397C75.2468 106.412 75.2498 106.427 75.2538 106.441C75.2578 106.456 75.2608 106.47 75.2648 106.485C75.2688 106.5 75.2718 106.515 75.2758 106.53C75.2798 106.544 75.2828 106.559 75.2868 106.573C75.2908 106.588 75.2938 106.602 75.2978 106.617C75.3018 106.632 75.3048 106.646 75.3088 106.661C75.3128 106.676 75.3157 106.691 75.3197 106.705C75.3237 106.72 75.3268 106.734 75.3308 106.749C75.3348 106.764 75.3378 106.778 75.3418 106.793C75.3458 106.808 75.3488 106.822 75.3528 106.837C75.3568 106.852 75.3598 106.866 75.3638 106.881C75.3678 106.896 75.3708 106.91 75.3748 106.925C75.3788 106.94 75.3818 106.955 75.3858 106.969C75.3898 106.983 75.3928 106.998 75.3968 107.013C75.4008 107.028 75.4038 107.042 75.4078 107.057C75.4118 107.072 75.4147 107.086 75.4187 107.101C75.4227 107.116 75.4258 107.13 75.4298 107.145C75.4338 107.16 75.4368 107.175 75.4408 107.189C75.4448 107.203 75.4478 107.218 75.4518 107.233C75.4558 107.248 75.4588 107.262 75.4628 107.277C75.4668 107.292 75.4698 107.306 75.4738 107.321C75.4778 107.336 75.4808 107.35 75.4848 107.365C75.4888 107.38 75.4918 107.394 75.4958 107.409C75.4998 107.424 75.5028 107.439 75.5068 107.453C75.5108 107.467 75.5137 107.482 75.5177 107.497C75.5217 107.512 75.5248 107.527 75.5288 107.541C75.5328 107.555 75.5358 107.57 75.5398 107.584C75.5438 107.599 75.5468 107.613 75.5508 107.628C75.5548 107.643 75.5578 107.657 75.5618 107.672C75.9858 109.128 76.7698 110.502 77.9178 111.65L94.1438 127.876L76.9178 145.102C74.4158 147.604 73.6338 151.176 74.5728 154.346C74.5768 154.361 74.5798 154.375 74.5838 154.39C74.5878 154.405 74.5908 154.419 74.5948 154.434C74.5988 154.449 74.6018 154.463 74.6058 154.478C74.6098 154.493 74.6127 154.508 74.6167 154.522C74.6207 154.537 74.6238 154.551 74.6278 154.566C74.6318 154.581 74.6348 154.595 74.6388 154.61C74.6428 154.625 74.6458 154.639 74.6498 154.654C74.6538 154.669 74.6568 154.683 74.6608 154.698C74.6648 154.713 74.6678 154.727 74.6718 154.742C74.6758 154.757 74.6788 154.772 74.6828 154.786C74.6868 154.801 74.6898 154.815 74.6938 154.83C74.6978 154.845 74.7008 154.859 74.7048 154.874C74.7088 154.889 74.7118 154.903 74.7158 154.918C74.7198 154.933 74.7228 154.947 74.7268 154.962C74.7308 154.977 74.7338 154.992 74.7378 155.006C74.7418 155.021 74.7448 155.035 74.7488 155.05C74.7528 155.065 74.7558 155.079 74.7598 155.094C74.7638 155.109 74.7668 155.123 74.7708 155.138C74.7748 155.153 74.7778 155.168 74.7818 155.182C74.7858 155.196 74.7888 155.211 74.7928 155.225C74.7968 155.24 74.7998 155.255 74.8038 155.269C74.8078 155.284 74.8108 155.298 74.8148 155.313C74.8188 155.328 74.8218 155.342 74.8258 155.357C74.8298 155.372 74.8328 155.386 74.8368 155.401C74.8408 155.416 74.8438 155.43 74.8478 155.445C74.8518 155.459 74.8547 155.474 74.8587 155.489C74.8627 155.504 74.8658 155.519 74.8698 155.533C74.8738 155.548 74.8768 155.562 74.8808 155.577C74.8848 155.592 74.8878 155.606 74.8918 155.621C74.8958 155.636 74.8988 155.65 74.9028 155.665C74.9068 155.68 74.9098 155.694 74.9138 155.709C74.9178 155.723 74.9208 155.738 74.9248 155.753C74.9288 155.768 74.9318 155.783 74.9358 155.797C74.9398 155.812 74.9428 155.826 74.9468 155.841C74.9508 155.856 74.9537 155.87 74.9577 155.885C74.9617 155.9 74.9648 155.914 74.9688 155.929C74.9728 155.944 74.9758 155.958 74.9798 155.973C74.9838 155.988 74.9868 156.003 74.9908 156.017C74.9948 156.032 74.9978 156.046 75.0018 156.061C75.0058 156.076 75.0088 156.09 75.0128 156.105C75.0168 156.12 75.0198 156.135 75.0238 156.149C75.0278 156.163 75.0308 156.178 75.0348 156.192C75.0388 156.206 75.0418 156.221 75.0458 156.236C75.0498 156.251 75.0527 156.266 75.0567 156.28C75.0607 156.295 75.0638 156.309 75.0678 156.324C75.0718 156.339 75.0748 156.353 75.0788 156.368C75.0828 156.383 75.0858 156.397 75.0898 156.412C75.0938 156.427 75.0968 156.441 75.1008 156.456C75.1048 156.47 75.1078 156.485 75.1118 156.5C75.1158 156.515 75.1188 156.53 75.1228 156.544C75.1268 156.559 75.1298 156.573 75.1338 156.588C75.1378 156.603 75.1408 156.617 75.1448 156.632C75.1488 156.647 75.1517 156.661 75.1557 156.676C75.1597 156.691 75.1628 156.705 75.1668 156.72C75.1708 156.735 75.1738 156.75 75.1778 156.764C75.1818 156.779 75.1848 156.793 75.1888 156.808C75.1928 156.823 75.1958 156.837 75.1998 156.852C75.2038 156.867 75.2068 156.881 75.2108 156.896C75.2148 156.911 75.2178 156.925 75.2218 156.94C75.2258 156.955 75.2288 156.969 75.2328 156.984C75.2368 156.999 75.2398 157.014 75.2438 157.028C75.2478 157.043 75.2507 157.057 75.2547 157.072C75.2587 157.087 75.2618 157.101 75.2658 157.116C75.2698 157.131 75.2728 157.146 75.2768 157.16C75.2808 157.174 75.2838 157.189 75.2878 157.203C75.2918 157.217 75.2948 157.232 75.2988 157.247C75.3028 157.262 75.3058 157.277 75.3098 157.291C75.3138 157.306 75.3168 157.32 75.3208 157.335C75.3248 157.35 75.3278 157.364 75.3318 157.379C75.3358 157.394 75.3388 157.408 75.3428 157.423C75.3468 157.438 75.3497 157.452 75.3537 157.467C75.3577 157.482 75.3608 157.497 75.3648 157.511C75.3688 157.526 75.3718 157.54 75.3758 157.555C75.3798 157.57 75.3828 157.584 75.3868 157.599C75.3908 157.614 75.3938 157.628 75.3978 157.643C75.4018 157.658 75.4048 157.672 75.4088 157.687C75.4128 157.702 75.4158 157.716 75.4198 157.731C75.4238 157.746 75.4268 157.761 75.4308 157.775C75.4348 157.79 75.4378 157.804 75.4418 157.819C75.4458 157.834 75.4488 157.848 75.4528 157.863C75.4568 157.878 75.4598 157.892 75.4638 157.907C75.4678 157.922 75.4708 157.936 75.4748 157.951C75.4788 157.966 75.4818 157.98 75.4858 157.995C75.4898 158.01 75.4928 158.025 75.4968 158.039C75.5008 158.054 75.5038 158.068 75.5078 158.083C75.5118 158.098 75.5148 158.112 75.5188 158.127C75.5228 158.142 75.5258 158.157 75.5298 158.171C75.5338 158.185 75.5368 158.2 75.5408 158.214C75.5448 158.229 75.5478 158.244 75.5518 158.258C75.5558 158.273 75.5588 158.287 75.5628 158.302C75.9868 159.758 76.7707 161.131 77.9187 162.279L93.4728 177.833C97.1118 181.472 103.012 181.472 106.651 177.833L125.377 159.107L144.103 177.833C147.742 181.472 153.642 181.472 157.281 177.833L172.834 162.279C175.336 159.777 176.118 156.205 175.179 153.035C175.173 153.019 175.17 153.004 175.166 152.99Z" fill="url(#paint2_linear_15_58)"/>
<path d="M174.166 149.99C174.162 149.975 174.159 149.961 174.155 149.946C174.151 149.931 174.148 149.916 174.144 149.902C174.14 149.888 174.137 149.873 174.133 149.859C174.129 149.844 174.126 149.83 174.122 149.815C174.118 149.8 174.115 149.785 174.111 149.771C174.107 149.756 174.104 149.742 174.1 149.727C174.096 149.712 174.093 149.698 174.089 149.683C174.085 149.668 174.082 149.654 174.078 149.639C174.074 149.624 174.071 149.61 174.067 149.595C174.063 149.58 174.06 149.566 174.056 149.551C174.052 149.536 174.049 149.521 174.045 149.507C174.041 149.492 174.038 149.478 174.034 149.463C174.03 149.448 174.027 149.434 174.023 149.419C174.019 149.404 174.016 149.39 174.012 149.375C174.008 149.36 174.005 149.346 174.001 149.331C173.997 149.317 173.994 149.302 173.99 149.287C173.986 149.272 173.983 149.257 173.979 149.243C173.975 149.228 173.972 149.214 173.968 149.199C173.964 149.184 173.961 149.17 173.957 149.155C173.953 149.14 173.95 149.126 173.946 149.111C173.942 149.096 173.939 149.082 173.935 149.067C173.931 149.052 173.928 149.037 173.924 149.023C173.92 149.008 173.917 148.994 173.913 148.979C173.909 148.964 173.906 148.949 173.902 148.935C173.898 148.921 173.895 148.906 173.891 148.892C173.887 148.877 173.884 148.863 173.88 148.848C173.876 148.833 173.873 148.819 173.869 148.804C173.865 148.789 173.862 148.774 173.858 148.76C173.854 148.745 173.851 148.731 173.847 148.716C173.843 148.701 173.84 148.687 173.836 148.672C173.832 148.657 173.829 148.643 173.825 148.628C173.821 148.613 173.818 148.599 173.814 148.584C173.81 148.569 173.807 148.555 173.803 148.54C173.799 148.525 173.796 148.51 173.792 148.496C173.788 148.481 173.785 148.467 173.781 148.452C173.777 148.437 173.774 148.423 173.77 148.408C173.766 148.393 173.763 148.379 173.759 148.364C173.755 148.349 173.752 148.335 173.748 148.32C173.744 148.305 173.741 148.29 173.737 148.276C173.733 148.261 173.73 148.247 173.726 148.232C173.722 148.217 173.719 148.203 173.715 148.188C173.711 148.173 173.708 148.159 173.704 148.144C173.7 148.129 173.697 148.115 173.693 148.1C173.689 148.085 173.686 148.071 173.682 148.056C173.678 148.041 173.675 148.026 173.671 148.012C173.667 147.997 173.664 147.983 173.66 147.968C173.656 147.953 173.653 147.938 173.649 147.924C173.645 147.91 173.642 147.895 173.638 147.881C173.634 147.866 173.631 147.852 173.627 147.837C173.623 147.822 173.62 147.808 173.616 147.793C173.612 147.778 173.609 147.763 173.605 147.749C173.601 147.734 173.598 147.72 173.594 147.705C173.59 147.69 173.587 147.676 173.583 147.661C173.579 147.646 173.576 147.632 173.572 147.617C173.568 147.602 173.565 147.588 173.561 147.573C173.557 147.558 173.554 147.543 173.55 147.529C173.546 147.514 173.543 147.5 173.539 147.485C173.535 147.47 173.532 147.456 173.528 147.441C173.524 147.426 173.521 147.412 173.517 147.397C173.513 147.382 173.51 147.368 173.506 147.353C173.502 147.338 173.499 147.324 173.495 147.309C173.491 147.294 173.488 147.279 173.484 147.265C173.48 147.25 173.477 147.236 173.473 147.221C173.469 147.206 173.466 147.192 173.462 147.177C173.458 147.162 173.455 147.148 173.451 147.133C173.447 147.118 173.444 147.104 173.44 147.089C173.436 147.074 173.433 147.06 173.429 147.045C173.425 147.03 173.422 147.015 173.418 147.001C173.414 146.986 173.411 146.972 173.407 146.957C173.403 146.942 173.4 146.927 173.396 146.913C173.392 146.899 173.389 146.884 173.385 146.87C173.381 146.855 173.378 146.841 173.374 146.826C173.37 146.812 173.367 146.797 173.363 146.782C173.359 146.767 173.356 146.752 173.352 146.738C173.348 146.723 173.345 146.709 173.341 146.694C173.337 146.679 173.334 146.665 173.33 146.65C173.326 146.635 173.323 146.621 173.319 146.606C173.315 146.591 173.312 146.577 173.308 146.562C173.304 146.547 173.301 146.532 173.297 146.518C173.293 146.503 173.29 146.489 173.286 146.474C173.282 146.459 173.279 146.445 173.275 146.43C173.271 146.415 173.268 146.401 173.264 146.386C173.26 146.371 173.257 146.357 173.253 146.342C173.249 146.328 173.246 146.313 173.242 146.298C173.238 146.283 173.235 146.268 173.231 146.254C173.227 146.239 173.224 146.225 173.22 146.21C173.216 146.195 173.213 146.181 173.209 146.166C173.205 146.151 173.202 146.137 173.198 146.122C173.194 146.107 173.191 146.093 173.187 146.078C172.763 144.622 171.979 143.249 170.832 142.101L154.606 125.875L171.832 108.649C174.334 106.147 175.116 102.575 174.176 99.4048C174.172 99.3898 174.169 99.3758 174.165 99.3608C174.161 99.3458 174.158 99.3318 174.154 99.3168C174.15 99.3018 174.147 99.2868 174.143 99.2728C174.139 99.2588 174.136 99.2437 174.132 99.2297C174.128 99.2147 174.125 99.2008 174.121 99.1858C174.117 99.1708 174.114 99.1558 174.11 99.1418C174.106 99.1268 174.103 99.1128 174.099 99.0978C174.095 99.0828 174.092 99.0688 174.088 99.0538C174.084 99.0388 174.081 99.0248 174.077 99.0098C174.073 98.9948 174.07 98.9808 174.066 98.9658C174.062 98.9508 174.059 98.9358 174.055 98.9218C174.051 98.9068 174.048 98.8927 174.044 98.8777C174.04 98.8627 174.037 98.8487 174.033 98.8337C174.029 98.8187 174.026 98.8048 174.022 98.7898C174.018 98.7748 174.015 98.7608 174.011 98.7458C174.007 98.7308 174.004 98.7168 174 98.7018C173.996 98.6868 173.993 98.6718 173.989 98.6578C173.985 98.6428 173.982 98.6288 173.978 98.6138C173.974 98.5988 173.971 98.5848 173.967 98.5698C173.963 98.5548 173.96 98.5408 173.956 98.5258C173.952 98.5108 173.949 98.4968 173.945 98.4818C173.941 98.4668 173.938 98.4527 173.934 98.4377C173.93 98.4227 173.927 98.4077 173.923 98.3937C173.919 98.3787 173.916 98.3648 173.912 98.3498C173.908 98.3348 173.905 98.3198 173.901 98.3058C173.897 98.2918 173.894 98.2768 173.89 98.2628C173.886 98.2478 173.883 98.2338 173.879 98.2188C173.875 98.2038 173.872 98.1887 173.868 98.1747C173.864 98.1597 173.861 98.1457 173.857 98.1307C173.853 98.1157 173.85 98.1018 173.846 98.0868C173.842 98.0718 173.839 98.0578 173.835 98.0428C173.831 98.0278 173.828 98.0138 173.824 97.9988C173.82 97.9838 173.817 97.9698 173.813 97.9548C173.809 97.9398 173.806 97.9248 173.802 97.9108C173.798 97.8958 173.795 97.8818 173.791 97.8668C173.787 97.8518 173.784 97.8378 173.78 97.8228C173.776 97.8078 173.773 97.7937 173.769 97.7787C173.765 97.7637 173.762 97.7497 173.758 97.7347C173.754 97.7197 173.751 97.7057 173.747 97.6907C173.743 97.6757 173.74 97.6608 173.736 97.6468C173.732 97.6328 173.729 97.6178 173.725 97.6028C173.721 97.5878 173.718 97.5738 173.714 97.5588C173.71 97.5438 173.707 97.5298 173.703 97.5148C173.699 97.4998 173.696 97.4858 173.692 97.4708C173.688 97.4558 173.685 97.4408 173.681 97.4268C173.677 97.4128 173.674 97.3978 173.67 97.3828C173.666 97.3678 173.663 97.3537 173.659 97.3387C173.655 97.3237 173.652 97.3087 173.648 97.2947C173.644 97.2807 173.641 97.2658 173.637 97.2518C173.633 97.2368 173.63 97.2228 173.626 97.2078C173.622 97.1928 173.619 97.1778 173.615 97.1638C173.611 97.1498 173.608 97.1348 173.604 97.1198C173.6 97.1048 173.597 97.0907 173.593 97.0757C173.589 97.0607 173.586 97.0467 173.582 97.0317C173.578 97.0167 173.575 97.0028 173.571 96.9878C173.567 96.9728 173.564 96.9588 173.56 96.9438C173.556 96.9288 173.553 96.9138 173.549 96.8998C173.545 96.8858 173.542 96.8708 173.538 96.8558C173.534 96.8408 173.531 96.8268 173.527 96.8118C173.523 96.7968 173.52 96.7828 173.516 96.7678C173.512 96.7528 173.509 96.7388 173.505 96.7238C173.501 96.7088 173.498 96.6948 173.494 96.6798C173.49 96.6648 173.487 96.6497 173.483 96.6357C173.479 96.6217 173.476 96.6067 173.472 96.5917C173.468 96.5767 173.465 96.5628 173.461 96.5478C173.457 96.5328 173.454 96.5188 173.45 96.5038C173.446 96.4888 173.443 96.4748 173.439 96.4598C173.435 96.4448 173.432 96.4298 173.428 96.4158C173.424 96.4018 173.421 96.3868 173.417 96.3718C173.413 96.3568 173.41 96.3428 173.406 96.3278C173.402 96.3128 173.399 96.2978 173.395 96.2838C173.391 96.2698 173.388 96.2548 173.384 96.2408C173.38 96.2258 173.377 96.2118 173.373 96.1968C173.369 96.1818 173.366 96.1668 173.362 96.1528C173.358 96.1378 173.355 96.1238 173.351 96.1088C173.347 96.0938 173.344 96.0798 173.34 96.0648C173.336 96.0498 173.333 96.0358 173.329 96.0208C173.325 96.0058 173.322 95.9917 173.318 95.9767C173.314 95.9617 173.311 95.9477 173.307 95.9327C173.303 95.9177 173.3 95.9028 173.296 95.8888C173.292 95.8738 173.289 95.8598 173.285 95.8448C173.281 95.8298 173.278 95.8158 173.274 95.8008C173.27 95.7858 173.267 95.7718 173.263 95.7568C173.259 95.7418 173.256 95.7278 173.252 95.7128C173.248 95.6978 173.245 95.6828 173.241 95.6688C173.237 95.6538 173.234 95.6398 173.23 95.6248C173.226 95.6098 173.223 95.5958 173.219 95.5808C173.215 95.5658 173.212 95.5517 173.208 95.5367C173.204 95.5217 173.201 95.5077 173.197 95.4927C173.193 95.4777 173.19 95.4638 173.186 95.4488C172.762 93.9928 171.978 92.6188 170.83 91.4708L155.277 75.9167C151.638 72.2778 145.738 72.2778 142.099 75.9167L123.375 94.6418L104.649 75.9158C101.01 72.2768 95.1097 72.2768 91.4707 75.9158L75.9168 91.4698C73.4148 93.9718 72.6328 97.5437 73.5718 100.714C73.5758 100.729 73.5787 100.743 73.5827 100.758C73.5867 100.773 73.5898 100.787 73.5938 100.802C73.5978 100.817 73.6008 100.831 73.6048 100.846C73.6088 100.861 73.6118 100.875 73.6158 100.89C73.6198 100.905 73.6228 100.919 73.6268 100.934C73.6308 100.949 73.6338 100.964 73.6378 100.978C73.6418 100.992 73.6448 101.007 73.6488 101.022C73.6528 101.037 73.6558 101.051 73.6598 101.066C73.6638 101.081 73.6668 101.095 73.6708 101.11C73.6748 101.125 73.6777 101.139 73.6817 101.154C73.6857 101.169 73.6888 101.184 73.6928 101.198C73.6968 101.212 73.6998 101.227 73.7038 101.242C73.7078 101.257 73.7108 101.271 73.7148 101.286C73.7188 101.301 73.7218 101.315 73.7258 101.33C73.7298 101.345 73.7328 101.359 73.7368 101.374C73.7408 101.389 73.7438 101.403 73.7478 101.418C73.7518 101.433 73.7548 101.448 73.7588 101.462C73.7628 101.476 73.7658 101.491 73.7698 101.506C73.7738 101.521 73.7767 101.536 73.7807 101.55C73.7847 101.564 73.7878 101.579 73.7918 101.593C73.7958 101.608 73.7988 101.622 73.8028 101.637C73.8068 101.652 73.8098 101.666 73.8138 101.681C73.8178 101.696 73.8208 101.711 73.8248 101.725C73.8288 101.74 73.8318 101.754 73.8358 101.769C73.8398 101.784 73.8428 101.798 73.8468 101.813C73.8508 101.828 73.8538 101.842 73.8578 101.857C73.8618 101.872 73.8648 101.886 73.8688 101.901C73.8728 101.916 73.8757 101.931 73.8797 101.945C73.8837 101.96 73.8868 101.974 73.8908 101.989C73.8948 102.004 73.8978 102.018 73.9018 102.033C73.9058 102.048 73.9088 102.062 73.9128 102.077C73.9168 102.092 73.9198 102.106 73.9238 102.121C73.9278 102.136 73.9308 102.15 73.9348 102.165C73.9388 102.18 73.9418 102.195 73.9458 102.209C73.9498 102.224 73.9528 102.238 73.9568 102.253C73.9608 102.268 73.9638 102.282 73.9678 102.297C73.9718 102.312 73.9747 102.326 73.9787 102.341C73.9827 102.356 73.9858 102.37 73.9898 102.385C73.9938 102.4 73.9968 102.414 74.0008 102.429C74.0048 102.444 74.0078 102.459 74.0118 102.473C74.0158 102.488 74.0188 102.503 74.0228 102.518C74.0268 102.532 74.0298 102.547 74.0338 102.561C74.0378 102.576 74.0408 102.59 74.0448 102.605C74.0488 102.62 74.0518 102.634 74.0558 102.649C74.0598 102.664 74.0628 102.679 74.0668 102.693C74.0708 102.708 74.0738 102.722 74.0778 102.737C74.0818 102.752 74.0848 102.766 74.0888 102.781C74.0928 102.796 74.0958 102.81 74.0998 102.825C74.1038 102.84 74.1068 102.854 74.1108 102.869C74.1148 102.884 74.1178 102.898 74.1218 102.913C74.1258 102.928 74.1288 102.943 74.1328 102.957C74.1368 102.972 74.1398 102.986 74.1438 103.001C74.1478 103.016 74.1508 103.03 74.1548 103.045C74.1588 103.06 74.1618 103.074 74.1658 103.089C74.1698 103.104 74.1728 103.118 74.1768 103.133C74.1808 103.148 74.1838 103.162 74.1878 103.177C74.1918 103.192 74.1948 103.207 74.1988 103.221C74.2028 103.236 74.2058 103.25 74.2098 103.265C74.2138 103.28 74.2167 103.294 74.2207 103.309C74.2247 103.324 74.2278 103.338 74.2318 103.353C74.2358 103.368 74.2388 103.382 74.2428 103.397C74.2468 103.412 74.2498 103.427 74.2538 103.441C74.2578 103.456 74.2608 103.47 74.2648 103.485C74.2688 103.5 74.2718 103.515 74.2758 103.53C74.2798 103.544 74.2828 103.559 74.2868 103.573C74.2908 103.588 74.2938 103.602 74.2978 103.617C74.3018 103.632 74.3048 103.646 74.3088 103.661C74.3128 103.676 74.3157 103.691 74.3197 103.705C74.3237 103.72 74.3268 103.734 74.3308 103.749C74.3348 103.764 74.3378 103.778 74.3418 103.793C74.3458 103.808 74.3488 103.822 74.3528 103.837C74.3568 103.852 74.3598 103.866 74.3638 103.881C74.3678 103.896 74.3708 103.91 74.3748 103.925C74.3788 103.94 74.3818 103.955 74.3858 103.969C74.3898 103.983 74.3928 103.998 74.3968 104.013C74.4008 104.028 74.4038 104.042 74.4078 104.057C74.4118 104.072 74.4147 104.086 74.4187 104.101C74.4227 104.116 74.4258 104.13 74.4298 104.145C74.4338 104.16 74.4368 104.175 74.4408 104.189C74.4448 104.203 74.4478 104.218 74.4518 104.233C74.4558 104.248 74.4588 104.262 74.4628 104.277C74.4668 104.292 74.4698 104.306 74.4738 104.321C74.4778 104.336 74.4808 104.35 74.4848 104.365C74.4888 104.38 74.4918 104.394 74.4958 104.409C74.4998 104.424 74.5028 104.439 74.5068 104.453C74.5108 104.467 74.5137 104.482 74.5177 104.497C74.5217 104.512 74.5248 104.527 74.5288 104.541C74.5328 104.555 74.5358 104.57 74.5398 104.584C74.5438 104.599 74.5468 104.613 74.5508 104.628C74.5548 104.643 74.5578 104.657 74.5618 104.672C74.9858 106.128 75.7698 107.502 76.9178 108.65L93.1438 124.876L75.9178 142.102C73.4158 144.604 72.6338 148.176 73.5728 151.346C73.5768 151.361 73.5798 151.375 73.5838 151.39C73.5878 151.405 73.5908 151.419 73.5948 151.434C73.5988 151.449 73.6018 151.463 73.6058 151.478C73.6098 151.493 73.6127 151.508 73.6167 151.522C73.6207 151.537 73.6238 151.551 73.6278 151.566C73.6318 151.581 73.6348 151.595 73.6388 151.61C73.6428 151.625 73.6458 151.639 73.6498 151.654C73.6538 151.669 73.6568 151.683 73.6608 151.698C73.6648 151.713 73.6678 151.727 73.6718 151.742C73.6758 151.757 73.6788 151.772 73.6828 151.786C73.6868 151.801 73.6898 151.815 73.6938 151.83C73.6978 151.845 73.7008 151.859 73.7048 151.874C73.7088 151.889 73.7118 151.903 73.7158 151.918C73.7198 151.933 73.7228 151.947 73.7268 151.962C73.7308 151.977 73.7338 151.992 73.7378 152.006C73.7418 152.021 73.7448 152.035 73.7488 152.05C73.7528 152.065 73.7558 152.079 73.7598 152.094C73.7638 152.109 73.7668 152.123 73.7708 152.138C73.7748 152.153 73.7778 152.168 73.7818 152.182C73.7858 152.196 73.7888 152.211 73.7928 152.225C73.7968 152.24 73.7998 152.255 73.8038 152.269C73.8078 152.284 73.8108 152.298 73.8148 152.313C73.8188 152.328 73.8218 152.342 73.8258 152.357C73.8298 152.372 73.8328 152.386 73.8368 152.401C73.8408 152.416 73.8438 152.43 73.8478 152.445C73.8518 152.459 73.8547 152.474 73.8587 152.489C73.8627 152.504 73.8658 152.519 73.8698 152.533C73.8738 152.548 73.8768 152.562 73.8808 152.577C73.8848 152.592 73.8878 152.606 73.8918 152.621C73.8958 152.636 73.8988 152.65 73.9028 152.665C73.9068 152.68 73.9098 152.694 73.9138 152.709C73.9178 152.723 73.9208 152.738 73.9248 152.753C73.9288 152.768 73.9318 152.783 73.9358 152.797C73.9398 152.812 73.9428 152.826 73.9468 152.841C73.9508 152.856 73.9537 152.87 73.9577 152.885C73.9617 152.9 73.9648 152.914 73.9688 152.929C73.9728 152.944 73.9758 152.958 73.9798 152.973C73.9838 152.988 73.9868 153.003 73.9908 153.017C73.9948 153.032 73.9978 153.046 74.0018 153.061C74.0058 153.076 74.0088 153.09 74.0128 153.105C74.0168 153.12 74.0198 153.135 74.0238 153.149C74.0278 153.163 74.0308 153.178 74.0348 153.192C74.0388 153.206 74.0418 153.221 74.0458 153.236C74.0498 153.251 74.0527 153.266 74.0567 153.28C74.0607 153.295 74.0638 153.309 74.0678 153.324C74.0718 153.339 74.0748 153.353 74.0788 153.368C74.0828 153.383 74.0858 153.397 74.0898 153.412C74.0938 153.427 74.0968 153.441 74.1008 153.456C74.1048 153.47 74.1078 153.485 74.1118 153.5C74.1158 153.515 74.1188 153.53 74.1228 153.544C74.1268 153.559 74.1298 153.573 74.1338 153.588C74.1378 153.603 74.1408 153.617 74.1448 153.632C74.1488 153.647 74.1517 153.661 74.1557 153.676C74.1597 153.691 74.1628 153.705 74.1668 153.72C74.1708 153.735 74.1738 153.75 74.1778 153.764C74.1818 153.779 74.1848 153.793 74.1888 153.808C74.1928 153.823 74.1958 153.837 74.1998 153.852C74.2038 153.867 74.2068 153.881 74.2108 153.896C74.2148 153.911 74.2178 153.925 74.2218 153.94C74.2258 153.955 74.2288 153.969 74.2328 153.984C74.2368 153.999 74.2398 154.014 74.2438 154.028C74.2478 154.043 74.2507 154.057 74.2547 154.072C74.2587 154.087 74.2618 154.101 74.2658 154.116C74.2698 154.131 74.2728 154.146 74.2768 154.16C74.2808 154.174 74.2838 154.189 74.2878 154.203C74.2918 154.217 74.2948 154.232 74.2988 154.247C74.3028 154.262 74.3058 154.277 74.3098 154.291C74.3138 154.306 74.3168 154.32 74.3208 154.335C74.3248 154.35 74.3278 154.364 74.3318 154.379C74.3358 154.394 74.3388 154.408 74.3428 154.423C74.3468 154.438 74.3497 154.452 74.3537 154.467C74.3577 154.482 74.3608 154.497 74.3648 154.511C74.3688 154.526 74.3718 154.54 74.3758 154.555C74.3798 154.57 74.3828 154.584 74.3868 154.599C74.3908 154.614 74.3938 154.628 74.3978 154.643C74.4018 154.658 74.4048 154.672 74.4088 154.687C74.4128 154.702 74.4158 154.716 74.4198 154.731C74.4238 154.746 74.4268 154.761 74.4308 154.775C74.4348 154.79 74.4378 154.804 74.4418 154.819C74.4458 154.834 74.4488 154.848 74.4528 154.863C74.4568 154.878 74.4598 154.892 74.4638 154.907C74.4678 154.922 74.4708 154.936 74.4748 154.951C74.4788 154.966 74.4818 154.98 74.4858 154.995C74.4898 155.01 74.4928 155.025 74.4968 155.039C74.5008 155.054 74.5038 155.068 74.5078 155.083C74.5118 155.098 74.5148 155.112 74.5188 155.127C74.5228 155.142 74.5258 155.157 74.5298 155.171C74.5338 155.185 74.5368 155.2 74.5408 155.214C74.5448 155.229 74.5478 155.244 74.5518 155.258C74.5558 155.273 74.5588 155.287 74.5628 155.302C74.9868 156.758 75.7707 158.131 76.9187 159.279L92.4728 174.833C96.1118 178.472 102.012 178.472 105.651 174.833L124.377 156.107L143.103 174.833C146.742 178.472 152.642 178.472 156.281 174.833L171.834 159.279C174.336 156.777 175.118 153.205 174.179 150.035C174.173 150.019 174.17 150.004 174.166 149.99Z" fill="#C7C97E"/>
<path d="M152.106 123.374L170.832 104.648C174.471 101.009 174.471 95.1088 170.832 91.4698L155.279 75.9158C151.64 72.2768 145.74 72.2768 142.101 75.9158L123.375 94.6418L104.649 75.9158C101.01 72.2768 95.1097 72.2768 91.4707 75.9158L75.9167 91.4698C72.2778 95.1088 72.2778 101.009 75.9167 104.648L94.6427 123.374L75.9167 142.1C72.2778 145.739 72.2778 151.639 75.9167 155.278L91.4707 170.832C95.1097 174.471 101.01 174.471 104.649 170.832L123.375 152.106L142.101 170.832C145.74 174.471 151.64 174.471 155.279 170.832L170.832 155.278C174.471 151.639 174.471 145.739 170.832 142.1L152.106 123.374Z" fill="#FDFED2"/>
<defs>
<linearGradient id="paint0_linear_15_58" x1="123.375" y1="34.8634" x2="123.375" y2="214.35" gradientUnits="userSpaceOnUse">
<stop stop-color="#F9A000"/>
<stop offset="1" stop-color="#EE4200"/>
</linearGradient>
<linearGradient id="paint1_linear_15_58" x1="122.889" y1="41.5982" x2="122.889" y2="191.205" gradientUnits="userSpaceOnUse">
<stop stop-color="#FBBC00"/>
<stop offset="1" stop-color="#EF5F00"/>
</linearGradient>
<linearGradient id="paint2_linear_15_58" x1="124.874" y1="74.6876" x2="124.874" y2="193.051" gradientUnits="userSpaceOnUse">
<stop stop-color="#F88F00"/>
<stop offset="0.2264" stop-color="#F88B00"/>
<stop offset="0.449" stop-color="#F67F00"/>
<stop offset="0.67" stop-color="#F46C00"/>
<stop offset="0.8888" stop-color="#F25000"/>
<stop offset="1" stop-color="#F03F00"/>
</linearGradient>
</defs>
</svg>
