<svg width="200" height="213" viewBox="0 0 200 213" fill="none" xmlns="http://www.w3.org/2000/svg">
<path opacity="0.2" d="M99.626 212.98C154.648 212.98 199.252 168.375 199.252 113.354C199.252 58.3316 154.648 13.7275 99.626 13.7275C44.6041 13.7275 0 58.3316 0 113.354C0 168.375 44.6041 212.98 99.626 212.98Z" fill="black"/>
<path d="M99.626 199.252C154.648 199.252 199.252 154.648 199.252 99.626C199.252 44.6041 154.648 0 99.626 0C44.6041 0 0 44.6041 0 99.626C0 154.648 44.6041 199.252 99.626 199.252Z" fill="#FFECAD"/>
<path d="M99.6258 187.624C148.226 187.624 187.624 148.226 187.624 99.6258C187.624 51.0259 148.226 11.6279 99.6258 11.6279C51.0259 11.6279 11.6279 51.0259 11.6279 99.6258C11.6279 148.226 51.0259 187.624 99.6258 187.624Z" fill="#FEFDD1"/>
<path d="M99.6262 175.384C141.466 175.384 175.384 141.466 175.384 99.626C175.384 57.7863 141.466 23.8684 99.6262 23.8684C57.7865 23.8684 23.8687 57.7863 23.8687 99.626C23.8687 141.466 57.7865 175.384 99.6262 175.384Z" fill="#E4E3A3"/>
<path d="M99.6261 172.455C139.848 172.455 172.455 139.848 172.455 99.6258C172.455 59.4037 139.848 26.7971 99.6261 26.7971C59.4039 26.7971 26.7974 59.4037 26.7974 99.6258C26.7974 139.848 59.4039 172.455 99.6261 172.455Z" fill="url(#paint0_linear_45_58088)"/>
<path d="M163.079 77.5478C165.613 84.8332 166.164 92.7048 164.616 100.262C158.347 130.857 131.271 153.871 98.8193 153.871C69.6786 153.871 44.8735 135.316 35.5758 109.383C32.8335 101.735 32.2448 93.497 33.9389 85.5511C40.4079 55.212 67.3602 32.4612 99.6268 32.4612C128.99 32.4612 153.95 51.2997 163.079 77.5478Z" fill="url(#paint1_linear_45_58088)"/>
<path d="M45.7777 126.686C49.4712 128.076 52.006 130.856 54.6853 133.576C55.5631 134.53 56.633 135.603 57.5948 136.926C58.6284 138.232 57.812 140.291 56.1825 140.556C50.9126 141.486 45.407 138.124 43.2187 133.38C42.1043 131.092 41.4688 124.955 45.7777 126.686Z" fill="#FFD6AF"/>
<path d="M130.566 146.857C136.141 144.24 148.689 138.523 154.341 139.442C156.297 139.76 157.4 141.832 156.614 143.65C155.15 147.038 149.153 154.11 125.606 164.222C125.606 164.222 103.982 173.912 103.471 164.222C103.47 163.633 103.561 162.766 104.083 161.978C104.083 161.978 127.479 148.305 130.566 146.857Z" fill="#EE6931"/>
<path d="M123.343 162.427C129.138 158.594 135.513 156.038 141.845 153.244C142.235 153.07 142.606 153.6 142.308 153.904C138.627 157.754 133.746 160.224 128.78 161.967C127.114 162.523 125.412 162.975 123.623 163.184C123.205 163.247 122.984 162.649 123.343 162.427Z" fill="#FF9B85"/>
<path d="M87.2344 108.123L126.037 69.3202C127.568 67.789 129.382 67.0234 131.477 67.0234C133.572 67.0234 135.385 67.789 136.916 69.3202C138.448 70.8513 139.213 72.6645 139.213 74.7598C139.213 76.8551 138.448 78.6683 136.916 80.1995L92.674 124.442C91.1429 125.973 89.3297 126.739 87.2344 126.739C85.1391 126.739 83.3259 125.973 81.7947 124.442L61.245 103.892C59.7138 102.361 58.9482 100.548 58.9482 98.4525C58.9482 96.3572 59.7138 94.544 61.245 93.0128C62.7761 91.4817 64.5894 90.7161 66.6846 90.7161C68.7799 90.7161 70.5931 91.4817 72.1243 93.0128L87.2344 108.123Z" fill="#FEFDD1"/>
<defs>
<linearGradient id="paint0_linear_45_58088" x1="99.6257" y1="28.1525" x2="99.6257" y2="173.091" gradientUnits="userSpaceOnUse">
<stop stop-color="#F9A000"/>
<stop offset="1" stop-color="#EE4200"/>
</linearGradient>
<linearGradient id="paint1_linear_45_58088" x1="99.2339" y1="33.5911" x2="99.2339" y2="154.4" gradientUnits="userSpaceOnUse">
<stop stop-color="#FBBC00"/>
<stop offset="1" stop-color="#EF5F00"/>
</linearGradient>
</defs>
</svg>
