<svg width="247" height="264" viewBox="0 0 247 264" fill="none" xmlns="http://www.w3.org/2000/svg">
<path opacity="0.2" d="M123.374 263.748C191.512 263.748 246.748 208.512 246.748 140.374C246.748 72.2364 191.512 17 123.374 17C55.2364 17 0 72.2364 0 140.374C0 208.512 55.2364 263.748 123.374 263.748Z" fill="black"/>
<path d="M123.374 246.748C191.512 246.748 246.748 191.512 246.748 123.374C246.748 55.2364 191.512 0 123.374 0C55.2364 0 0 55.2364 0 123.374C0 191.512 55.2364 246.748 123.374 246.748Z" fill="#FFECAD"/>
<path d="M123.374 232.348C183.559 232.348 232.348 183.559 232.348 123.374C232.348 63.1893 183.559 14.3999 123.374 14.3999C63.1892 14.3999 14.3999 63.1893 14.3999 123.374C14.3999 183.559 63.1892 232.348 123.374 232.348Z" fill="#FEFDD1"/>
<path d="M123.374 217.19C175.187 217.19 217.19 175.187 217.19 123.374C217.19 71.561 175.187 29.5581 123.374 29.5581C71.561 29.5581 29.5581 71.561 29.5581 123.374C29.5581 175.187 71.561 217.19 123.374 217.19Z" fill="#E4E3A3"/>
<path d="M123.374 213.563C173.184 213.563 213.563 173.184 213.563 123.374C213.563 73.5641 173.184 33.1851 123.374 33.1851C73.564 33.1851 33.1851 73.5641 33.1851 123.374C33.1851 173.184 73.564 213.563 123.374 213.563Z" fill="url(#paint0_linear_16_386)"/>
<path d="M201.954 96.0332C205.092 105.055 205.774 114.803 203.857 124.161C196.094 162.049 162.563 190.549 122.376 190.549C86.2891 190.549 55.571 167.571 44.057 135.457C40.661 125.986 39.9321 115.784 42.0301 105.944C50.0411 68.3732 83.4181 40.1992 123.376 40.1992C159.737 40.1992 190.648 63.5282 201.954 96.0332Z" fill="url(#paint1_linear_16_386)"/>
<path d="M56.6912 156.885C61.2652 158.606 64.4042 162.049 67.7222 165.417C68.8092 166.598 70.1342 167.927 71.3252 169.566C72.6052 171.183 71.5942 173.732 69.5762 174.061C63.0502 175.213 56.2322 171.049 53.5222 165.174C52.1412 162.341 51.3542 154.742 56.6912 156.885Z" fill="#FFD6AF"/>
<path d="M161.69 181.864C168.594 178.623 184.133 171.544 191.133 172.682C193.555 173.076 194.921 175.641 193.948 177.893C192.135 182.088 184.708 190.846 155.548 203.369C155.548 203.369 128.769 215.369 128.137 203.369C128.136 202.639 128.248 201.566 128.895 200.59C128.895 200.59 157.867 183.659 161.69 181.864Z" fill="#EE6931"/>
<path d="M152.744 201.146C159.921 196.399 167.816 193.233 175.657 189.774C176.14 189.558 176.599 190.214 176.23 190.591C171.672 195.359 165.627 198.417 159.477 200.576C157.414 201.264 155.307 201.824 153.091 202.083C152.573 202.161 152.301 201.421 152.744 201.146Z" fill="#FF9B85"/>
<path d="M180.711 110.77L127.917 68.5508C125.721 66.7949 122.615 66.7949 120.419 68.5508L67.6259 110.769C65.1103 112.781 66.5222 116.86 69.7336 116.86H82.0093V162.689C82.0093 165.251 84.0704 167.327 86.6134 167.327H102.799C105.342 167.327 107.403 165.251 107.403 162.689V143.792C107.403 140.42 110.116 137.687 113.462 137.687H134.874C138.221 137.687 140.933 140.42 140.933 143.792V162.689C140.933 165.251 142.995 167.327 145.538 167.327H161.722C164.265 167.327 166.326 165.25 166.326 162.687V116.86H178.603C181.814 116.86 183.226 112.781 180.711 110.77Z" fill="#C7C97E"/>
<path d="M177.374 105.209L124.58 62.9898C122.385 61.2339 119.278 61.2339 117.083 62.9898L64.2894 105.208C61.7738 107.22 63.1857 111.299 66.3971 111.299H78.6729V157.127C78.6729 159.69 80.734 161.766 83.277 161.766H99.4624C102.005 161.766 104.067 159.69 104.067 157.127V138.231C104.067 134.859 106.779 132.126 110.126 132.126H131.538C134.884 132.126 137.597 134.859 137.597 138.231V157.127C137.597 159.69 139.658 161.766 142.201 161.766H158.385C160.928 161.766 162.99 159.689 162.99 157.126V111.299H175.266C178.478 111.299 179.89 107.22 177.374 105.209Z" fill="#FDFED2"/>
<defs>
<linearGradient id="paint0_linear_16_386" x1="123.374" y1="34.864" x2="123.374" y2="214.351" gradientUnits="userSpaceOnUse">
<stop stop-color="#F9A000"/>
<stop offset="1" stop-color="#EE4200"/>
</linearGradient>
<linearGradient id="paint1_linear_16_386" x1="122.889" y1="41.5989" x2="122.889" y2="191.206" gradientUnits="userSpaceOnUse">
<stop stop-color="#FBBC00"/>
<stop offset="1" stop-color="#EF5F00"/>
</linearGradient>
</defs>
</svg>
