<svg width="247" height="264" viewBox="0 0 247 264" fill="none" xmlns="http://www.w3.org/2000/svg">
<path opacity="0.2" d="M123.374 263.748C191.512 263.748 246.748 208.512 246.748 140.374C246.748 72.2364 191.512 17 123.374 17C55.2364 17 0 72.2364 0 140.374C0 208.512 55.2364 263.748 123.374 263.748Z" fill="black"/>
<path d="M123.374 246.748C191.512 246.748 246.748 191.512 246.748 123.374C246.748 55.2364 191.512 0 123.374 0C55.2364 0 0 55.2364 0 123.374C0 191.512 55.2364 246.748 123.374 246.748Z" fill="#FFECAD"/>
<path d="M123.374 232.348C183.559 232.348 232.348 183.559 232.348 123.374C232.348 63.1893 183.559 14.3999 123.374 14.3999C63.1892 14.3999 14.3999 63.1893 14.3999 123.374C14.3999 183.559 63.1892 232.348 123.374 232.348Z" fill="#FEFDD1"/>
<path d="M123.374 217.19C175.187 217.19 217.19 175.187 217.19 123.374C217.19 71.561 175.187 29.5581 123.374 29.5581C71.561 29.5581 29.5581 71.561 29.5581 123.374C29.5581 175.187 71.561 217.19 123.374 217.19Z" fill="#E4E3A3"/>
<path d="M123.374 213.563C173.184 213.563 213.563 173.184 213.563 123.374C213.563 73.5641 173.184 33.1851 123.374 33.1851C73.564 33.1851 33.1851 73.5641 33.1851 123.374C33.1851 173.184 73.564 213.563 123.374 213.563Z" fill="url(#paint0_linear_16_567)"/>
<path d="M201.953 96.0322C205.091 105.054 205.773 114.802 203.856 124.16C196.093 162.048 162.562 190.548 122.375 190.548C86.2881 190.548 55.5701 167.57 44.0561 135.456C40.6601 125.985 39.9311 115.783 42.0291 105.943C50.0401 68.3722 83.4171 40.1982 123.375 40.1982C159.737 40.1982 190.647 63.5282 201.953 96.0322Z" fill="url(#paint1_linear_16_567)"/>
<path d="M56.69 156.884C61.264 158.605 64.403 162.048 67.721 165.416C68.808 166.597 70.133 167.926 71.324 169.565C72.604 171.182 71.593 173.731 69.575 174.06C63.049 175.212 56.231 171.048 53.521 165.173C52.141 162.341 51.354 154.741 56.69 156.884Z" fill="#FFD6AF"/>
<path d="M161.689 181.863C168.593 178.622 184.132 171.543 191.132 172.681C193.554 173.075 194.92 175.64 193.947 177.892C192.134 182.087 184.707 190.845 155.547 203.368C155.547 203.368 128.768 215.368 128.136 203.368C128.135 202.638 128.247 201.565 128.894 200.589C128.894 200.589 157.866 183.658 161.689 181.863Z" fill="#EE6931"/>
<path d="M152.744 201.145C159.921 196.398 167.816 193.232 175.657 189.773C176.14 189.557 176.599 190.213 176.23 190.59C171.672 195.358 165.627 198.416 159.477 200.575C157.414 201.263 155.307 201.823 153.091 202.082C152.573 202.16 152.3 201.42 152.744 201.145Z" fill="#FF9B85"/>
<path d="M140.594 81.8371C122.453 77.6902 106.758 77.4731 95.5993 78.1641C96.3023 86.5291 96.5193 95.5511 96.7593 105.144C97.1103 119.14 97.0043 134.148 95.1743 138.195C90.5453 134.28 83.5823 132.265 76.1603 133.278C63.9263 134.948 55.0863 144.203 56.4173 153.949C57.7483 163.695 68.7443 170.242 80.9793 168.571C80.9793 168.571 117.528 168.744 108.379 110.138L155.078 119.252C155.078 119.252 157.48 157.926 155.205 165.062C151.396 162.399 146.475 160.743 141.035 160.59C128.242 160.229 116.739 168.258 115.557 178.911C114.326 190.007 124.715 199.29 138.509 199.221C142.432 199.201 146.132 198.42 149.418 197.065V197.067C153.849 195.687 156.599 193.688 158.111 192.399C166.575 185.181 165.498 175.235 171.808 147.056C173 141.732 172.672 143.723 174.651 135.194C178.226 119.779 180.758 106.976 182.439 97.9241C172.721 92.4971 158.586 85.9501 140.594 81.8371Z" fill="url(#paint2_linear_16_567)"/>
<path d="M179.987 80.1821C179.993 80.1521 179.999 80.1202 180.004 80.0902C170.286 74.6632 156.151 68.1161 138.159 64.0031C120.018 59.8561 104.323 59.6391 93.1642 60.3301C93.8672 68.6951 94.0842 77.7171 94.3242 87.3101C94.6752 101.306 94.5692 116.314 92.7392 120.361C88.1102 116.446 81.1472 114.431 73.7252 115.444C61.4912 117.114 52.6512 126.369 53.9822 136.115C53.9852 136.133 53.9892 136.151 53.9912 136.17C53.9932 136.188 53.9942 136.207 53.9972 136.225C54.0002 136.243 54.0042 136.261 54.0062 136.28C54.0082 136.298 54.0092 136.317 54.0122 136.335C54.0152 136.353 54.0192 136.371 54.0212 136.39C54.0232 136.408 54.0242 136.427 54.0272 136.445C54.0302 136.463 54.0342 136.481 54.0362 136.5C54.0382 136.518 54.0392 136.537 54.0422 136.555C54.0452 136.573 54.0492 136.591 54.0512 136.61C54.0532 136.628 54.0542 136.647 54.0572 136.665C54.0602 136.683 54.0642 136.701 54.0662 136.72C54.0682 136.738 54.0692 136.757 54.0722 136.775C54.0752 136.793 54.0792 136.811 54.0812 136.83C54.0832 136.848 54.0842 136.867 54.0872 136.885C54.0902 136.903 54.0942 136.921 54.0962 136.94C54.0982 136.958 54.0992 136.977 54.1022 136.995C54.1052 137.013 54.1092 137.031 54.1112 137.05C54.1132 137.068 54.1142 137.087 54.1172 137.105C54.1202 137.123 54.1242 137.141 54.1262 137.16C54.1282 137.178 54.1292 137.197 54.1322 137.215C54.1352 137.233 54.1392 137.251 54.1412 137.27C54.1432 137.288 54.1442 137.307 54.1472 137.325C54.1502 137.343 54.1542 137.361 54.1562 137.38C54.1582 137.398 54.1592 137.417 54.1622 137.435C54.1652 137.453 54.1692 137.471 54.1712 137.49C54.1732 137.508 54.1742 137.527 54.1772 137.545C54.1802 137.563 54.1842 137.581 54.1862 137.6C54.1882 137.618 54.1892 137.637 54.1922 137.655C54.1952 137.673 54.1992 137.691 54.2012 137.71C54.2032 137.728 54.2042 137.747 54.2072 137.765C54.2102 137.783 54.2142 137.801 54.2162 137.82C54.2182 137.838 54.2192 137.857 54.2222 137.875C54.2252 137.893 54.2292 137.911 54.2312 137.93C54.2332 137.948 54.2342 137.967 54.2372 137.985C54.2402 138.003 54.2442 138.021 54.2462 138.04C54.2482 138.058 54.2492 138.077 54.2522 138.095C54.2552 138.113 54.2592 138.131 54.2612 138.15C54.2632 138.168 54.2642 138.187 54.2672 138.205C54.2702 138.223 54.2742 138.241 54.2762 138.26C54.2782 138.278 54.2792 138.297 54.2822 138.315C54.2852 138.333 54.2892 138.351 54.2912 138.37C54.2932 138.388 54.2942 138.407 54.2972 138.425C54.3002 138.443 54.3042 138.461 54.3062 138.48C54.3082 138.498 54.3092 138.517 54.3122 138.535C54.3152 138.553 54.3192 138.571 54.3212 138.59C54.3232 138.608 54.3242 138.627 54.3272 138.645C54.3302 138.663 54.3342 138.681 54.3362 138.7C54.3382 138.718 54.3392 138.737 54.3422 138.755C54.3452 138.773 54.3492 138.791 54.3512 138.81C54.3532 138.828 54.3542 138.847 54.3572 138.865C54.3602 138.883 54.3642 138.901 54.3662 138.92C54.3682 138.938 54.3692 138.957 54.3722 138.975C54.3752 138.993 54.3792 139.011 54.3812 139.03C54.3832 139.048 54.3842 139.067 54.3872 139.085C54.3902 139.103 54.3942 139.121 54.3962 139.14C54.3982 139.158 54.3992 139.177 54.4022 139.195C54.4052 139.213 54.4092 139.231 54.4112 139.25C54.4132 139.268 54.4142 139.287 54.4172 139.305C54.4202 139.323 54.4242 139.341 54.4262 139.36C54.4282 139.378 54.4292 139.397 54.4322 139.415C54.4352 139.433 54.4392 139.451 54.4412 139.47C54.4432 139.488 54.4442 139.507 54.4472 139.525C54.4502 139.543 54.4542 139.561 54.4562 139.58C54.4582 139.598 54.4592 139.617 54.4622 139.635C54.4652 139.653 54.4692 139.671 54.4712 139.69C54.4732 139.708 54.4742 139.727 54.4772 139.745C54.4802 139.763 54.4842 139.781 54.4862 139.8C54.4882 139.818 54.4892 139.837 54.4922 139.855C54.4952 139.873 54.4992 139.891 54.5012 139.91C54.5032 139.928 54.5042 139.947 54.5072 139.965C54.5102 139.983 54.5142 140.001 54.5162 140.02C54.5182 140.038 54.5192 140.057 54.5222 140.075C54.5252 140.093 54.5292 140.111 54.5312 140.13C54.5332 140.148 54.5342 140.167 54.5372 140.185C54.5402 140.203 54.5442 140.221 54.5462 140.24C54.5482 140.258 54.5492 140.277 54.5522 140.295C54.5552 140.313 54.5592 140.331 54.5612 140.35C54.5632 140.368 54.5642 140.387 54.5672 140.405C54.5702 140.423 54.5742 140.441 54.5762 140.46C54.5782 140.478 54.5792 140.497 54.5822 140.515C54.5852 140.533 54.5892 140.551 54.5912 140.57C54.5932 140.588 54.5942 140.607 54.5972 140.625C54.6002 140.643 54.6042 140.661 54.6062 140.68C54.6082 140.698 54.6092 140.717 54.6122 140.735C54.6152 140.753 54.6192 140.771 54.6212 140.79C54.6232 140.808 54.6242 140.827 54.6272 140.845C54.6302 140.863 54.6342 140.881 54.6362 140.9C54.6382 140.918 54.6392 140.937 54.6422 140.955C54.6452 140.973 54.6492 140.991 54.6512 141.01C54.6532 141.028 54.6542 141.047 54.6572 141.065C54.6602 141.083 54.6642 141.101 54.6662 141.12C54.6682 141.138 54.6692 141.157 54.6722 141.175C54.6752 141.193 54.6792 141.211 54.6812 141.23C54.6832 141.248 54.6842 141.267 54.6872 141.285C54.6902 141.303 54.6942 141.321 54.6962 141.34C54.6982 141.358 54.6992 141.377 54.7022 141.395C54.7052 141.413 54.7092 141.431 54.7112 141.45C54.7132 141.468 54.7142 141.487 54.7172 141.505C54.7202 141.523 54.7242 141.541 54.7262 141.56C54.7282 141.578 54.7292 141.597 54.7322 141.615C54.7352 141.633 54.7392 141.651 54.7412 141.67C54.7432 141.688 54.7442 141.707 54.7472 141.725C54.7502 141.743 54.7542 141.761 54.7562 141.78C54.7582 141.798 54.7592 141.817 54.7622 141.835C54.7652 141.853 54.7692 141.871 54.7712 141.89C54.7732 141.908 54.7742 141.927 54.7772 141.945C54.7802 141.963 54.7842 141.981 54.7862 142C54.7882 142.018 54.7892 142.037 54.7922 142.055C54.7952 142.073 54.7992 142.091 54.8012 142.11C54.8032 142.128 54.8042 142.147 54.8072 142.165C54.8102 142.183 54.8142 142.201 54.8162 142.22C54.8182 142.238 54.8192 142.257 54.8222 142.275C54.8252 142.293 54.8292 142.311 54.8312 142.33C54.8332 142.348 54.8342 142.367 54.8372 142.385C54.8402 142.403 54.8442 142.421 54.8462 142.44C54.8482 142.458 54.8492 142.477 54.8522 142.495C54.8552 142.513 54.8592 142.531 54.8612 142.55C54.8632 142.568 54.8642 142.587 54.8672 142.605C54.8702 142.623 54.8742 142.641 54.8762 142.66C54.8782 142.678 54.8792 142.697 54.8822 142.715C54.8852 142.733 54.8892 142.751 54.8912 142.77C54.8932 142.788 54.8942 142.807 54.8972 142.825C54.9002 142.843 54.9042 142.861 54.9062 142.88C54.9082 142.898 54.9092 142.917 54.9122 142.935C54.9152 142.953 54.9192 142.971 54.9212 142.99C54.9232 143.008 54.9242 143.027 54.9272 143.045C54.9302 143.063 54.9342 143.081 54.9362 143.1C54.9382 143.118 54.9392 143.137 54.9422 143.155C54.9452 143.173 54.9492 143.191 54.9512 143.21C54.9532 143.228 54.9542 143.247 54.9572 143.265C54.9602 143.283 54.9642 143.301 54.9662 143.32C54.9682 143.338 54.9692 143.357 54.9722 143.375C54.9752 143.393 54.9792 143.411 54.9812 143.43C54.9832 143.448 54.9842 143.467 54.9872 143.485C54.9902 143.503 54.9942 143.521 54.9962 143.54C54.9982 143.558 54.9992 143.577 55.0022 143.595C55.0052 143.613 55.0092 143.631 55.0112 143.65C55.0132 143.668 55.0142 143.687 55.0172 143.705C55.0202 143.723 55.0242 143.741 55.0262 143.76C55.0282 143.778 55.0292 143.797 55.0322 143.815C55.0352 143.833 55.0392 143.851 55.0412 143.87C55.0432 143.888 55.0442 143.907 55.0472 143.925C55.0502 143.943 55.0542 143.961 55.0562 143.98C55.0582 143.998 55.0592 144.017 55.0622 144.035C55.0652 144.053 55.0692 144.071 55.0712 144.09C55.0732 144.108 55.0742 144.127 55.0772 144.145C55.0802 144.163 55.0842 144.181 55.0862 144.2C55.0882 144.218 55.0892 144.237 55.0922 144.255C55.0952 144.273 55.0992 144.291 55.1012 144.31C55.1032 144.328 55.1042 144.347 55.1072 144.365C55.1102 144.383 55.1142 144.401 55.1162 144.42C55.1182 144.438 55.1192 144.457 55.1222 144.475C55.1252 144.493 55.1292 144.511 55.1312 144.53C55.1332 144.548 55.1342 144.567 55.1372 144.585C55.1402 144.603 55.1442 144.621 55.1462 144.64C55.1482 144.658 55.1492 144.677 55.1522 144.695C55.1552 144.713 55.1592 144.731 55.1612 144.75C55.1632 144.768 55.1642 144.787 55.1672 144.805C55.1702 144.823 55.1742 144.841 55.1762 144.86C55.1782 144.878 55.1792 144.897 55.1822 144.915C55.1852 144.933 55.1892 144.951 55.1912 144.97C55.1932 144.988 55.1942 145.007 55.1972 145.025C56.5282 154.771 67.5242 161.318 79.7592 159.647C79.7592 159.647 115.197 159.814 107.546 103.862C107.541 103.825 107.536 103.789 107.531 103.752C107.526 103.715 107.521 103.679 107.516 103.642C107.511 103.605 107.506 103.569 107.501 103.532C107.496 103.495 107.491 103.459 107.486 103.422C107.481 103.385 107.476 103.349 107.471 103.312C107.466 103.275 107.461 103.239 107.456 103.202C107.451 103.165 107.446 103.129 107.441 103.092C107.436 103.055 107.431 103.019 107.426 102.982C107.421 102.945 107.416 102.909 107.411 102.872C107.406 102.835 107.401 102.799 107.396 102.762C107.391 102.725 107.386 102.689 107.381 102.652C107.376 102.615 107.371 102.579 107.366 102.542C107.361 102.505 107.356 102.469 107.351 102.432C107.346 102.395 107.341 102.359 107.336 102.322C107.331 102.285 107.326 102.249 107.321 102.212C107.316 102.175 107.311 102.139 107.306 102.102C107.301 102.065 107.296 102.029 107.291 101.992C107.286 101.955 107.281 101.919 107.276 101.882C107.271 101.845 107.266 101.809 107.261 101.772C107.256 101.735 107.251 101.699 107.246 101.662C107.241 101.625 107.236 101.589 107.231 101.552C107.226 101.515 107.221 101.479 107.216 101.442C107.211 101.405 107.206 101.369 107.201 101.332C107.196 101.295 107.191 101.259 107.186 101.222L153.109 110.183C153.67 122.034 154.351 142.257 152.768 147.222C152.768 147.222 152.768 147.222 152.768 147.223C148.959 144.56 144.038 142.904 138.598 142.75C125.805 142.389 114.302 150.418 113.12 161.071C112.965 162.471 112.996 163.842 113.194 165.17C113.199 165.207 113.204 165.244 113.209 165.28C113.214 165.317 113.219 165.353 113.224 165.39C113.229 165.427 113.234 165.464 113.239 165.5C113.244 165.537 113.249 165.573 113.254 165.61C113.259 165.647 113.264 165.683 113.269 165.72C113.274 165.757 113.279 165.794 113.284 165.83C113.289 165.867 113.294 165.903 113.299 165.94C113.304 165.977 113.309 166.014 113.314 166.05C113.319 166.087 113.324 166.123 113.329 166.16C113.334 166.197 113.339 166.234 113.344 166.27C113.349 166.307 113.354 166.343 113.359 166.38C113.364 166.417 113.369 166.454 113.374 166.49C113.379 166.527 113.384 166.563 113.389 166.6C113.394 166.637 113.399 166.673 113.404 166.71C113.409 166.747 113.414 166.784 113.419 166.82C113.424 166.857 113.429 166.893 113.434 166.93C113.439 166.967 113.444 167.003 113.449 167.04C113.454 167.077 113.459 167.113 113.464 167.15C113.469 167.187 113.474 167.224 113.479 167.26C113.484 167.297 113.489 167.333 113.494 167.37C113.499 167.407 113.504 167.443 113.509 167.48C113.514 167.517 113.519 167.553 113.524 167.59C113.529 167.627 113.534 167.663 113.539 167.7C113.544 167.737 113.549 167.774 113.554 167.81C113.559 167.847 113.564 167.883 113.569 167.92C113.574 167.957 113.579 167.994 113.584 168.03C113.589 168.067 113.594 168.103 113.599 168.14C113.604 168.177 113.609 168.214 113.614 168.25C113.619 168.287 113.624 168.323 113.629 168.36C113.634 168.397 113.639 168.434 113.644 168.47C113.649 168.507 113.654 168.543 113.659 168.58C113.664 168.617 113.669 168.653 113.674 168.69C113.679 168.727 113.684 168.764 113.689 168.8C113.694 168.837 113.699 168.873 113.704 168.91C113.709 168.947 113.714 168.984 113.719 169.02C113.724 169.057 113.729 169.093 113.734 169.13C113.739 169.167 113.744 169.204 113.749 169.24C113.754 169.277 113.759 169.313 113.764 169.35C113.769 169.387 113.774 169.424 113.779 169.46C113.784 169.497 113.789 169.533 113.794 169.57C113.799 169.607 113.804 169.643 113.809 169.68C113.814 169.717 113.819 169.754 113.824 169.79C113.829 169.827 113.834 169.863 113.839 169.9C113.844 169.937 113.849 169.974 113.854 170.01C113.859 170.047 113.864 170.083 113.869 170.12C113.874 170.157 113.879 170.194 113.884 170.23C113.889 170.267 113.894 170.303 113.899 170.34C113.904 170.377 113.909 170.414 113.914 170.45C113.919 170.487 113.924 170.523 113.929 170.56C113.934 170.597 113.939 170.633 113.944 170.67C113.949 170.707 113.954 170.743 113.959 170.78C113.964 170.817 113.969 170.853 113.974 170.89C113.979 170.927 113.984 170.964 113.989 171C113.994 171.037 113.999 171.073 114.004 171.11C114.009 171.147 114.014 171.184 114.019 171.22C114.024 171.257 114.029 171.293 114.034 171.33C114.039 171.367 114.044 171.404 114.049 171.44C114.054 171.477 114.059 171.513 114.064 171.55C114.069 171.587 114.074 171.623 114.079 171.66C114.084 171.697 114.089 171.734 114.094 171.77C114.099 171.807 114.104 171.843 114.109 171.88C114.114 171.917 114.119 171.953 114.124 171.99C114.129 172.027 114.134 172.063 114.139 172.1C114.144 172.137 114.149 172.174 114.154 172.21C114.159 172.247 114.164 172.283 114.169 172.32C114.174 172.357 114.179 172.393 114.184 172.43C114.189 172.467 114.194 172.503 114.199 172.54C114.204 172.577 114.209 172.613 114.214 172.65C114.219 172.687 114.224 172.724 114.229 172.76C114.234 172.797 114.239 172.833 114.244 172.87C114.249 172.907 114.254 172.944 114.259 172.98C114.264 173.017 114.269 173.053 114.274 173.09C114.279 173.127 114.284 173.164 114.289 173.2C114.294 173.237 114.299 173.273 114.304 173.31C114.309 173.347 114.314 173.384 114.319 173.42C114.324 173.457 114.329 173.493 114.334 173.53C114.339 173.567 114.344 173.603 114.349 173.64C114.354 173.677 114.359 173.714 114.364 173.75C114.369 173.787 114.374 173.823 114.379 173.86C114.384 173.897 114.389 173.934 114.394 173.97C115.708 183.214 125.186 190.351 137.287 190.291C141.21 190.271 144.91 189.49 148.196 188.135V188.137C152.627 186.757 155.377 184.758 156.889 183.469C165.353 176.251 164.276 166.305 170.586 138.126C171.778 132.802 171.45 134.794 173.429 126.264C177.004 110.849 179.536 98.0461 181.217 88.9941C181.207 88.9881 181.195 88.9821 181.185 88.9761C181.191 88.9461 181.197 88.9142 181.202 88.8842C181.192 88.8782 181.18 88.8722 181.17 88.8662C181.176 88.8362 181.182 88.8041 181.187 88.7741C181.177 88.7681 181.165 88.7621 181.155 88.7561C181.161 88.7261 181.167 88.6941 181.172 88.6641C181.162 88.6581 181.15 88.6521 181.14 88.6461C181.146 88.6161 181.152 88.5841 181.157 88.5541C181.147 88.5481 181.135 88.5421 181.125 88.5361C181.131 88.5061 181.137 88.4742 181.142 88.4442C181.132 88.4382 181.12 88.4321 181.11 88.4261C181.116 88.3961 181.122 88.3641 181.127 88.3341C181.117 88.3281 181.105 88.3221 181.095 88.3161C181.101 88.2861 181.107 88.2541 181.112 88.2241C181.102 88.2181 181.09 88.2121 181.08 88.2061C181.086 88.1761 181.092 88.1441 181.097 88.1141C181.087 88.1081 181.075 88.1021 181.065 88.0961C181.071 88.0661 181.077 88.0342 181.082 88.0042C181.072 87.9982 181.06 87.9921 181.05 87.9861C181.056 87.9561 181.062 87.9241 181.067 87.8941C181.057 87.8881 181.045 87.8822 181.035 87.8762C181.041 87.8462 181.047 87.8141 181.052 87.7841C181.042 87.7781 181.03 87.7721 181.02 87.7661C181.026 87.7361 181.032 87.7041 181.037 87.6741C181.027 87.6681 181.015 87.6621 181.005 87.6561C181.011 87.6261 181.017 87.5941 181.022 87.5641C181.012 87.5581 181 87.5521 180.99 87.5461C180.996 87.5161 181.002 87.4841 181.007 87.4541C180.997 87.4481 180.985 87.4422 180.975 87.4362C180.981 87.4062 180.987 87.3741 180.992 87.3441C180.982 87.3381 180.97 87.3321 180.96 87.3261C180.966 87.2961 180.972 87.2641 180.977 87.2341C180.967 87.2281 180.955 87.2221 180.945 87.2161C180.951 87.1861 180.957 87.1541 180.962 87.1241C180.952 87.1181 180.94 87.1121 180.93 87.1061C180.936 87.0761 180.942 87.0442 180.947 87.0142C180.937 87.0082 180.925 87.0022 180.915 86.9962C180.921 86.9662 180.927 86.9341 180.932 86.9041C180.922 86.8981 180.91 86.8921 180.9 86.8861C180.906 86.8561 180.912 86.8241 180.917 86.7941C180.907 86.7881 180.895 86.7821 180.885 86.7761C180.891 86.7461 180.897 86.7141 180.902 86.6841C180.892 86.6781 180.88 86.6721 180.87 86.6661C180.876 86.6361 180.882 86.6042 180.887 86.5742C180.877 86.5682 180.865 86.5622 180.855 86.5562C180.861 86.5262 180.867 86.4941 180.872 86.4641C180.862 86.4581 180.85 86.4521 180.84 86.4461C180.846 86.4161 180.852 86.3841 180.857 86.3541C180.847 86.3481 180.835 86.3421 180.825 86.3361C180.831 86.3061 180.837 86.2741 180.842 86.2441C180.832 86.2381 180.82 86.2321 180.81 86.2261C180.816 86.1961 180.822 86.1642 180.827 86.1342C180.817 86.1282 180.805 86.1222 180.795 86.1162C180.801 86.0862 180.807 86.0541 180.812 86.0241C180.802 86.0181 180.79 86.0121 180.78 86.0061C180.786 85.9761 180.792 85.9441 180.797 85.9141C180.787 85.9081 180.775 85.9021 180.765 85.8961C180.771 85.8661 180.777 85.8341 180.782 85.8041C180.772 85.7981 180.76 85.7921 180.75 85.7861C180.756 85.7561 180.762 85.7242 180.767 85.6942C180.757 85.6882 180.745 85.6821 180.735 85.6761C180.741 85.6461 180.747 85.6141 180.752 85.5841C180.742 85.5781 180.73 85.5721 180.72 85.5661C180.726 85.5361 180.732 85.5041 180.737 85.4741C180.727 85.4681 180.715 85.4621 180.705 85.4561C180.711 85.4261 180.717 85.3941 180.722 85.3641C180.712 85.3581 180.7 85.3521 180.69 85.3461C180.696 85.3161 180.702 85.2842 180.707 85.2542C180.697 85.2482 180.685 85.2421 180.675 85.2361C180.681 85.2061 180.687 85.1741 180.692 85.1441C180.682 85.1381 180.67 85.1322 180.66 85.1262C180.666 85.0962 180.672 85.0641 180.677 85.0341C180.667 85.0281 180.655 85.0221 180.645 85.0161C180.651 84.9861 180.657 84.9541 180.662 84.9241C180.652 84.9181 180.64 84.9121 180.63 84.9061C180.636 84.8761 180.642 84.8441 180.647 84.8141C180.637 84.8081 180.625 84.8021 180.615 84.7961C180.621 84.7661 180.627 84.7341 180.632 84.7041C180.622 84.6981 180.61 84.6922 180.6 84.6862C180.606 84.6562 180.612 84.6241 180.617 84.5941C180.607 84.5881 180.595 84.5821 180.585 84.5761C180.591 84.5461 180.597 84.5141 180.602 84.4841C180.592 84.4781 180.58 84.4721 180.57 84.4661C180.576 84.4361 180.582 84.4041 180.587 84.3741C180.577 84.3681 180.565 84.3621 180.555 84.3561C180.561 84.3261 180.567 84.2942 180.572 84.2642C180.562 84.2582 180.55 84.2522 180.54 84.2462C180.546 84.2162 180.552 84.1841 180.557 84.1541C180.547 84.1481 180.535 84.1421 180.525 84.1361C180.531 84.1061 180.537 84.0741 180.542 84.0441C180.532 84.0381 180.52 84.0321 180.51 84.0261C180.516 83.9961 180.522 83.9641 180.527 83.9341C180.517 83.9281 180.505 83.9221 180.495 83.9161C180.501 83.8861 180.507 83.8542 180.512 83.8242C180.502 83.8182 180.49 83.8122 180.48 83.8062C180.486 83.7762 180.492 83.7441 180.497 83.7141C180.487 83.7081 180.475 83.7021 180.465 83.6961C180.471 83.6661 180.477 83.6341 180.482 83.6041C180.472 83.5981 180.46 83.5921 180.45 83.5861C180.456 83.5561 180.462 83.5241 180.467 83.4941C180.457 83.4881 180.445 83.4821 180.435 83.4761C180.441 83.4461 180.447 83.4142 180.452 83.3842C180.442 83.3782 180.43 83.3722 180.42 83.3662C180.426 83.3362 180.432 83.3041 180.437 83.2741C180.427 83.2681 180.415 83.2621 180.405 83.2561C180.411 83.2261 180.417 83.1941 180.422 83.1641C180.412 83.1581 180.4 83.1521 180.39 83.1461C180.396 83.1161 180.402 83.0841 180.407 83.0541C180.397 83.0481 180.385 83.0421 180.375 83.0361C180.381 83.0061 180.387 82.9742 180.392 82.9442C180.382 82.9382 180.37 82.9321 180.36 82.9261C180.366 82.8961 180.372 82.8641 180.377 82.8341C180.367 82.8281 180.355 82.8221 180.345 82.8161C180.351 82.7861 180.357 82.7541 180.362 82.7241C180.352 82.7181 180.34 82.7121 180.33 82.7061C180.336 82.6761 180.342 82.6441 180.347 82.6141C180.337 82.6081 180.325 82.6021 180.315 82.5961C180.321 82.5661 180.327 82.5342 180.332 82.5042C180.322 82.4982 180.31 82.4921 180.3 82.4861C180.306 82.4561 180.312 82.4241 180.317 82.3941C180.307 82.3881 180.295 82.3822 180.285 82.3762C180.291 82.3462 180.297 82.3141 180.302 82.2841C180.292 82.2781 180.28 82.2721 180.27 82.2661C180.276 82.2361 180.282 82.2041 180.287 82.1741C180.277 82.1681 180.265 82.1621 180.255 82.1561C180.261 82.1261 180.267 82.0941 180.272 82.0641C180.262 82.0581 180.25 82.0521 180.24 82.0461C180.246 82.0161 180.252 81.9841 180.257 81.9541C180.247 81.9481 180.235 81.9422 180.225 81.9362C180.231 81.9062 180.237 81.8741 180.242 81.8441C180.232 81.8381 180.22 81.8321 180.21 81.8261C180.216 81.7961 180.222 81.7641 180.227 81.7341C180.217 81.7281 180.205 81.7221 180.195 81.7161C180.201 81.6861 180.207 81.6541 180.212 81.6241C180.202 81.6181 180.19 81.6121 180.18 81.6061C180.186 81.5761 180.192 81.5442 180.197 81.5142C180.187 81.5082 180.175 81.5022 180.165 81.4962C180.171 81.4662 180.177 81.4341 180.182 81.4041C180.172 81.3981 180.16 81.3921 180.15 81.3861C180.156 81.3561 180.162 81.3241 180.167 81.2941C180.157 81.2881 180.145 81.2821 180.135 81.2761C180.141 81.2461 180.147 81.2141 180.152 81.1841C180.142 81.1781 180.13 81.1721 180.12 81.1661C180.126 81.1361 180.132 81.1042 180.137 81.0742C180.127 81.0682 180.115 81.0622 180.105 81.0562C180.111 81.0262 180.117 80.9941 180.122 80.9641C180.112 80.9581 180.1 80.9521 180.09 80.9461C180.096 80.9161 180.102 80.8841 180.107 80.8541C180.097 80.8481 180.085 80.8421 180.075 80.8361C180.081 80.8061 180.087 80.7741 180.092 80.7441C180.082 80.7381 180.07 80.7321 180.06 80.7261C180.066 80.6961 180.072 80.6642 180.077 80.6342C180.067 80.6282 180.055 80.6222 180.045 80.6162C180.051 80.5862 180.057 80.5541 180.062 80.5241C180.052 80.5181 180.04 80.5121 180.03 80.5061C180.036 80.4761 180.042 80.4441 180.047 80.4141C180.037 80.4081 180.025 80.4021 180.015 80.3961C180.021 80.3661 180.027 80.3341 180.032 80.3041C180.022 80.2981 180.01 80.2921 180 80.2861C180.006 80.2561 180.012 80.2242 180.017 80.1942C180.009 80.1942 179.998 80.1881 179.987 80.1821Z" fill="#C4C685"/>
<path d="M138.159 64.0022C120.018 59.8552 104.323 59.6382 93.1642 60.3292C93.8672 68.6942 94.0842 77.7162 94.3242 87.3092C94.6752 101.305 94.5692 116.313 92.7392 120.36C88.1102 116.445 81.1472 114.43 73.7252 115.443C61.4912 117.113 52.6512 126.368 53.9822 136.114C55.3132 145.86 66.3092 152.407 78.5442 150.736C78.5442 150.736 115.093 150.909 105.944 92.3032L152.643 101.417C152.643 101.417 155.045 140.091 152.77 147.227V147.228C148.961 144.565 144.04 142.909 138.6 142.755C125.807 142.394 114.304 150.423 113.122 161.076C111.891 172.172 122.28 181.455 136.074 181.386C139.997 181.366 143.697 180.585 146.983 179.23V179.232C151.414 177.852 154.164 175.853 155.676 174.564C164.14 167.346 163.063 157.4 169.373 129.221C170.565 123.897 170.237 125.888 172.216 117.359C175.791 101.944 178.323 89.1412 180.004 80.0892C170.286 74.6632 156.151 68.1152 138.159 64.0022Z" fill="#FDFED2"/>
<defs>
<linearGradient id="paint0_linear_16_567" x1="123.374" y1="34.8632" x2="123.374" y2="214.35" gradientUnits="userSpaceOnUse">
<stop stop-color="#F9A000"/>
<stop offset="1" stop-color="#EE4200"/>
</linearGradient>
<linearGradient id="paint1_linear_16_567" x1="122.889" y1="41.598" x2="122.889" y2="191.205" gradientUnits="userSpaceOnUse">
<stop stop-color="#FBBC00"/>
<stop offset="1" stop-color="#EF5F00"/>
</linearGradient>
<linearGradient id="paint2_linear_16_567" x1="136.654" y1="82.7112" x2="103.035" y2="189.42" gradientUnits="userSpaceOnUse">
<stop stop-color="#F88F00"/>
<stop offset="0.5526" stop-color="#F46400"/>
<stop offset="1" stop-color="#F03F00"/>
</linearGradient>
</defs>
</svg>
