<svg width="247" height="264" viewBox="0 0 247 264" fill="none" xmlns="http://www.w3.org/2000/svg">
<path opacity="0.2" d="M123.374 263.748C191.512 263.748 246.748 208.512 246.748 140.374C246.748 72.2364 191.512 17 123.374 17C55.2364 17 0 72.2364 0 140.374C0 208.512 55.2364 263.748 123.374 263.748Z" fill="black"/>
<path d="M123.374 246.748C191.512 246.748 246.748 191.512 246.748 123.374C246.748 55.2364 191.512 0 123.374 0C55.2364 0 0 55.2364 0 123.374C0 191.512 55.2364 246.748 123.374 246.748Z" fill="#FFECAD"/>
<path d="M123.374 232.348C183.559 232.348 232.348 183.559 232.348 123.374C232.348 63.1893 183.559 14.3999 123.374 14.3999C63.1892 14.3999 14.3999 63.1893 14.3999 123.374C14.3999 183.559 63.1892 232.348 123.374 232.348Z" fill="#FEFDD1"/>
<path d="M123.374 217.19C175.187 217.19 217.19 175.187 217.19 123.374C217.19 71.561 175.187 29.5581 123.374 29.5581C71.561 29.5581 29.5581 71.561 29.5581 123.374C29.5581 175.187 71.561 217.19 123.374 217.19Z" fill="#E4E3A3"/>
<path d="M123.374 213.563C173.184 213.563 213.563 173.184 213.563 123.374C213.563 73.5641 173.184 33.1851 123.374 33.1851C73.564 33.1851 33.1851 73.5641 33.1851 123.374C33.1851 173.184 73.564 213.563 123.374 213.563Z" fill="url(#paint0_linear_16_602)"/>
<path d="M201.953 96.0322C205.091 105.054 205.773 114.802 203.856 124.16C196.093 162.048 162.562 190.548 122.375 190.548C86.2881 190.548 55.5701 167.57 44.0561 135.456C40.6601 125.985 39.9311 115.783 42.0291 105.943C50.0401 68.3722 83.4171 40.1982 123.375 40.1982C159.737 40.1982 190.647 63.5282 201.953 96.0322Z" fill="url(#paint1_linear_16_602)"/>
<path d="M56.69 156.884C61.264 158.605 64.403 162.048 67.721 165.416C68.808 166.597 70.133 167.926 71.324 169.565C72.604 171.182 71.593 173.731 69.575 174.06C63.049 175.212 56.231 171.048 53.521 165.173C52.141 162.341 51.354 154.741 56.69 156.884Z" fill="#FFD6AF"/>
<path d="M136.6 90.3394C121.687 86.9303 108.784 86.7518 99.6103 87.3199C100.188 94.1966 100.367 101.613 100.564 109.5C100.853 121.006 100.765 133.343 99.261 136.67C95.4556 133.452 89.7314 131.795 83.6299 132.628C73.5725 134.001 66.3053 141.609 67.3995 149.621C68.4937 157.633 77.5333 163.016 87.5915 161.642C87.5915 161.642 117.638 161.784 110.117 113.605L148.507 121.098C148.507 121.098 150.482 152.891 148.611 158.757C145.48 156.568 141.435 155.207 136.962 155.081C126.446 154.784 116.989 161.385 116.017 170.142C115.005 179.264 123.546 186.895 134.886 186.839C138.111 186.822 141.153 186.18 143.854 185.066V185.068C147.497 183.933 149.757 182.29 151 181.23C157.958 175.297 157.073 167.12 162.26 143.955C163.24 139.578 162.971 141.215 164.598 134.203C167.537 121.531 169.618 111.006 171 103.564C163.011 99.1028 151.391 93.7207 136.6 90.3394Z" fill="url(#paint2_linear_16_602)"/>
<path d="M168.984 88.9787C168.989 88.9541 168.994 88.9278 168.998 88.9031C161.009 84.4417 149.389 79.0595 134.598 75.6783C119.685 72.2691 106.782 72.0907 97.6084 72.6588C98.1863 79.5355 98.3647 86.9523 98.562 94.8385C98.8506 106.344 98.7634 118.682 97.259 122.009C93.4536 118.791 87.7294 117.134 81.6279 117.967C71.5706 119.34 64.3034 126.948 65.3976 134.96C65.4 134.975 65.4033 134.99 65.405 135.005C65.4066 135.02 65.4074 135.036 65.4099 135.051C65.4124 135.065 65.4157 135.08 65.4173 135.096C65.419 135.111 65.4198 135.126 65.4222 135.141C65.4247 135.156 65.428 135.171 65.4296 135.186C65.4313 135.201 65.4321 135.217 65.4346 135.232C65.437 135.246 65.4403 135.261 65.442 135.277C65.4436 135.292 65.4444 135.307 65.4469 135.322C65.4494 135.337 65.4527 135.352 65.4543 135.367C65.4559 135.382 65.4568 135.398 65.4592 135.412C65.4617 135.427 65.465 135.442 65.4666 135.458C65.4683 135.472 65.4691 135.488 65.4716 135.503C65.474 135.518 65.4773 135.532 65.479 135.548C65.4806 135.563 65.4814 135.578 65.4839 135.593C65.4864 135.608 65.4897 135.623 65.4913 135.638C65.4929 135.653 65.4938 135.669 65.4962 135.684C65.4987 135.698 65.502 135.713 65.5036 135.729C65.5053 135.744 65.5061 135.759 65.5086 135.774C65.511 135.789 65.5143 135.804 65.516 135.819C65.5176 135.834 65.5184 135.85 65.5209 135.865C65.5234 135.879 65.5266 135.894 65.5283 135.91C65.5299 135.925 65.5308 135.94 65.5332 135.955C65.5357 135.97 65.539 135.985 65.5406 136C65.5423 136.015 65.5431 136.031 65.5455 136.045C65.548 136.06 65.5513 136.075 65.5529 136.091C65.5546 136.105 65.5554 136.121 65.5579 136.136C65.5603 136.151 65.5636 136.165 65.5653 136.181C65.5669 136.196 65.5677 136.211 65.5702 136.226C65.5727 136.241 65.576 136.256 65.5776 136.271C65.5793 136.286 65.5801 136.302 65.5825 136.317C65.585 136.331 65.5883 136.346 65.5899 136.362C65.5916 136.377 65.5924 136.392 65.5949 136.407C65.5973 136.422 65.6006 136.437 65.6023 136.452C65.6039 136.467 65.6047 136.483 65.6072 136.498C65.6097 136.512 65.613 136.527 65.6146 136.543C65.6162 136.558 65.6171 136.573 65.6195 136.588C65.622 136.603 65.6253 136.618 65.6269 136.633C65.6286 136.648 65.6294 136.664 65.6319 136.678C65.6343 136.693 65.6376 136.708 65.6393 136.724C65.6409 136.738 65.6417 136.754 65.6442 136.769C65.6467 136.784 65.65 136.798 65.6516 136.814C65.6532 136.829 65.6541 136.844 65.6565 136.859C65.659 136.874 65.6623 136.889 65.6639 136.904C65.6656 136.919 65.6664 136.935 65.6689 136.95C65.6713 136.965 65.6746 136.979 65.6763 136.995C65.6779 137.01 65.6787 137.025 65.6812 137.04C65.6837 137.055 65.6869 137.07 65.6886 137.085C65.6902 137.1 65.6911 137.116 65.6935 137.131C65.696 137.145 65.6993 137.16 65.7009 137.176C65.7026 137.191 65.7034 137.206 65.7059 137.221C65.7083 137.236 65.7116 137.251 65.7132 137.266C65.7149 137.281 65.7157 137.297 65.7182 137.311C65.7207 137.326 65.7239 137.341 65.7256 137.357C65.7272 137.371 65.7281 137.387 65.7305 137.402C65.733 137.417 65.7363 137.431 65.7379 137.447C65.7396 137.462 65.7404 137.477 65.7429 137.492C65.7453 137.507 65.7486 137.522 65.7503 137.537C65.7519 137.552 65.7527 137.568 65.7552 137.583C65.7576 137.597 65.7609 137.612 65.7626 137.628C65.7642 137.643 65.765 137.658 65.7675 137.673C65.77 137.688 65.7733 137.703 65.7749 137.718C65.7766 137.733 65.7774 137.749 65.7798 137.764C65.7823 137.778 65.7856 137.793 65.7872 137.809C65.7889 137.824 65.7897 137.839 65.7922 137.854C65.7946 137.869 65.7979 137.884 65.7996 137.899C65.8012 137.914 65.802 137.93 65.8045 137.944C65.807 137.959 65.8103 137.974 65.8119 137.99C65.8136 138.004 65.8144 138.02 65.8168 138.035C65.8193 138.05 65.8226 138.064 65.8242 138.08C65.8259 138.095 65.8267 138.11 65.8292 138.125C65.8316 138.14 65.8349 138.155 65.8366 138.17C65.8382 138.185 65.839 138.201 65.8415 138.216C65.844 138.23 65.8473 138.245 65.8489 138.261C65.8505 138.276 65.8514 138.291 65.8538 138.306C65.8563 138.321 65.8596 138.336 65.8612 138.351C65.8629 138.366 65.8637 138.382 65.8662 138.397C65.8686 138.411 65.8719 138.426 65.8736 138.442C65.8752 138.457 65.876 138.472 65.8785 138.487C65.881 138.502 65.8842 138.517 65.8859 138.532C65.8875 138.547 65.8884 138.563 65.8908 138.577C65.8933 138.592 65.8966 138.607 65.8982 138.623C65.8999 138.637 65.9007 138.653 65.9032 138.668C65.9056 138.683 65.9089 138.697 65.9106 138.713C65.9122 138.728 65.913 138.743 65.9155 138.758C65.9179 138.773 65.9212 138.788 65.9229 138.803C65.9245 138.818 65.9253 138.834 65.9278 138.849C65.9303 138.864 65.9336 138.878 65.9352 138.894C65.9369 138.909 65.9377 138.924 65.9401 138.939C65.9426 138.954 65.9459 138.969 65.9475 138.984C65.9492 138.999 65.95 139.015 65.9525 139.03C65.9549 139.044 65.9582 139.059 65.9599 139.075C65.9615 139.09 65.9623 139.105 65.9648 139.12C65.9673 139.135 65.9706 139.15 65.9722 139.165C65.9739 139.18 65.9747 139.196 65.9771 139.21C65.9796 139.225 65.9829 139.24 65.9845 139.256C65.9862 139.27 65.987 139.286 65.9895 139.301C65.9919 139.316 65.9952 139.33 65.9969 139.346C65.9985 139.361 65.9993 139.376 66.0018 139.391C66.0043 139.406 66.0076 139.421 66.0092 139.436C66.0108 139.451 66.0117 139.467 66.0141 139.482C66.0166 139.496 66.0199 139.511 66.0215 139.527C66.0232 139.542 66.024 139.557 66.0265 139.572C66.0289 139.587 66.0322 139.602 66.0339 139.617C66.0355 139.632 66.0363 139.648 66.0388 139.663C66.0413 139.677 66.0446 139.692 66.0462 139.708C66.0478 139.723 66.0487 139.738 66.0511 139.753C66.0536 139.768 66.0569 139.783 66.0585 139.798C66.0602 139.813 66.061 139.829 66.0635 139.843C66.0659 139.858 66.0692 139.873 66.0709 139.889C66.0725 139.903 66.0733 139.919 66.0758 139.934C66.0783 139.949 66.0816 139.963 66.0832 139.979C66.0848 139.994 66.0857 140.009 66.0881 140.024C66.0906 140.039 66.0939 140.054 66.0955 140.069C66.0972 140.084 66.098 140.1 66.1005 140.115C66.1029 140.13 66.1062 140.144 66.1079 140.16C66.1095 140.175 66.1103 140.19 66.1128 140.205C66.1153 140.22 66.1185 140.235 66.1202 140.25C66.1218 140.265 66.1227 140.281 66.1251 140.296C66.1276 140.31 66.1309 140.325 66.1325 140.341C66.1342 140.356 66.135 140.371 66.1374 140.386C66.1399 140.401 66.1432 140.416 66.1448 140.431C66.1465 140.446 66.1473 140.462 66.1498 140.476C66.1522 140.491 66.1555 140.506 66.1572 140.522C66.1588 140.536 66.1596 140.552 66.1621 140.567C66.1646 140.582 66.1679 140.596 66.1695 140.612C66.1712 140.627 66.172 140.642 66.1744 140.657C66.1769 140.672 66.1802 140.687 66.1818 140.703C66.1835 140.717 66.1843 140.733 66.1868 140.748C66.1892 140.763 66.1925 140.777 66.1942 140.793C66.1958 140.808 66.1966 140.823 66.1991 140.838C66.2016 140.853 66.2049 140.868 66.2065 140.883C66.2081 140.898 66.209 140.914 66.2114 140.929C66.2139 140.943 66.2172 140.958 66.2188 140.974C66.2205 140.989 66.2213 141.004 66.2238 141.019C66.2262 141.034 66.2295 141.049 66.2312 141.064C66.2328 141.079 66.2336 141.095 66.2361 141.109C66.2386 141.124 66.2419 141.139 66.2435 141.155C66.2451 141.169 66.246 141.185 66.2484 141.2C66.2509 141.215 66.2542 141.229 66.2558 141.245C66.2575 141.26 66.2583 141.275 66.2608 141.29C66.2632 141.305 66.2665 141.32 66.2682 141.335C66.2698 141.35 66.2706 141.366 66.2731 141.381C66.2756 141.395 66.2788 141.41 66.2805 141.426C66.2821 141.441 66.283 141.456 66.2854 141.471C66.2879 141.486 66.2912 141.501 66.2928 141.516C66.2945 141.531 66.2953 141.547 66.2978 141.562C66.3002 141.576 66.3035 141.591 66.3051 141.607C66.3068 141.622 66.3076 141.637 66.3101 141.652C66.3126 141.667 66.3158 141.682 66.3175 141.697C66.3191 141.712 66.32 141.728 66.3224 141.742C66.3249 141.757 66.3282 141.772 66.3298 141.788C66.3315 141.802 66.3323 141.818 66.3348 141.833C66.3372 141.848 66.3405 141.862 66.3422 141.878C66.3438 141.893 66.3446 141.908 66.3471 141.923C66.3495 141.938 66.3528 141.953 66.3545 141.969C66.3561 141.983 66.3569 141.999 66.3594 142.014C66.3619 142.029 66.3652 142.043 66.3668 142.059C66.3685 142.074 66.3693 142.089 66.3717 142.104C66.3742 142.119 66.3775 142.134 66.3791 142.149C66.3808 142.164 66.3816 142.18 66.3841 142.195C66.3865 142.209 66.3898 142.224 66.3915 142.24C66.3931 142.255 66.3939 142.27 66.3964 142.285C67.4906 150.297 76.5302 155.679 86.5884 154.306C86.5884 154.306 115.721 154.443 109.432 108.446C109.427 108.415 109.423 108.386 109.419 108.355C109.415 108.325 109.411 108.295 109.407 108.265C109.403 108.234 109.399 108.205 109.395 108.174C109.39 108.144 109.386 108.114 109.382 108.084C109.378 108.053 109.374 108.024 109.37 107.993C109.366 107.963 109.362 107.933 109.358 107.903C109.353 107.873 109.349 107.843 109.345 107.813C109.341 107.782 109.337 107.753 109.333 107.722C109.329 107.692 109.325 107.662 109.321 107.632C109.316 107.601 109.312 107.572 109.308 107.541C109.304 107.511 109.3 107.481 109.296 107.451C109.292 107.421 109.288 107.391 109.284 107.36C109.279 107.33 109.275 107.3 109.271 107.27C109.267 107.24 109.263 107.21 109.259 107.18C109.255 107.149 109.251 107.12 109.247 107.089C109.242 107.059 109.238 107.029 109.234 106.999C109.23 106.968 109.226 106.939 109.222 106.908C109.218 106.878 109.214 106.848 109.21 106.818C109.206 106.788 109.201 106.758 109.197 106.728C109.193 106.697 109.189 106.667 109.185 106.637C109.181 106.607 109.177 106.577 109.173 106.547C109.169 106.516 109.164 106.487 109.16 106.456C109.156 106.426 109.152 106.396 109.148 106.366C109.144 106.335 109.14 106.306 109.136 106.275L146.888 113.642C147.349 123.384 147.909 140.009 146.608 144.091C146.608 144.091 146.608 144.091 146.608 144.092C143.476 141.903 139.431 140.541 134.959 140.415C124.442 140.118 114.986 146.718 114.014 155.476C113.886 156.627 113.912 157.754 114.075 158.846C114.079 158.876 114.083 158.907 114.087 158.936C114.091 158.967 114.095 158.996 114.099 159.027C114.103 159.057 114.108 159.088 114.112 159.117C114.116 159.148 114.12 159.177 114.124 159.208C114.128 159.238 114.132 159.268 114.136 159.298C114.14 159.328 114.145 159.359 114.149 159.388C114.153 159.419 114.157 159.448 114.161 159.479C114.165 159.509 114.169 159.54 114.173 159.569C114.177 159.6 114.182 159.629 114.186 159.66C114.19 159.69 114.194 159.721 114.198 159.75C114.202 159.781 114.206 159.81 114.21 159.841C114.214 159.871 114.219 159.901 114.223 159.931C114.227 159.961 114.231 159.991 114.235 160.021C114.239 160.052 114.243 160.081 114.247 160.112C114.251 160.142 114.256 160.173 114.26 160.202C114.264 160.233 114.268 160.262 114.272 160.293C114.276 160.323 114.28 160.353 114.284 160.383C114.288 160.414 114.293 160.443 114.297 160.474C114.301 160.504 114.305 160.534 114.309 160.564C114.313 160.594 114.317 160.624 114.321 160.654C114.325 160.685 114.33 160.714 114.334 160.745C114.338 160.775 114.342 160.805 114.346 160.835C114.35 160.866 114.354 160.895 114.358 160.926C114.362 160.956 114.367 160.987 114.371 161.016C114.375 161.047 114.379 161.076 114.383 161.107C114.387 161.137 114.391 161.167 114.395 161.197C114.399 161.227 114.404 161.257 114.408 161.287C114.412 161.318 114.416 161.348 114.42 161.378C114.424 161.408 114.428 161.438 114.432 161.468C114.436 161.499 114.441 161.529 114.445 161.559C114.449 161.589 114.453 161.619 114.457 161.649C114.461 161.68 114.465 161.709 114.469 161.74C114.473 161.77 114.478 161.8 114.482 161.83C114.486 161.86 114.49 161.89 114.494 161.92C114.498 161.951 114.502 161.981 114.506 162.011C114.51 162.041 114.515 162.071 114.519 162.101C114.523 162.132 114.527 162.162 114.531 162.192C114.535 162.222 114.539 162.252 114.543 162.282C114.547 162.313 114.551 162.343 114.556 162.373C114.56 162.403 114.564 162.433 114.568 162.463C114.572 162.493 114.576 162.523 114.58 162.553C114.584 162.584 114.589 162.614 114.593 162.644C114.597 162.674 114.601 162.704 114.605 162.734C114.609 162.765 114.613 162.795 114.617 162.825C114.621 162.855 114.626 162.885 114.63 162.915C114.634 162.946 114.638 162.976 114.642 163.006C114.646 163.036 114.65 163.066 114.654 163.096C114.658 163.126 114.662 163.157 114.667 163.186C114.671 163.217 114.675 163.246 114.679 163.277C114.683 163.307 114.687 163.337 114.691 163.367C114.695 163.398 114.699 163.427 114.704 163.458C114.708 163.488 114.712 163.518 114.716 163.548C114.72 163.579 114.724 163.609 114.728 163.639C114.732 163.669 114.736 163.699 114.741 163.729C114.745 163.759 114.749 163.79 114.753 163.819C114.757 163.85 114.761 163.879 114.765 163.91C114.769 163.94 114.773 163.971 114.778 164C114.782 164.031 114.786 164.06 114.79 164.091C114.794 164.121 114.798 164.151 114.802 164.181C114.806 164.212 114.81 164.242 114.815 164.272C114.819 164.302 114.823 164.332 114.827 164.362C114.831 164.392 114.835 164.422 114.839 164.452C114.843 164.483 114.847 164.512 114.852 164.543C114.856 164.573 114.86 164.604 114.864 164.633C114.868 164.664 114.872 164.693 114.876 164.724C114.88 164.754 114.884 164.784 114.889 164.814C114.893 164.845 114.897 164.874 114.901 164.905C114.905 164.935 114.909 164.965 114.913 164.995C114.917 165.025 114.921 165.056 114.926 165.085C114.93 165.116 114.934 165.145 114.938 165.176C114.942 165.206 114.946 165.237 114.95 165.266C114.954 165.297 114.958 165.326 114.963 165.357C114.967 165.387 114.971 165.418 114.975 165.447C114.979 165.478 114.983 165.507 114.987 165.538C114.991 165.568 114.995 165.598 115 165.628C115.004 165.658 115.008 165.688 115.012 165.718C115.016 165.749 115.02 165.778 115.024 165.809C115.028 165.839 115.032 165.87 115.037 165.899C115.041 165.93 115.045 165.959 115.049 165.99C115.053 166.02 115.057 166.051 115.061 166.08C116.141 173.68 123.933 179.547 133.881 179.497C137.106 179.481 140.148 178.839 142.849 177.725V177.727C146.492 176.592 148.753 174.949 149.996 173.889C156.954 167.955 156.068 159.779 161.256 136.613C162.236 132.237 161.966 133.874 163.593 126.862C166.532 114.19 168.613 103.664 169.995 96.2229C169.987 96.218 169.977 96.2131 169.969 96.2081C169.974 96.1835 169.979 96.1572 169.983 96.1325C169.975 96.1276 169.965 96.1226 169.957 96.1177C169.961 96.093 169.966 96.0667 169.971 96.042C169.962 96.0371 169.952 96.0322 169.944 96.0272C169.949 96.0026 169.954 95.9763 169.958 95.9516C169.95 95.9467 169.94 95.9418 169.932 95.9368C169.937 95.9122 169.942 95.8859 169.946 95.8612C169.938 95.8563 169.928 95.8513 169.92 95.8464C169.924 95.8217 169.929 95.7955 169.934 95.7708C169.925 95.7659 169.915 95.7609 169.907 95.756C169.912 95.7313 169.917 95.705 169.921 95.6803C169.913 95.6754 169.903 95.6705 169.895 95.6655C169.9 95.6409 169.905 95.6146 169.909 95.5899C169.901 95.585 169.891 95.58 169.883 95.5751C169.888 95.5504 169.892 95.5242 169.897 95.4995C169.888 95.4946 169.878 95.4896 169.87 95.4847C169.875 95.46 169.88 95.4337 169.884 95.4091C169.876 95.4041 169.866 95.3992 169.858 95.3943C169.863 95.3696 169.868 95.3433 169.872 95.3186C169.864 95.3137 169.854 95.3088 169.846 95.3039C169.851 95.2792 169.855 95.2529 169.86 95.2282C169.851 95.2233 169.841 95.2183 169.833 95.2134C169.838 95.1887 169.843 95.1624 169.847 95.1378C169.839 95.1328 169.829 95.1279 169.821 95.123C169.826 95.0983 169.831 95.072 169.835 95.0474C169.827 95.0424 169.817 95.0375 169.809 95.0326C169.814 95.0079 169.818 94.9816 169.823 94.9569C169.814 94.952 169.804 94.9471 169.796 94.9421C169.801 94.9175 169.806 94.8911 169.81 94.8665C169.802 94.8615 169.792 94.8566 169.784 94.8517C169.789 94.827 169.794 94.8007 169.798 94.7761C169.79 94.7711 169.78 94.7662 169.772 94.7613C169.777 94.7366 169.781 94.7103 169.786 94.6856C169.777 94.6807 169.767 94.6758 169.759 94.6708C169.764 94.6462 169.769 94.6199 169.773 94.5952C169.765 94.5903 169.755 94.5854 169.747 94.5804C169.752 94.5558 169.757 94.5294 169.761 94.5048C169.753 94.4998 169.743 94.4949 169.735 94.49C169.74 94.4653 169.744 94.439 169.749 94.4143C169.74 94.4094 169.73 94.4045 169.722 94.3995C169.727 94.3749 169.732 94.3486 169.736 94.3239C169.728 94.319 169.718 94.3141 169.71 94.3091C169.715 94.2845 169.72 94.2582 169.724 94.2335C169.716 94.2286 169.706 94.2236 169.698 94.2187C169.703 94.194 169.707 94.1677 169.712 94.143C169.703 94.1381 169.693 94.1332 169.685 94.1282C169.69 94.1036 169.695 94.0773 169.699 94.0526C169.691 94.0477 169.681 94.0428 169.673 94.0378C169.678 94.0132 169.683 93.9869 169.687 93.9622C169.679 93.9573 169.669 93.9523 169.661 93.9474C169.666 93.9227 169.67 93.8964 169.675 93.8718C169.666 93.8669 169.657 93.8619 169.648 93.857C169.653 93.8323 169.658 93.806 169.662 93.7813C169.654 93.7764 169.644 93.7714 169.636 93.7665C169.641 93.7419 169.646 93.7156 169.65 93.6909C169.642 93.686 169.632 93.681 169.624 93.6761C169.629 93.6514 169.633 93.6251 169.638 93.6005C169.629 93.5956 169.619 93.5906 169.611 93.5857C169.616 93.561 169.621 93.5347 169.625 93.5101C169.617 93.5051 169.607 93.5002 169.599 93.4953C169.604 93.4706 169.609 93.4443 169.613 93.4196C169.605 93.4147 169.595 93.4097 169.587 93.4048C169.592 93.3801 169.596 93.3538 169.601 93.3292C169.592 93.3243 169.583 93.3193 169.574 93.3144C169.579 93.2897 169.584 93.2634 169.588 93.2388C169.58 93.2338 169.57 93.2289 169.562 93.224C169.567 93.1993 169.572 93.173 169.576 93.1483C169.568 93.1434 169.558 93.1385 169.55 93.1335C169.555 93.1089 169.559 93.0825 169.564 93.0579C169.555 93.0529 169.546 93.0481 169.537 93.0431C169.542 93.0185 169.547 92.9921 169.551 92.9675C169.543 92.9625 169.533 92.9576 169.525 92.9527C169.53 92.928 169.535 92.9017 169.539 92.877C169.531 92.8721 169.521 92.8672 169.513 92.8622C169.518 92.8376 169.522 92.8113 169.527 92.7866C169.518 92.7817 169.509 92.7768 169.5 92.7718C169.505 92.7472 169.51 92.7208 169.514 92.6962C169.506 92.6912 169.496 92.6863 169.488 92.6814C169.493 92.6568 169.498 92.6304 169.502 92.6057C169.494 92.6008 169.484 92.5959 169.476 92.5909C169.481 92.5663 169.485 92.54 169.49 92.5153C169.481 92.5104 169.472 92.5055 169.463 92.5005C169.468 92.4759 169.473 92.4496 169.477 92.4249C169.469 92.42 169.459 92.415 169.451 92.4101C169.456 92.3854 169.461 92.3592 169.465 92.3345C169.457 92.3296 169.447 92.3246 169.439 92.3197C169.444 92.295 169.449 92.2687 169.453 92.244C169.444 92.2391 169.435 92.2342 169.426 92.2292C169.431 92.2046 169.436 92.1783 169.44 92.1536C169.432 92.1487 169.422 92.1437 169.414 92.1388C169.419 92.1141 169.424 92.0879 169.428 92.0632C169.42 92.0583 169.41 92.0533 169.402 92.0484C169.407 92.0237 169.412 91.9974 169.416 91.9728C169.407 91.9678 169.398 91.9629 169.389 91.958C169.394 91.9333 169.399 91.907 169.403 91.8823C169.395 91.8774 169.385 91.8724 169.377 91.8675C169.382 91.8428 169.387 91.8166 169.391 91.7919C169.383 91.787 169.373 91.782 169.365 91.7771C169.37 91.7524 169.375 91.7261 169.379 91.7015C169.37 91.6965 169.361 91.6916 169.352 91.6867C169.357 91.662 169.362 91.6357 169.366 91.6111C169.358 91.6061 169.348 91.6012 169.34 91.5963C169.345 91.5716 169.35 91.5453 169.354 91.5206C169.346 91.5157 169.336 91.5107 169.328 91.5058C169.333 91.4811 169.338 91.4548 169.342 91.4302C169.333 91.4252 169.324 91.4203 169.315 91.4154C169.32 91.3907 169.325 91.3644 169.329 91.3398C169.321 91.3348 169.311 91.3299 169.303 91.325C169.308 91.3003 169.313 91.274 169.317 91.2493C169.309 91.2444 169.299 91.2395 169.291 91.2345C169.296 91.2099 169.301 91.1835 169.305 91.1589C169.296 91.1539 169.287 91.149 169.278 91.1441C169.283 91.1194 169.288 91.0931 169.292 91.0685C169.284 91.0635 169.274 91.0586 169.266 91.0537C169.271 91.029 169.276 91.0027 169.28 90.978C169.272 90.9731 169.262 90.9682 169.254 90.9632C169.259 90.9386 169.264 90.9123 169.268 90.8876C169.259 90.8827 169.25 90.8778 169.241 90.8728C169.246 90.8482 169.251 90.8218 169.255 90.7972C169.247 90.7922 169.237 90.7873 169.229 90.7824C169.234 90.7577 169.239 90.7314 169.243 90.7067C169.235 90.7018 169.225 90.6969 169.217 90.6919C169.222 90.6673 169.227 90.641 169.231 90.6163C169.222 90.6114 169.213 90.6065 169.204 90.6015C169.209 90.5769 169.214 90.5506 169.218 90.5259C169.21 90.521 169.2 90.516 169.192 90.5111C169.197 90.4864 169.202 90.4601 169.206 90.4354C169.198 90.4305 169.188 90.4256 169.18 90.4207C169.185 90.396 169.19 90.3697 169.194 90.345C169.185 90.3401 169.176 90.3352 169.167 90.3302C169.172 90.3056 169.177 90.2793 169.181 90.2546C169.173 90.2497 169.163 90.2447 169.155 90.2398C169.16 90.2151 169.165 90.1888 169.169 90.1642C169.161 90.1593 169.151 90.1543 169.143 90.1494C169.148 90.1247 169.153 90.0984 169.157 90.0738C169.148 90.0688 169.139 90.0639 169.13 90.059C169.135 90.0343 169.14 90.008 169.144 89.9833C169.136 89.9784 169.126 89.9734 169.118 89.9685C169.123 89.9438 169.128 89.9175 169.132 89.8929C169.124 89.888 169.114 89.883 169.106 89.8781C169.111 89.8534 169.116 89.8271 169.12 89.8025C169.111 89.7975 169.102 89.7926 169.093 89.7877C169.098 89.763 169.103 89.7367 169.107 89.7121C169.099 89.7071 169.089 89.7022 169.081 89.6973C169.086 89.6726 169.091 89.6462 169.095 89.6216C169.087 89.6167 169.077 89.6117 169.069 89.6068C169.074 89.5821 169.079 89.5558 169.083 89.5312C169.074 89.5262 169.065 89.5213 169.056 89.5164C169.061 89.4917 169.066 89.4654 169.07 89.4408C169.062 89.4358 169.052 89.4309 169.044 89.4259C169.049 89.4013 169.054 89.375 169.058 89.3503C169.05 89.3454 169.04 89.3405 169.032 89.3355C169.037 89.3109 169.042 89.2845 169.046 89.2599C169.037 89.2549 169.028 89.25 169.019 89.2451C169.024 89.2204 169.029 89.1941 169.033 89.1695C169.025 89.1645 169.015 89.1596 169.007 89.1546C169.012 89.13 169.017 89.1037 169.021 89.079C169.013 89.0741 169.003 89.0692 168.995 89.0642C169 89.0396 169.005 89.0133 169.009 88.9886C169.002 88.9886 168.993 88.9837 168.984 88.9787Z" fill="#C4C685"/>
<path d="M134.598 75.6778C119.685 72.2686 106.782 72.0902 97.6084 72.6583C98.1863 79.535 98.3647 86.9518 98.562 94.8381C98.8506 106.344 98.7634 118.682 97.259 122.009C93.4536 118.79 87.7294 117.134 81.6279 117.967C71.5706 119.339 64.3034 126.948 65.3976 134.96C66.4918 142.972 75.5314 148.354 85.5896 146.98C85.5896 146.98 115.636 147.122 108.115 98.9435L146.505 106.436C146.505 106.436 148.48 138.229 146.609 144.096V144.096C143.478 141.907 139.433 140.546 134.961 140.419C124.444 140.122 114.987 146.723 114.016 155.481C113.004 164.602 121.544 172.234 132.884 172.177C136.109 172.161 139.151 171.519 141.852 170.405V170.406C145.495 169.272 147.755 167.629 148.998 166.569C155.956 160.635 155.071 152.459 160.258 129.293C161.238 124.916 160.969 126.553 162.596 119.542C165.535 106.869 167.616 96.3441 168.998 88.9026C161.009 84.442 149.389 79.059 134.598 75.6778Z" fill="#F80000"/>
<path d="M67 67L174 174" stroke="#FDFED2" stroke-width="16"/>
<defs>
<linearGradient id="paint0_linear_16_602" x1="123.374" y1="34.8632" x2="123.374" y2="214.35" gradientUnits="userSpaceOnUse">
<stop stop-color="#F9A000"/>
<stop offset="1" stop-color="#EE4200"/>
</linearGradient>
<linearGradient id="paint1_linear_16_602" x1="122.889" y1="41.598" x2="122.889" y2="191.205" gradientUnits="userSpaceOnUse">
<stop stop-color="#FBBC00"/>
<stop offset="1" stop-color="#EF5F00"/>
</linearGradient>
<linearGradient id="paint2_linear_16_602" x1="133.361" y1="91.058" x2="105.723" y2="178.781" gradientUnits="userSpaceOnUse">
<stop stop-color="#F88F00"/>
<stop offset="0.5526" stop-color="#F46400"/>
<stop offset="1" stop-color="#F03F00"/>
</linearGradient>
</defs>
</svg>
