<svg width="248" height="264" viewBox="0 0 248 264" fill="none" xmlns="http://www.w3.org/2000/svg">
<path opacity="0.2" d="M123.964 263.748C192.102 263.748 247.338 208.512 247.338 140.374C247.338 72.2364 192.102 17 123.964 17C55.8268 17 0.590332 72.2364 0.590332 140.374C0.590332 208.512 55.8268 263.748 123.964 263.748Z" fill="black"/>
<path d="M123.964 246.748C192.102 246.748 247.338 191.512 247.338 123.374C247.338 55.2364 192.102 0 123.964 0C55.8268 0 0.590332 55.2364 0.590332 123.374C0.590332 191.512 55.8268 246.748 123.964 246.748Z" fill="#FFECAD"/>
<path d="M123.963 232.348C184.148 232.348 232.937 183.559 232.937 123.374C232.937 63.1892 184.148 14.3999 123.963 14.3999C63.7786 14.3999 14.9893 63.1892 14.9893 123.374C14.9893 183.559 63.7786 232.348 123.963 232.348Z" fill="#FEFDD1"/>
<path d="M123.963 217.19C175.777 217.19 217.779 175.187 217.779 123.374C217.779 71.5609 175.777 29.5581 123.963 29.5581C72.1503 29.5581 30.1475 71.5609 30.1475 123.374C30.1475 175.187 72.1503 217.19 123.963 217.19Z" fill="#E4E3A3"/>
<path d="M123.963 213.563C173.773 213.563 214.152 173.184 214.152 123.374C214.152 73.564 173.773 33.1851 123.963 33.1851C74.1534 33.1851 33.7744 73.564 33.7744 123.374C33.7744 173.184 74.1534 213.563 123.963 213.563Z" fill="url(#paint0_linear_15_7)"/>
<path d="M202.543 96.0332C205.681 105.055 206.363 114.803 204.446 124.161C196.683 162.049 163.152 190.549 122.964 190.549C86.8774 190.549 56.1594 167.571 44.6454 135.457C41.2494 125.986 40.5204 115.784 42.6184 105.944C50.6294 68.3732 84.0064 40.1992 123.964 40.1992C160.327 40.1992 191.237 63.5282 202.543 96.0332Z" fill="url(#paint1_linear_15_7)"/>
<path d="M188.02 75.2719C191.567 70.6606 187.819 61.8285 179.65 55.5448C171.48 49.2611 161.982 47.9054 158.435 52.5167C154.888 57.128 158.636 65.9601 166.806 72.2438C174.975 78.5275 184.473 79.8832 188.02 75.2719Z" fill="#F9EFDC"/>
<path d="M57.2806 156.885C61.8546 158.606 64.9936 162.049 68.3116 165.417C69.3986 166.598 70.7236 167.927 71.9146 169.566C73.1946 171.183 72.1836 173.732 70.1656 174.061C63.6396 175.213 56.8216 171.049 54.1116 165.174C52.7316 162.341 51.9436 154.741 57.2806 156.885Z" fill="#FFD6AF"/>
<path d="M162.28 181.864C169.184 178.623 184.723 171.544 191.723 172.682C194.145 173.076 195.511 175.641 194.538 177.893C192.725 182.088 185.298 190.846 156.138 203.369C156.138 203.369 129.359 215.369 128.727 203.369C128.726 202.639 128.838 201.566 129.485 200.59C129.485 200.59 158.457 183.658 162.28 181.864Z" fill="#EE6931"/>
<path d="M153.335 201.146C160.512 196.399 168.407 193.233 176.248 189.774C176.731 189.558 177.19 190.214 176.821 190.591C172.263 195.359 166.218 198.417 160.068 200.576C158.005 201.264 155.898 201.824 153.682 202.083C153.164 202.161 152.891 201.421 153.335 201.146Z" fill="#FF9B85"/>
<path d="M64.2964 111.928V151.835C64.2964 158.345 69.5774 163.626 76.0724 163.626H106.704V168.892C106.704 179.688 118.846 186.037 127.726 179.878L181.91 142.18C189.575 136.855 189.575 125.533 181.91 120.222L128.325 82.9477C119.197 76.5987 106.704 83.1237 106.704 94.2407V100.151H76.0724C69.5774 100.152 64.2964 105.418 64.2964 111.928Z" fill="url(#paint2_linear_15_7)"/>
<path d="M76.0724 91.1507H106.704V90.2407V90.1787V90.1167V90.0547V89.9927V89.9307V89.8687V89.8067V89.7447V89.6827V89.6207V89.5587V89.4967V89.4347V89.3727V89.3107V89.2487V89.1867V89.1247V89.0627V89.0007V88.9387V88.8767V88.8147V88.7527V88.6977V88.6357V88.5737V88.5117V88.4497V88.3877V88.3257V88.2637V88.2017V88.1397V88.0777V88.0157V87.9537V87.8917V87.8297V87.7677V87.7057V87.6437V87.5817V87.5197V87.4577V87.3957V87.3337V87.2717V87.2097V87.1477V87.0857V87.0237V86.9617V86.8997V86.8377V86.7757V86.7137V86.6517V86.5897V86.5277V86.4657V86.4037V86.3417V86.2797V86.2177V86.1557V86.0937V86.0317V85.9697V85.9077V85.8457V85.7837V85.7217V85.6597V85.5977V85.5357V85.4737V85.4117V85.3497V85.2877V85.2257C106.704 74.1077 119.197 67.5837 128.325 73.9327L181.91 111.207C185.752 113.869 187.667 118.041 187.657 122.211C187.657 122.232 187.657 122.252 187.657 122.273C187.657 122.294 187.657 122.314 187.657 122.335C187.657 122.356 187.657 122.376 187.657 122.397C187.657 122.418 187.657 122.438 187.657 122.459C187.657 122.48 187.657 122.5 187.657 122.521C187.657 122.542 187.657 122.562 187.657 122.583C187.657 122.604 187.657 122.624 187.657 122.645C187.657 122.666 187.657 122.686 187.657 122.707C187.657 122.728 187.657 122.748 187.657 122.769C187.657 122.79 187.657 122.81 187.657 122.831C187.657 122.852 187.657 122.872 187.657 122.893C187.657 122.914 187.657 122.934 187.657 122.955C187.657 122.976 187.657 122.996 187.657 123.017C187.657 123.038 187.657 123.058 187.657 123.079C187.657 123.1 187.657 123.12 187.657 123.141C187.657 123.162 187.657 123.182 187.657 123.203C187.657 123.224 187.657 123.244 187.657 123.265C187.657 123.286 187.657 123.306 187.657 123.327C187.657 123.348 187.657 123.368 187.657 123.389C187.657 123.41 187.657 123.43 187.657 123.451C187.657 123.472 187.657 123.492 187.657 123.513C187.657 123.534 187.657 123.554 187.657 123.575C187.657 123.596 187.657 123.616 187.657 123.637C187.657 123.658 187.657 123.678 187.657 123.699C187.657 123.72 187.657 123.74 187.657 123.761C187.657 123.782 187.657 123.802 187.657 123.823C187.657 123.844 187.657 123.864 187.657 123.885C187.657 123.906 187.657 123.926 187.657 123.947C187.657 123.968 187.657 123.988 187.657 124.009C187.657 124.03 187.657 124.05 187.657 124.071C187.657 124.092 187.657 124.112 187.657 124.133C187.657 124.154 187.657 124.174 187.657 124.195C187.657 124.216 187.657 124.236 187.657 124.257C187.657 124.278 187.657 124.298 187.657 124.319C187.657 124.34 187.657 124.36 187.657 124.381C187.657 124.402 187.657 124.422 187.657 124.443C187.657 124.464 187.657 124.484 187.657 124.505C187.657 124.526 187.657 124.546 187.657 124.567C187.657 124.588 187.657 124.608 187.657 124.629C187.657 124.65 187.657 124.67 187.657 124.691C187.657 124.712 187.657 124.732 187.657 124.753C187.657 124.774 187.657 124.794 187.657 124.815C187.657 124.836 187.657 124.856 187.657 124.877C187.657 124.898 187.657 124.918 187.657 124.939C187.657 124.96 187.657 124.98 187.657 125.001C187.657 125.022 187.657 125.042 187.657 125.063C187.657 125.084 187.657 125.104 187.657 125.125C187.657 125.146 187.657 125.166 187.657 125.187C187.657 125.208 187.657 125.228 187.657 125.249C187.657 125.27 187.657 125.29 187.657 125.311C187.657 125.332 187.657 125.352 187.657 125.373C187.657 125.394 187.657 125.414 187.657 125.435C187.657 125.456 187.657 125.476 187.657 125.497C187.657 125.518 187.657 125.538 187.657 125.559C187.657 125.58 187.657 125.6 187.657 125.621C187.657 125.642 187.657 125.662 187.657 125.683C187.657 125.704 187.657 125.724 187.657 125.745C187.657 125.766 187.657 125.786 187.657 125.807C187.657 125.828 187.657 125.848 187.657 125.869C187.657 125.89 187.657 125.91 187.657 125.931C187.657 125.952 187.657 125.972 187.657 125.993C187.657 126.014 187.657 126.034 187.657 126.055C187.657 126.076 187.657 126.096 187.657 126.117C187.657 126.138 187.657 126.158 187.657 126.179C187.657 126.2 187.657 126.22 187.657 126.241C187.657 126.262 187.657 126.282 187.657 126.303C187.657 126.324 187.657 126.344 187.657 126.365C187.657 126.386 187.657 126.406 187.657 126.427C187.657 126.448 187.657 126.468 187.657 126.489C187.657 126.51 187.657 126.53 187.657 126.551C187.657 126.572 187.657 126.592 187.657 126.613C187.657 126.634 187.657 126.654 187.657 126.675C187.657 126.696 187.657 126.716 187.657 126.737C187.657 126.758 187.657 126.778 187.657 126.799C187.657 126.82 187.657 126.84 187.657 126.861C187.657 126.882 187.657 126.902 187.657 126.923C187.657 126.944 187.657 126.964 187.657 126.985C187.657 127.006 187.657 127.026 187.657 127.047C187.657 127.068 187.657 127.088 187.657 127.109C187.657 127.13 187.657 127.15 187.657 127.171C187.667 131.341 185.752 135.517 181.91 138.186L127.726 175.884C118.846 182.043 106.704 175.694 106.704 164.898V164.836V164.774V164.712V164.65V164.588V164.526V164.464V164.398V164.336V164.274V164.212V164.15V164.088V164.026V163.964V163.902V163.84V163.778V163.716V163.654V163.592V163.53V163.468V163.406V163.344V163.282V163.22V163.158V163.096V163.034V162.972V162.91V162.848V162.786V162.724V162.662V162.6V162.538V162.476V162.414V162.352V162.29V162.228V162.166V162.104V162.042V161.98V161.918V161.856V161.794V161.732V161.67V161.608V161.546V161.484V161.422V161.36V161.298V161.236V161.174V161.112V161.05V160.988V160.926V160.864V160.802V160.74V160.678V160.616V160.554V160.492V160.43V160.368V160.306V160.244V160.182V160.12V160.058V159.996V159.934V159.872V159.606H76.0724C69.5774 159.606 64.2964 154.325 64.2964 147.815V147.753V147.691V147.629V147.567V147.505V147.443V147.381V147.319V147.257V147.195V147.133V147.071V147.009V146.947V146.885V146.823V146.761V146.699V146.637V146.575V146.513V146.451V146.389V146.327V146.265V146.203V146.141V146.079V146.017V145.955V145.893V145.831V145.798V145.736V145.674V145.612V145.55V145.488V145.426V145.364V145.302V145.24V145.178V145.116V145.054V144.992V144.93V144.868V144.806V144.744V144.682V144.62V144.558V144.496V144.434V144.372V144.31V144.248V144.186V144.124V144.062V144V143.938V143.876V143.814V143.752V143.69V143.628V143.566V143.504V143.442V143.38V143.318V143.256V143.194V143.132V143.07V143.008V142.946V142.884V142.822V107.928V107.866V107.804V107.742V107.68V107.618V107.556V107.494V107.432V107.37V107.308V107.246V107.184V107.122V107.06V106.998V106.936V106.874V106.812V106.75V106.688V106.626V106.564V106.502V106.44V106.378V106.316V106.254V106.192V106.13V106.068V106.006V105.944V105.882V105.82V105.758V105.696V105.634V105.572V105.51V105.448V105.386V105.324V105.262V105.2V105.138V105.076V105.014V104.952V104.89V104.828V104.766V104.704V104.642V104.58V104.518V104.456V104.394V104.332V104.27V104.208V104.146V104.084V104.022V103.96V103.898V103.836V103.774V103.712V103.65V103.588V103.526V103.464V103.402V103.34V103.298V103.236V103.174V103.112V103.05V102.988V102.926C64.2964 96.4177 69.5774 91.1507 76.0724 91.1507Z" fill="#C4C685"/>
<path d="M64.2964 102.928V142.835C64.2964 149.345 69.5774 154.626 76.0724 154.626H106.704V159.892C106.704 170.688 118.846 177.037 127.726 170.878L181.91 133.18C189.575 127.855 189.575 116.533 181.91 111.222L128.325 73.9477C119.197 67.5987 106.704 74.1237 106.704 85.2407V91.1507H76.0724C69.5774 91.1517 64.2964 96.4177 64.2964 102.928Z" fill="#FDFED2"/>
<defs>
<linearGradient id="paint0_linear_15_7" x1="123.964" y1="34.8637" x2="123.964" y2="214.351" gradientUnits="userSpaceOnUse">
<stop stop-color="#F9A000"/>
<stop offset="1" stop-color="#EE4200"/>
</linearGradient>
<linearGradient id="paint1_linear_15_7" x1="123.479" y1="41.5984" x2="123.479" y2="191.205" gradientUnits="userSpaceOnUse">
<stop stop-color="#FBBC00"/>
<stop offset="1" stop-color="#EF5F00"/>
</linearGradient>
<linearGradient id="paint2_linear_15_7" x1="125.978" y1="85.1369" x2="125.978" y2="186.342" gradientUnits="userSpaceOnUse">
<stop stop-color="#F88F00"/>
<stop offset="0.2049" stop-color="#F88A00"/>
<stop offset="0.4425" stop-color="#F67C00"/>
<stop offset="0.6965" stop-color="#F46500"/>
<stop offset="0.9601" stop-color="#F14500"/>
<stop offset="1" stop-color="#F03F00"/>
</linearGradient>
</defs>
</svg>
