<svg width="247" height="264" viewBox="0 0 247 264" fill="none" xmlns="http://www.w3.org/2000/svg">
<path opacity="0.2" d="M123.374 263.748C191.512 263.748 246.748 208.512 246.748 140.374C246.748 72.2364 191.512 17 123.374 17C55.2364 17 0 72.2364 0 140.374C0 208.512 55.2364 263.748 123.374 263.748Z" fill="black"/>
<path d="M123.374 246.748C191.512 246.748 246.748 191.512 246.748 123.374C246.748 55.2364 191.512 0 123.374 0C55.2364 0 0 55.2364 0 123.374C0 191.512 55.2364 246.748 123.374 246.748Z" fill="#FFECAD"/>
<path d="M232.348 123.374C232.348 183.558 183.559 232.348 123.374 232.348C63.1888 232.348 14.4009 183.558 14.4009 123.374C14.4009 63.1899 63.1899 14.3999 123.375 14.3999C183.56 14.3999 232.348 63.1889 232.348 123.374Z" fill="#FEFDD1"/>
<path d="M123.374 217.19C175.187 217.19 217.19 175.187 217.19 123.374C217.19 71.561 175.187 29.5581 123.374 29.5581C71.5609 29.5581 29.5581 71.561 29.5581 123.374C29.5581 175.187 71.5609 217.19 123.374 217.19Z" fill="#E4E3A3"/>
<path d="M123.374 213.563C173.184 213.563 213.563 173.184 213.563 123.374C213.563 73.5641 173.184 33.1851 123.374 33.1851C73.564 33.1851 33.1851 73.5641 33.1851 123.374C33.1851 173.184 73.564 213.563 123.374 213.563Z" fill="url(#paint0_linear_15_122)"/>
<path d="M201.954 96.0322C205.092 105.054 205.774 114.802 203.857 124.16C196.094 162.048 162.563 190.548 122.375 190.548C86.2881 190.548 55.5701 167.57 44.0561 135.456C40.6601 125.985 39.9311 115.783 42.0291 105.943C50.0401 68.3723 83.4171 40.1982 123.375 40.1982C159.738 40.1982 190.648 63.5272 201.954 96.0322Z" fill="url(#paint1_linear_15_122)"/>
<path d="M56.6908 156.884C61.2648 158.605 64.4038 162.048 67.7218 165.416C68.8088 166.597 70.1337 167.926 71.3247 169.565C72.6047 171.182 71.5938 173.731 69.5758 174.06C63.0498 175.212 56.2318 171.048 53.5218 165.173C52.1418 162.341 51.3538 154.741 56.6908 156.884Z" fill="#FFD6AF"/>
<path d="M161.69 181.863C168.594 178.622 184.133 171.543 191.133 172.681C193.555 173.075 194.921 175.64 193.948 177.892C192.135 182.087 184.708 190.845 155.548 203.368C155.548 203.368 128.769 215.368 128.137 203.368C128.136 202.638 128.248 201.565 128.895 200.589C128.895 200.589 157.867 183.658 161.69 181.863Z" fill="#EE6931"/>
<path d="M152.745 201.145C159.922 196.398 167.817 193.232 175.658 189.773C176.141 189.557 176.6 190.213 176.231 190.59C171.673 195.358 165.628 198.416 159.478 200.575C157.415 201.263 155.308 201.823 153.092 202.082C152.574 202.16 152.301 201.42 152.745 201.145Z" fill="#FF9B85"/>
<path d="M87.5291 171.345C83.1441 171.345 79.5781 167.434 79.5781 162.628V88.1189C79.5781 83.3119 83.1441 79.4019 87.5291 79.4019H109.363C113.748 79.4019 117.315 83.3129 117.315 88.1189V162.628C117.315 167.435 113.748 171.345 109.363 171.345H87.5291Z" fill="url(#paint2_linear_15_122)"/>
<path d="M139.386 171.345C135.001 171.345 131.435 167.434 131.435 162.628V88.1189C131.435 83.3119 135.001 79.4019 139.386 79.4019H161.22C165.605 79.4019 169.172 83.3129 169.172 88.1189V162.628C169.172 167.435 165.605 171.345 161.22 171.345H139.386Z" fill="url(#paint3_linear_15_122)"/>
<path d="M87.5291 168.345C83.1441 168.345 79.5781 164.434 79.5781 159.628V85.1189C79.5781 80.3119 83.1441 76.4019 87.5291 76.4019H109.363C113.748 76.4019 117.315 80.3129 117.315 85.1189V159.628C117.315 164.435 113.748 168.345 109.363 168.345H87.5291Z" fill="#C7C97E"/>
<path d="M139.386 168.345C135.001 168.345 131.435 164.434 131.435 159.628V85.1189C131.435 80.3119 135.001 76.4019 139.386 76.4019H161.22C165.605 76.4019 169.172 80.3129 169.172 85.1189V159.628C169.172 164.435 165.605 168.345 161.22 168.345H139.386Z" fill="#C7C97E"/>
<path d="M87.5291 165.345C83.1441 165.345 79.5781 161.434 79.5781 156.628V82.1189C79.5781 77.3119 83.1441 73.4019 87.5291 73.4019H109.363C113.748 73.4019 117.315 77.3129 117.315 82.1189V156.628C117.315 161.435 113.748 165.345 109.363 165.345H87.5291Z" fill="#C7C97E"/>
<path d="M139.386 165.345C135.001 165.345 131.435 161.434 131.435 156.628V82.1189C131.435 77.3119 135.001 73.4019 139.386 73.4019H161.22C165.605 73.4019 169.172 77.3129 169.172 82.1189V156.628C169.172 161.435 165.605 165.345 161.22 165.345H139.386Z" fill="#C7C97E"/>
<path d="M108.363 162.845H86.5292C82.9662 162.845 80.0771 159.614 80.0771 155.628V81.1189C80.0771 77.1329 82.9662 73.9019 86.5292 73.9019H108.363C111.926 73.9019 114.815 77.1329 114.815 81.1189V155.628C114.815 159.614 111.926 162.845 108.363 162.845Z" fill="#FDFED2"/>
<path d="M160.22 162.845H138.386C134.823 162.845 131.934 159.614 131.934 155.628V81.1189C131.934 77.1329 134.823 73.9019 138.386 73.9019H160.22C163.783 73.9019 166.672 77.1329 166.672 81.1189V155.628C166.671 159.614 163.783 162.845 160.22 162.845Z" fill="#FDFED2"/>
<defs>
<linearGradient id="paint0_linear_15_122" x1="123.375" y1="34.8632" x2="123.375" y2="214.35" gradientUnits="userSpaceOnUse">
<stop stop-color="#F9A000"/>
<stop offset="1" stop-color="#EE4200"/>
</linearGradient>
<linearGradient id="paint1_linear_15_122" x1="122.889" y1="41.5979" x2="122.889" y2="191.205" gradientUnits="userSpaceOnUse">
<stop stop-color="#FBBC00"/>
<stop offset="1" stop-color="#EF5F00"/>
</linearGradient>
<linearGradient id="paint2_linear_15_122" x1="98.4467" y1="78.7923" x2="98.4467" y2="180.848" gradientUnits="userSpaceOnUse">
<stop offset="0.4872" stop-color="#F88F00"/>
<stop offset="0.6034" stop-color="#F78200"/>
<stop offset="0.8162" stop-color="#F36100"/>
<stop offset="1" stop-color="#F03F00"/>
</linearGradient>
<linearGradient id="paint3_linear_15_122" x1="150.303" y1="78.7923" x2="150.303" y2="180.848" gradientUnits="userSpaceOnUse">
<stop offset="0.4872" stop-color="#F88F00"/>
<stop offset="0.6034" stop-color="#F78200"/>
<stop offset="0.8162" stop-color="#F36100"/>
<stop offset="1" stop-color="#F03F00"/>
</linearGradient>
</defs>
</svg>
