<svg width="247" height="264" viewBox="0 0 247 264" fill="none" xmlns="http://www.w3.org/2000/svg">
<path opacity="0.2" d="M123.374 263.748C191.512 263.748 246.748 208.512 246.748 140.374C246.748 72.2364 191.512 17 123.374 17C55.2364 17 0 72.2364 0 140.374C0 208.512 55.2364 263.748 123.374 263.748Z" fill="black"/>
<path d="M123.374 246.748C191.512 246.748 246.748 191.512 246.748 123.374C246.748 55.2364 191.512 0 123.374 0C55.2364 0 0 55.2364 0 123.374C0 191.512 55.2364 246.748 123.374 246.748Z" fill="#FFECAD"/>
<path d="M123.374 232.348C183.559 232.348 232.348 183.559 232.348 123.374C232.348 63.1892 183.559 14.3999 123.374 14.3999C63.1892 14.3999 14.3999 63.1892 14.3999 123.374C14.3999 183.559 63.1892 232.348 123.374 232.348Z" fill="#FEFDD1"/>
<path d="M123.374 217.19C175.187 217.19 217.19 175.187 217.19 123.374C217.19 71.561 175.187 29.5581 123.374 29.5581C71.561 29.5581 29.5581 71.561 29.5581 123.374C29.5581 175.187 71.561 217.19 123.374 217.19Z" fill="#E4E3A3"/>
<path d="M213.564 123.374C213.564 173.184 173.185 213.563 123.375 213.563C73.565 213.563 33.186 173.184 33.186 123.374C33.186 73.5641 73.565 33.1851 123.375 33.1851C173.185 33.1851 213.564 73.5631 213.564 123.374Z" fill="url(#paint0_linear_15_165)"/>
<path d="M201.954 96.0322C205.092 105.054 205.774 114.802 203.857 124.16C196.094 162.048 162.563 190.548 122.375 190.548C86.2881 190.548 55.5701 167.57 44.0561 135.456C40.6601 125.985 39.9311 115.783 42.0291 105.943C50.0401 68.3723 83.4171 40.1982 123.375 40.1982C159.737 40.1982 190.648 63.5282 201.954 96.0322Z" fill="url(#paint1_linear_15_165)"/>
<path d="M56.6907 156.884C61.2647 158.605 64.4038 162.048 67.7218 165.416C68.8088 166.597 70.1338 167.926 71.3248 169.565C72.6048 171.182 71.5938 173.731 69.5758 174.06C63.0498 175.212 56.2318 171.048 53.5218 165.173C52.1418 162.341 51.3537 154.741 56.6907 156.884Z" fill="#FFD6AF"/>
<path d="M161.69 181.863C168.594 178.622 184.133 171.543 191.133 172.681C193.555 173.075 194.921 175.64 193.948 177.892C192.135 182.087 184.708 190.845 155.548 203.368C155.548 203.368 128.769 215.368 128.137 203.368C128.136 202.638 128.248 201.565 128.895 200.589C128.895 200.589 157.867 183.658 161.69 181.863Z" fill="#EE6931"/>
<path d="M152.745 201.145C159.922 196.398 167.817 193.232 175.658 189.773C176.141 189.557 176.6 190.213 176.231 190.59C171.673 195.358 165.628 198.416 159.478 200.575C157.415 201.263 155.308 201.823 153.092 202.082C152.574 202.16 152.301 201.42 152.745 201.145Z" fill="#FF9B85"/>
<path d="M181.031 135.328C185.296 129.414 185.255 121.402 180.919 115.54C174.827 107.303 162.995 97.4141 149.914 88.6861C134.337 78.2931 118.05 72.8621 107.137 70.7661C101.818 69.7441 96.6172 72.9961 95.1352 78.2051C91.3512 91.5061 88.9462 111.285 90.7932 133.775C92.1492 150.28 94.8202 166.745 98.7882 177.374C100.654 182.373 106.064 185.164 111.211 183.758C121.792 180.868 137.2 172.853 151.647 162.31C163.815 153.431 175.138 143.5 181.031 135.328Z" fill="url(#paint2_linear_15_165)"/>
<path d="M181.896 115.018C181.887 114.997 181.88 114.976 181.871 114.956C181.863 114.936 181.855 114.915 181.846 114.895C181.837 114.874 181.83 114.853 181.821 114.833C181.813 114.813 181.805 114.792 181.797 114.772C181.788 114.751 181.781 114.73 181.772 114.709C181.764 114.689 181.756 114.668 181.748 114.648C181.739 114.627 181.732 114.606 181.723 114.586C181.714 114.565 181.707 114.545 181.698 114.524C181.69 114.504 181.682 114.483 181.674 114.463C181.665 114.442 181.658 114.421 181.649 114.401C181.641 114.381 181.633 114.36 181.624 114.34C181.615 114.319 181.608 114.298 181.599 114.278C181.591 114.258 181.583 114.237 181.574 114.217C181.565 114.196 181.558 114.175 181.549 114.155C181.541 114.135 181.533 114.114 181.525 114.094C181.516 114.073 181.509 114.052 181.5 114.031C181.492 114.011 181.484 113.99 181.476 113.97C181.467 113.949 181.46 113.928 181.451 113.908C181.442 113.887 181.435 113.867 181.426 113.846C181.418 113.826 181.41 113.805 181.402 113.785C181.393 113.764 181.386 113.743 181.377 113.723C181.369 113.703 181.361 113.682 181.352 113.662C181.343 113.641 181.336 113.62 181.327 113.6C181.319 113.58 181.311 113.559 181.303 113.539C181.294 113.518 181.287 113.497 181.278 113.476C181.27 113.456 181.262 113.435 181.254 113.415C181.245 113.394 181.238 113.373 181.229 113.352C181.221 113.332 181.213 113.311 181.205 113.291C181.196 113.27 181.189 113.249 181.18 113.229C181.172 113.209 181.164 113.188 181.155 113.168C181.146 113.147 181.139 113.126 181.13 113.106C181.122 113.086 181.114 113.065 181.105 113.045C181.097 113.025 181.089 113.004 181.08 112.984C181.071 112.963 181.064 112.942 181.055 112.922C181.047 112.902 181.039 112.881 181.031 112.861C181.022 112.84 181.015 112.819 181.006 112.798C180.998 112.778 180.99 112.757 180.982 112.737C180.973 112.716 180.966 112.695 180.957 112.675C180.949 112.655 180.941 112.634 180.932 112.614C180.923 112.593 180.916 112.572 180.907 112.552C180.899 112.532 180.891 112.511 180.882 112.491C180.873 112.47 180.866 112.449 180.857 112.429C180.849 112.409 180.841 112.388 180.832 112.368C180.824 112.348 180.816 112.327 180.807 112.307C180.798 112.286 180.791 112.265 180.782 112.245C180.774 112.225 180.766 112.204 180.758 112.184C180.749 112.163 180.742 112.142 180.733 112.121C180.725 112.101 180.717 112.08 180.709 112.06C180.7 112.039 180.693 112.018 180.684 111.998C180.676 111.978 180.668 111.957 180.659 111.937C180.65 111.916 180.643 111.895 180.634 111.875C180.626 111.855 180.618 111.834 180.61 111.814C180.601 111.793 180.594 111.772 180.585 111.751C180.577 111.731 180.569 111.71 180.56 111.69C180.552 111.67 180.544 111.649 180.535 111.629C180.526 111.608 180.519 111.587 180.51 111.567C180.502 111.547 180.494 111.526 180.486 111.506C180.477 111.485 180.47 111.464 180.461 111.443C180.453 111.423 180.445 111.402 180.437 111.382C180.428 111.361 180.421 111.34 180.412 111.32C180.404 111.3 180.396 111.279 180.387 111.259C180.378 111.238 180.371 111.217 180.362 111.197C180.354 111.177 180.346 111.156 180.338 111.136C180.329 111.115 180.322 111.094 180.313 111.073C180.304 111.052 180.297 111.032 180.288 111.011C180.28 110.991 180.272 110.97 180.264 110.95C180.255 110.929 180.248 110.908 180.239 110.887C180.231 110.867 180.223 110.846 180.215 110.826C180.206 110.805 180.199 110.784 180.19 110.763C180.182 110.743 180.174 110.722 180.166 110.702C180.157 110.681 180.15 110.66 180.141 110.64C180.133 110.62 180.125 110.599 180.116 110.579C180.107 110.558 180.1 110.537 180.091 110.517C180.083 110.497 180.075 110.476 180.067 110.456C180.058 110.435 180.051 110.414 180.042 110.393C180.034 110.373 180.026 110.352 180.018 110.332C180.009 110.311 180.002 110.291 179.993 110.27C179.984 110.249 179.977 110.229 179.968 110.208C179.96 110.188 179.952 110.167 179.944 110.147C179.935 110.126 179.928 110.105 179.919 110.084C179.406 108.846 178.739 107.657 177.917 106.545C171.825 98.3079 159.993 88.419 146.912 79.691C131.335 69.298 115.048 63.8669 104.135 61.7709C98.8162 60.7489 93.6152 64.001 92.1332 69.21C88.3492 82.511 85.9442 102.29 87.7912 124.78C89.1472 141.285 91.8182 157.75 95.7862 168.379C95.7912 168.392 95.7972 168.404 95.8022 168.417C95.8052 168.425 95.8072 168.433 95.8102 168.44C95.8152 168.453 95.8212 168.465 95.8262 168.478C95.8292 168.486 95.8322 168.494 95.8342 168.502C95.8392 168.515 95.8462 168.527 95.8512 168.541C95.8542 168.548 95.8562 168.557 95.8592 168.564C95.8642 168.577 95.8702 168.589 95.8752 168.601C95.8782 168.609 95.8812 168.617 95.8842 168.625C95.8892 168.638 95.8962 168.65 95.9012 168.664C95.9042 168.671 95.9062 168.68 95.9092 168.687C95.9142 168.7 95.9212 168.712 95.9262 168.726C95.9292 168.733 95.9312 168.742 95.9342 168.749C95.9392 168.762 95.9452 168.774 95.9502 168.786C95.9532 168.794 95.9562 168.802 95.9592 168.81C95.9642 168.823 95.9712 168.835 95.9762 168.849C95.9792 168.856 95.9812 168.865 95.9842 168.872C95.9892 168.885 95.9952 168.897 96.0002 168.909C96.0032 168.917 96.0062 168.925 96.0092 168.933C96.0142 168.946 96.0212 168.958 96.0262 168.972C96.0292 168.979 96.0312 168.988 96.0342 168.995C96.0392 169.008 96.0452 169.02 96.0502 169.033C96.0532 169.041 96.0562 169.049 96.0582 169.057C96.0632 169.07 96.0692 169.082 96.0742 169.095C96.0772 169.103 96.0792 169.111 96.0822 169.118C96.0872 169.131 96.0932 169.143 96.0982 169.156C96.1012 169.164 96.1042 169.172 96.1062 169.18C96.1112 169.193 96.1182 169.205 96.1232 169.219C96.1262 169.226 96.1282 169.235 96.1312 169.242C96.1362 169.255 96.1422 169.267 96.1472 169.279C96.1502 169.287 96.1532 169.295 96.1562 169.303C96.1612 169.316 96.1682 169.328 96.1732 169.342C96.1762 169.349 96.1782 169.358 96.1812 169.365C96.1862 169.378 96.1932 169.39 96.1982 169.404C96.2012 169.411 96.2032 169.42 96.2062 169.427C96.2112 169.44 96.2172 169.452 96.2222 169.464C96.2252 169.472 96.2282 169.48 96.2312 169.488C96.2362 169.501 96.2432 169.513 96.2482 169.527C96.2512 169.534 96.2532 169.543 96.2562 169.55C96.2612 169.563 96.2672 169.575 96.2722 169.588C96.2752 169.596 96.2782 169.604 96.2802 169.612C96.2852 169.625 96.2912 169.637 96.2962 169.65C96.2992 169.658 96.3012 169.666 96.3042 169.673C96.3092 169.686 96.3152 169.698 96.3202 169.711C96.3232 169.719 96.3262 169.727 96.3282 169.735C96.3332 169.748 96.3392 169.76 96.3442 169.773C96.3472 169.781 96.3492 169.789 96.3522 169.796C96.3572 169.809 96.3632 169.821 96.3682 169.834C96.3712 169.842 96.3742 169.85 96.3762 169.858C96.3812 169.871 96.3882 169.883 96.3932 169.897C96.3962 169.904 96.3982 169.913 96.4012 169.92C96.4062 169.933 96.4122 169.945 96.4172 169.957C96.4202 169.965 96.4232 169.973 96.4262 169.981C96.4312 169.994 96.4382 170.006 96.4432 170.02C96.4462 170.027 96.4482 170.036 96.4512 170.043C96.4562 170.056 96.4632 170.068 96.4682 170.082C96.4712 170.089 96.4732 170.098 96.4762 170.105C96.4812 170.118 96.4872 170.13 96.4922 170.142C96.4952 170.15 96.4982 170.158 96.5012 170.166C96.5062 170.179 96.5132 170.191 96.5182 170.205C96.5212 170.212 96.5232 170.221 96.5262 170.228C96.5312 170.241 96.5372 170.253 96.5422 170.266C96.5452 170.274 96.5482 170.282 96.5502 170.29C96.5552 170.303 96.5612 170.315 96.5662 170.328C96.5692 170.336 96.5712 170.344 96.5742 170.351C96.5792 170.364 96.5852 170.376 96.5902 170.389C96.5932 170.397 96.5962 170.405 96.5982 170.413C96.6032 170.426 96.6092 170.438 96.6142 170.451C96.6172 170.459 96.6192 170.467 96.6222 170.474C96.6272 170.487 96.6332 170.499 96.6382 170.512C96.6412 170.52 96.6442 170.528 96.6462 170.536C96.6512 170.549 96.6582 170.561 96.6632 170.575C96.6662 170.582 96.6682 170.591 96.6712 170.598C96.6762 170.611 96.6822 170.623 96.6872 170.635C96.6902 170.643 96.6932 170.651 96.6962 170.659C96.7012 170.672 96.7082 170.684 96.7132 170.698C96.7162 170.705 96.7182 170.714 96.7212 170.721C96.7262 170.734 96.7322 170.746 96.7372 170.759C96.7402 170.767 96.7432 170.775 96.7452 170.783C96.7502 170.796 96.7562 170.808 96.7612 170.821C96.7642 170.829 96.7662 170.837 96.7692 170.844C96.7742 170.857 96.7812 170.869 96.7862 170.883C96.7892 170.89 96.7912 170.899 96.7942 170.906C96.7992 170.919 96.8052 170.931 96.8102 170.944C96.8132 170.952 96.8162 170.96 96.8182 170.968C96.8232 170.981 96.8292 170.993 96.8342 171.006C96.8372 171.014 96.8392 171.022 96.8422 171.029C96.8472 171.042 96.8532 171.054 96.8582 171.067C96.8612 171.075 96.8642 171.083 96.8662 171.091C96.8712 171.104 96.8782 171.116 96.8832 171.13C96.8862 171.137 96.8882 171.146 96.8912 171.153C96.8962 171.166 96.9022 171.178 96.9072 171.19C96.9102 171.198 96.9132 171.206 96.9162 171.214C96.9212 171.227 96.9282 171.239 96.9332 171.253C96.9362 171.26 96.9382 171.269 96.9412 171.276C96.9462 171.289 96.9522 171.301 96.9572 171.313C96.9602 171.321 96.9632 171.329 96.9662 171.337C96.9712 171.35 96.9782 171.362 96.9832 171.376C96.9862 171.383 96.9882 171.392 96.9912 171.399C96.9962 171.412 97.0022 171.424 97.0072 171.437C97.0102 171.445 97.0132 171.453 97.0152 171.461C97.0202 171.474 97.0262 171.486 97.0312 171.499C97.0342 171.507 97.0362 171.515 97.0392 171.522C97.0442 171.535 97.0512 171.547 97.0562 171.561C97.0592 171.568 97.0612 171.577 97.0642 171.584C97.0692 171.597 97.0752 171.609 97.0802 171.622C97.0832 171.63 97.0862 171.638 97.0882 171.646C97.0932 171.659 97.0992 171.671 97.1042 171.684C97.1072 171.692 97.1092 171.7 97.1122 171.707C97.1172 171.72 97.1232 171.732 97.1282 171.745C97.1312 171.753 97.1342 171.761 97.1362 171.769C97.1412 171.782 97.1482 171.794 97.1532 171.808C97.1562 171.815 97.1582 171.824 97.1612 171.831C97.1662 171.844 97.1722 171.856 97.1772 171.868C97.1802 171.876 97.1832 171.884 97.1862 171.892C97.1912 171.905 97.1982 171.917 97.2032 171.931C97.2062 171.938 97.2082 171.947 97.2112 171.954C97.2162 171.967 97.2222 171.979 97.2272 171.992C97.2302 172 97.2332 172.008 97.2352 172.016C97.2402 172.029 97.2462 172.041 97.2512 172.054C97.2542 172.062 97.2562 172.07 97.2592 172.077C97.2642 172.09 97.2702 172.102 97.2752 172.115C97.2782 172.123 97.2812 172.131 97.2832 172.139C97.2882 172.152 97.2942 172.164 97.2992 172.177C97.3022 172.185 97.3042 172.193 97.3072 172.2C97.3122 172.213 97.3192 172.225 97.3242 172.239C97.3272 172.246 97.3292 172.255 97.3322 172.262C97.3372 172.275 97.3432 172.287 97.3482 172.3C97.3512 172.308 97.3542 172.316 97.3562 172.324C97.3612 172.337 97.3672 172.349 97.3722 172.362C97.3752 172.37 97.3772 172.378 97.3802 172.385C97.3852 172.398 97.3912 172.41 97.3962 172.423C97.3992 172.431 97.4022 172.439 97.4042 172.447C97.4092 172.46 97.4162 172.472 97.4212 172.486C97.4242 172.493 97.4262 172.502 97.4292 172.509C97.4342 172.522 97.4402 172.534 97.4452 172.546C97.4482 172.554 97.4512 172.562 97.4542 172.57C97.4592 172.583 97.4662 172.595 97.4712 172.609C97.4742 172.616 97.4762 172.625 97.4792 172.632C97.4842 172.645 97.4902 172.657 97.4952 172.67C97.4982 172.678 97.5012 172.686 97.5032 172.694C97.5082 172.707 97.5142 172.719 97.5192 172.732C97.5222 172.74 97.5242 172.748 97.5272 172.755C97.5322 172.768 97.5382 172.78 97.5432 172.793C97.5462 172.801 97.5492 172.809 97.5512 172.817C97.5562 172.83 97.5632 172.842 97.5682 172.856C97.5712 172.863 97.5732 172.872 97.5762 172.879C97.5812 172.892 97.5872 172.904 97.5922 172.917C97.5952 172.925 97.5972 172.933 97.6002 172.94C97.6052 172.953 97.6112 172.965 97.6162 172.978C97.6192 172.986 97.6222 172.994 97.6242 173.002C97.6292 173.015 97.6352 173.027 97.6402 173.04C97.6432 173.048 97.6452 173.056 97.6482 173.063C97.6532 173.076 97.6592 173.088 97.6642 173.101C97.6672 173.109 97.6702 173.117 97.6722 173.125C97.6772 173.138 97.6842 173.15 97.6892 173.164C97.6922 173.171 97.6942 173.18 97.6972 173.187C97.7022 173.2 97.7082 173.212 97.7132 173.224C97.7162 173.232 97.7192 173.24 97.7222 173.248C97.7272 173.261 97.7342 173.273 97.7392 173.287C97.7422 173.294 97.7442 173.303 97.7472 173.31C97.7522 173.323 97.7582 173.335 97.7632 173.348C97.7662 173.356 97.7692 173.364 97.7712 173.372C99.6372 178.371 105.047 181.162 110.194 179.756C120.775 176.866 136.183 168.851 150.63 158.308C162.798 149.429 174.12 139.498 180.013 131.326C183.501 126.517 184.12 120.319 181.896 115.018Z" fill="#C4C685"/>
<path d="M178.031 126.328C182.296 120.414 182.255 112.402 177.919 106.54C171.827 98.3031 159.995 88.4141 146.914 79.6861C131.337 69.2931 115.05 63.8621 104.137 61.7661C98.8182 60.7441 93.6172 63.9961 92.1352 69.2051C88.3512 82.5061 85.9462 102.285 87.7932 124.775C89.1492 141.28 91.8202 157.745 95.7882 168.374C97.6542 173.373 103.064 176.164 108.211 174.758C118.792 171.868 134.2 163.853 148.647 153.31C160.815 144.431 172.138 134.5 178.031 126.328Z" fill="#FDFED2"/>
<defs>
<linearGradient id="paint0_linear_15_165" x1="123.374" y1="34.8632" x2="123.374" y2="214.35" gradientUnits="userSpaceOnUse">
<stop stop-color="#F9A000"/>
<stop offset="1" stop-color="#EE4200"/>
</linearGradient>
<linearGradient id="paint1_linear_15_165" x1="122.889" y1="41.5981" x2="122.889" y2="191.205" gradientUnits="userSpaceOnUse">
<stop stop-color="#FBBC00"/>
<stop offset="1" stop-color="#EF5F00"/>
</linearGradient>
<linearGradient id="paint2_linear_15_165" x1="137.18" y1="74.8948" x2="137.18" y2="186.589" gradientUnits="userSpaceOnUse">
<stop stop-color="#F88F00"/>
<stop offset="0.1987" stop-color="#F78A00"/>
<stop offset="0.4454" stop-color="#F67A00"/>
<stop offset="0.7174" stop-color="#F36100"/>
<stop offset="1" stop-color="#F03F00"/>
</linearGradient>
</defs>
</svg>
