<svg width="247" height="264" viewBox="0 0 247 264" fill="none" xmlns="http://www.w3.org/2000/svg">
<path opacity="0.2" d="M123.374 263.748C191.512 263.748 246.748 208.512 246.748 140.374C246.748 72.2364 191.512 17 123.374 17C55.2364 17 0 72.2364 0 140.374C0 208.512 55.2364 263.748 123.374 263.748Z" fill="black"/>
<path d="M123.374 246.748C191.512 246.748 246.748 191.512 246.748 123.374C246.748 55.2364 191.512 0 123.374 0C55.2364 0 0 55.2364 0 123.374C0 191.512 55.2364 246.748 123.374 246.748Z" fill="#FFECAD"/>
<path d="M123.374 232.348C183.559 232.348 232.348 183.559 232.348 123.374C232.348 63.1892 183.559 14.3999 123.374 14.3999C63.1892 14.3999 14.3999 63.1892 14.3999 123.374C14.3999 183.559 63.1892 232.348 123.374 232.348Z" fill="#FEFDD1"/>
<path d="M123.374 217.19C175.187 217.19 217.19 175.187 217.19 123.374C217.19 71.561 175.187 29.5581 123.374 29.5581C71.561 29.5581 29.5581 71.561 29.5581 123.374C29.5581 175.187 71.561 217.19 123.374 217.19Z" fill="#E4E3A3"/>
<path d="M123.374 213.563C173.184 213.563 213.563 173.184 213.563 123.374C213.563 73.5641 173.184 33.1851 123.374 33.1851C73.564 33.1851 33.1851 73.5641 33.1851 123.374C33.1851 173.184 73.564 213.563 123.374 213.563Z" fill="url(#paint0_linear_15_41)"/>
<path d="M201.953 96.0333C205.091 105.055 205.773 114.803 203.856 124.161C196.093 162.049 162.562 190.549 122.375 190.549C86.2881 190.549 55.5701 167.571 44.0561 135.457C40.6601 125.986 39.9311 115.784 42.0291 105.944C50.0401 68.3732 83.4171 40.1992 123.375 40.1992C159.737 40.1992 190.647 63.5283 201.953 96.0333Z" fill="url(#paint1_linear_15_41)"/>
<path d="M56.69 156.885C61.264 158.606 64.403 162.049 67.721 165.417C68.808 166.598 70.133 167.927 71.324 169.566C72.604 171.183 71.593 173.732 69.575 174.061C63.049 175.213 56.231 171.049 53.521 165.174C52.141 162.341 51.354 154.741 56.69 156.885Z" fill="#FFD6AF"/>
<path d="M161.689 181.864C168.593 178.623 184.132 171.544 191.132 172.682C193.554 173.076 194.92 175.641 193.947 177.893C192.134 182.088 184.707 190.846 155.547 203.369C155.547 203.369 128.768 215.369 128.136 203.369C128.135 202.639 128.247 201.566 128.894 200.59C128.894 200.59 157.866 183.658 161.689 181.864Z" fill="#EE6931"/>
<path d="M152.744 201.146C159.921 196.399 167.816 193.233 175.657 189.774C176.14 189.558 176.599 190.214 176.23 190.591C171.672 195.359 165.627 198.417 159.477 200.576C157.414 201.264 155.307 201.824 153.091 202.083C152.573 202.161 152.3 201.421 152.744 201.146Z" fill="#FF9B85"/>
<path d="M195.596 127.907L176.153 161.314C174.631 163.942 171.901 165.627 168.877 165.809C165.833 165.992 162.93 164.683 161.083 162.267L137.581 131.58C135.511 128.871 135.115 125.4 136.526 122.295C137.936 119.19 140.819 117.201 144.228 116.988L152.752 116.45C152.448 115.608 152.123 114.806 151.788 114.015C146.166 101.411 134.212 92.3998 120.614 90.5328L119.934 90.4718C118.422 90.3298 116.534 90.1568 115.195 90.2178L114.434 90.2078C113.744 90.1978 112.963 90.1978 112.455 90.2688L109.482 90.5728C109.035 90.6138 108.366 90.7558 107.777 90.8878C107.412 90.9688 107.067 91.0398 106.772 91.1008C105.97 91.2228 104.966 91.4758 104.225 91.7398L104.032 91.8008C102.347 92.1968 99.709 93.3638 98.836 93.7388L98.217 94.0028L97.669 94.2968C97.273 94.5298 96.796 94.7838 96.309 95.0478C95.487 95.4838 94.645 95.9308 94.046 96.3768L93.924 96.4678C91.905 97.7768 89.855 99.3798 88.282 100.852C87.998 101.146 87.409 101.725 86.882 102.232L86.202 102.902C85.451 103.734 84.741 104.607 83.99 105.52L83.412 106.23C83.24 106.474 82.844 107.062 82.448 107.651C82.012 108.29 81.575 108.94 81.362 109.244C81.21 109.518 80.966 109.954 80.753 110.36C80.581 110.675 80.428 110.959 80.327 111.141C79.606 112.298 79.109 113.495 78.582 114.774C78.349 115.332 78.105 115.9 77.851 116.469C77.12 118.742 76.38 121.157 75.953 123.583L75.923 123.735C75.832 124.07 75.75 124.577 75.73 124.912C75.7 125.287 75.639 125.754 75.578 126.282C75.466 127.216 75.284 128.789 75.314 129.347L75.324 129.459C75.324 129.956 75.314 130.788 75.304 131.529L75.294 132.655C75.304 133.183 75.416 134.319 75.517 135.324C75.588 135.994 75.649 136.633 75.69 137.1C75.812 137.648 75.934 138.277 76.055 138.927C76.319 140.307 76.613 141.88 76.999 142.905C77.101 143.199 77.243 143.697 77.385 144.194C77.497 144.61 77.618 145.036 77.689 145.249C77.78 145.462 78.054 146.142 78.349 146.852C78.664 147.633 78.998 148.466 79.151 148.851C79.811 150.16 80.521 151.56 81.292 152.93C81.678 153.498 82.144 154.219 82.591 154.919C82.906 155.406 83.21 155.873 83.464 156.259C83.687 156.553 84.205 157.193 84.702 157.812C85.199 158.431 85.686 159.03 85.94 159.355C87.056 160.583 88.152 161.719 89.177 162.744C89.705 163.17 90.334 163.728 90.963 164.266C91.41 164.662 91.856 165.047 92.231 165.372L92.667 165.676C94.382 166.894 96.523 168.406 98.258 169.289L98.451 169.401C99.242 169.919 100.328 170.396 101.374 170.852C101.861 171.075 102.348 171.288 102.795 171.501C106.844 173.257 111.502 174.383 117.367 175.012C119.569 175.256 121.091 177.031 121 179.244C120.909 181.446 119.255 183.09 117.053 183.161C116.606 183.171 116.16 183.181 115.683 183.202C114.668 183.222 113.593 183.253 112.537 183.253C111.329 183.253 110.142 183.212 109.117 183.091L108.386 183.04C107.331 182.959 106.133 182.878 105.149 182.685L101.354 181.965C100.502 181.823 99.426 181.498 98.472 181.204C98.107 181.092 97.751 180.991 97.437 180.899C96.29 180.605 94.758 180.087 93.571 179.58C91.135 178.728 88.304 177.205 86.021 175.978L85.25 175.562C84.55 175.105 83.647 174.507 82.784 173.928C82.185 173.532 81.597 173.137 81.11 172.822L80.988 172.731C79.456 171.564 77.903 170.316 76.259 168.905L76.127 168.773C75.863 168.509 75.163 167.819 74.453 167.119C73.641 166.327 72.829 165.516 72.566 165.242L72.495 165.171C71.937 164.511 71.227 163.649 70.547 162.827C70.09 162.269 69.644 161.731 69.268 161.285L69.197 161.204C67.228 158.566 65.168 155.278 63.697 152.396C63.179 151.513 62.682 150.336 62.246 149.291L61.942 148.57C61.09 146.896 60.43 144.653 59.852 142.684C59.629 141.933 59.416 141.223 59.213 140.594L59.152 140.361L58.36 136.413C58.076 135.398 57.954 134.16 57.853 133.074C57.823 132.729 57.792 132.394 57.752 132.09C57.722 131.633 57.671 131.217 57.63 130.781C57.528 129.776 57.407 128.64 57.427 127.696L57.447 123.576C57.417 122.642 57.559 121.374 57.691 120.248C57.732 119.883 57.762 119.548 57.792 119.243C57.944 116.97 58.441 114.737 58.929 112.576C59.061 111.977 59.193 111.379 59.325 110.78L59.355 110.638C60.522 106.64 61.943 102.895 63.566 99.4958C63.759 99.0998 64.266 98.1968 65.088 96.7558C65.555 95.9138 66.011 95.1218 66.164 94.8178L66.276 94.6248C67.494 92.7778 68.691 90.9818 69.98 89.2768L70.061 89.1748C70.497 88.6778 71.005 88.0588 71.532 87.4298C72.222 86.5878 72.943 85.7348 73.521 85.0758C73.896 84.6798 74.779 83.8278 75.987 82.6508C76.616 82.0418 77.184 81.4838 77.428 81.2508L77.56 81.1288C79.163 79.7898 80.878 78.3688 82.695 77.0288L82.807 76.9478C83.396 76.5828 84.096 76.1158 84.806 75.6488C85.699 75.0498 86.612 74.4518 87.343 73.9948C87.81 73.7208 88.814 73.2028 90.286 72.4528C91.118 72.0168 91.899 71.6208 92.224 71.4378L92.366 71.3668C94.426 70.4438 96.537 69.6218 98.516 68.8708L98.689 68.8098C99.166 68.6778 99.876 68.4648 100.597 68.2518C101.409 68.0078 102.231 67.7548 102.799 67.6028C103.966 67.1868 105.813 66.8618 107.457 66.5778C108.198 66.4458 108.888 66.3338 109.385 66.2228L109.507 66.1928C118.447 64.8228 127.773 65.4928 136.48 68.1308C157.841 74.3918 174.626 93.0138 178.776 114.801L187.168 114.273C190.578 114.05 193.683 115.663 195.479 118.565C197.27 121.463 197.311 124.954 195.596 127.907Z" fill="url(#paint2_linear_15_41)"/>
<path d="M196.849 113.258C196.837 111.639 196.38 110.024 195.474 108.56C193.678 105.658 190.573 104.044 187.163 104.267L178.771 104.795C174.621 83.0079 157.836 64.3859 136.475 58.1249C127.768 55.4869 118.442 54.8169 109.502 56.1869L109.38 56.2169C108.883 56.3289 108.193 56.4399 107.452 56.5719C105.808 56.8559 103.961 57.1809 102.794 57.5969C102.226 57.7489 101.404 58.0029 100.592 58.2459C99.8721 58.4589 99.1611 58.6719 98.6841 58.8039L98.5111 58.8649C96.5321 59.6159 94.4211 60.4379 92.3611 61.3609L92.2191 61.4319C91.8941 61.6149 91.1131 62.0099 90.2811 62.4469C88.8101 63.1979 87.8051 63.7149 87.3381 63.9889C86.6071 64.4459 85.6941 65.0439 84.8011 65.6429C84.0911 66.1099 83.3901 66.5769 82.8021 66.9419L82.6901 67.0229C80.8741 68.3619 79.1591 69.7829 77.5551 71.1229L77.4231 71.2449C77.1791 71.4779 76.6111 72.0369 75.9821 72.6449C74.7741 73.8219 73.8921 74.6749 73.5161 75.0699C72.9381 75.7299 72.2171 76.5819 71.5271 77.4239C70.9991 78.0529 70.4921 78.6719 70.0561 79.1689L69.9751 79.2699C68.6861 80.9749 67.4891 82.7709 66.2711 84.6179L66.1591 84.8109C66.0071 85.1149 65.5501 85.9069 65.0831 86.7489C64.2611 88.1899 63.7541 89.0929 63.5611 89.4889C61.9371 92.8879 60.5171 96.6329 59.3501 100.631L59.3201 100.773C59.1881 101.372 59.0561 101.97 58.9241 102.569C58.4371 104.73 57.9401 106.963 57.7871 109.236C57.7571 109.541 57.7261 109.875 57.6861 110.241C57.5541 111.367 57.4121 112.636 57.4421 113.569L57.4221 117.689C57.4221 117.696 57.4221 117.704 57.4221 117.711V117.764C57.4221 117.771 57.4221 117.778 57.4221 117.785V117.838C57.4221 117.845 57.4221 117.852 57.4221 117.859V117.912C57.4221 117.919 57.4221 117.926 57.4221 117.933V117.986C57.4221 117.993 57.4221 118 57.4221 118.007V118.06C57.4221 118.067 57.4221 118.074 57.4221 118.081V118.134C57.4221 118.141 57.4221 118.148 57.4221 118.155V118.208C57.4221 118.215 57.4221 118.222 57.4221 118.229V118.282C57.4221 118.289 57.4221 118.296 57.4221 118.303V118.356C57.4221 118.363 57.4221 118.37 57.4221 118.377V118.43C57.4221 118.437 57.4221 118.444 57.4221 118.451V118.504C57.4221 118.511 57.4221 118.518 57.4221 118.525V118.578C57.4221 118.585 57.4221 118.592 57.4221 118.599V118.652C57.4221 118.659 57.4221 118.666 57.4221 118.673V118.726C57.4221 118.733 57.4221 118.74 57.4221 118.747V118.8C57.4221 118.807 57.4221 118.814 57.4221 118.821V118.874C57.4221 118.881 57.4221 118.888 57.4221 118.895V118.948C57.4221 118.955 57.4221 118.962 57.4221 118.969V119.022C57.4221 119.029 57.4221 119.036 57.4221 119.043V119.096C57.4221 119.103 57.4221 119.11 57.4221 119.117V119.17C57.4221 119.177 57.4221 119.184 57.4221 119.191V119.244C57.4221 119.251 57.4221 119.258 57.4221 119.265V119.318C57.4221 119.325 57.4221 119.332 57.4221 119.339V119.392C57.4221 119.399 57.4221 119.406 57.4221 119.413V119.466C57.4221 119.473 57.4221 119.48 57.4221 119.487V119.54C57.4221 119.547 57.4221 119.554 57.4221 119.561V119.614C57.4221 119.621 57.4221 119.628 57.4221 119.635V119.688C57.4221 119.695 57.4221 119.702 57.4221 119.709V119.762C57.4221 119.769 57.4221 119.776 57.4221 119.783V119.836C57.4221 119.843 57.4221 119.85 57.4221 119.857V119.91C57.4221 119.917 57.4221 119.924 57.4221 119.931V119.984C57.4221 119.991 57.4221 119.998 57.4221 120.005V120.058C57.4221 120.065 57.4221 120.072 57.4221 120.079V120.132C57.4221 120.139 57.4221 120.146 57.4221 120.153V120.206C57.4221 120.213 57.4221 120.22 57.4221 120.227V120.28C57.4221 120.287 57.4221 120.294 57.4221 120.301V120.354C57.4221 120.361 57.4221 120.368 57.4221 120.375V120.428C57.4221 120.435 57.4221 120.442 57.4221 120.449V120.502C57.4221 120.509 57.4221 120.516 57.4221 120.523V120.576C57.4221 120.583 57.4221 120.59 57.4221 120.597V120.65C57.4221 120.657 57.4221 120.664 57.4221 120.671V120.724C57.4221 120.731 57.4221 120.738 57.4221 120.745V120.798C57.4221 120.805 57.4221 120.812 57.4221 120.819V120.872C57.4221 120.879 57.4221 120.886 57.4221 120.893V120.946C57.4221 120.953 57.4221 120.96 57.4221 120.967V121.02C57.4221 121.027 57.4221 121.034 57.4221 121.041V121.094C57.4221 121.101 57.4221 121.108 57.4221 121.115V121.168C57.4221 121.175 57.4221 121.182 57.4221 121.189V121.242C57.4221 121.249 57.4221 121.256 57.4221 121.263V121.316C57.4221 121.323 57.4221 121.33 57.4221 121.337V121.39C57.4221 121.397 57.4221 121.404 57.4221 121.411V121.464C57.4221 121.471 57.4221 121.478 57.4221 121.485V121.538C57.4221 121.545 57.4221 121.552 57.4221 121.559V121.612C57.4221 121.619 57.4221 121.626 57.4221 121.633V121.686C57.4221 121.693 57.4221 121.7 57.4221 121.707V121.76C57.4221 121.767 57.4221 121.774 57.4221 121.781V121.834C57.4221 121.841 57.4221 121.848 57.4221 121.855V121.908C57.4221 121.915 57.4221 121.922 57.4221 121.929V121.982C57.4221 121.989 57.4221 121.996 57.4221 122.003V122.056C57.4221 122.063 57.4221 122.07 57.4221 122.077V122.13C57.4221 122.137 57.4221 122.144 57.4221 122.151V122.204C57.4221 122.211 57.4221 122.218 57.4221 122.225V122.278C57.4221 122.285 57.4221 122.292 57.4221 122.299V122.352C57.4221 122.359 57.4221 122.366 57.4221 122.373V122.426C57.4221 122.433 57.4221 122.44 57.4221 122.447V122.5C57.4221 122.507 57.4221 122.514 57.4221 122.521V122.574C57.4221 122.581 57.4221 122.588 57.4221 122.595V122.648C57.4221 122.655 57.4221 122.662 57.4221 122.669V122.722C57.4221 122.729 57.4221 122.736 57.4221 122.743V122.796C57.4221 122.803 57.4221 122.81 57.4221 122.817V122.87C57.4221 122.877 57.4221 122.884 57.4221 122.891V122.944C57.4221 122.951 57.4221 122.958 57.4221 122.965V123.018C57.4221 123.025 57.4221 123.032 57.4221 123.039V123.092C57.4221 123.099 57.4221 123.106 57.4221 123.113V123.166C57.4221 123.173 57.4221 123.18 57.4221 123.187V123.24C57.4221 123.247 57.4221 123.254 57.4221 123.261V123.314C57.4221 123.321 57.4221 123.328 57.4221 123.335V123.388C57.4221 123.395 57.4221 123.402 57.4221 123.409V123.462C57.4221 123.469 57.4221 123.476 57.4221 123.483V123.536C57.4221 123.543 57.4221 123.55 57.4221 123.557V123.61C57.4221 123.617 57.4221 123.624 57.4221 123.631V123.684C57.4021 124.628 57.5231 125.764 57.6251 126.769C57.6661 127.205 57.7161 127.621 57.7471 128.078C57.7881 128.382 57.8181 128.717 57.8491 129.062C57.9501 130.148 58.0721 131.386 58.3561 132.401L59.1481 136.349L59.2091 136.582C59.4121 137.211 59.6251 137.921 59.8481 138.672C60.4261 140.641 61.0861 142.883 61.9381 144.558L62.2421 145.279C62.6781 146.324 63.1761 147.501 63.6931 148.384C65.1641 151.266 67.2241 154.554 69.1931 157.192L69.2641 157.273C69.6391 157.72 70.0861 158.257 70.5431 158.815C71.2231 159.637 71.9331 160.5 72.4911 161.159L72.5621 161.23C72.8261 161.504 73.6381 162.316 74.4501 163.107C75.1601 163.807 75.8611 164.497 76.1241 164.761L76.2561 164.893C77.9001 166.304 79.4531 167.552 80.9851 168.719L81.1071 168.81C81.5941 169.125 82.1831 169.52 82.7811 169.916C83.6441 170.494 84.5471 171.093 85.2471 171.55L86.0181 171.966C88.3011 173.194 91.1331 174.716 93.5681 175.568C94.7551 176.075 96.2881 176.593 97.4341 176.887C97.7491 176.978 98.1041 177.08 98.4691 177.191C99.4231 177.485 100.499 177.81 101.351 177.952L105.146 178.672C106.13 178.865 107.328 178.946 108.383 179.027L109.114 179.078C110.139 179.2 111.326 179.24 112.534 179.24C113.589 179.24 114.665 179.21 115.68 179.189C116.157 179.169 116.604 179.159 117.05 179.148C119.252 179.077 120.906 177.433 120.997 175.231C120.998 175.213 120.994 175.195 120.994 175.177C120.994 175.17 120.996 175.164 120.997 175.157C120.998 175.139 120.994 175.121 120.994 175.103C120.994 175.096 120.996 175.09 120.997 175.083C120.998 175.065 120.994 175.047 120.994 175.029C120.994 175.022 120.996 175.016 120.997 175.009C120.998 174.991 120.994 174.973 120.994 174.955C120.994 174.948 120.996 174.942 120.997 174.935C120.998 174.917 120.994 174.899 120.994 174.881C120.994 174.874 120.996 174.868 120.997 174.861C120.998 174.843 120.994 174.825 120.994 174.807C120.994 174.8 120.996 174.794 120.997 174.787C120.998 174.769 120.994 174.751 120.994 174.733C120.994 174.726 120.996 174.72 120.997 174.713C120.998 174.695 120.994 174.677 120.994 174.659C120.994 174.652 120.996 174.646 120.997 174.639C120.998 174.621 120.994 174.603 120.994 174.585C120.994 174.578 120.996 174.572 120.997 174.565C120.998 174.547 120.994 174.529 120.994 174.511C120.994 174.504 120.996 174.498 120.997 174.491C120.998 174.473 120.994 174.455 120.994 174.437C120.994 174.43 120.996 174.424 120.997 174.417C120.998 174.399 120.994 174.381 120.994 174.363C120.994 174.356 120.996 174.35 120.997 174.343C120.998 174.325 120.994 174.307 120.994 174.289C120.994 174.282 120.996 174.276 120.997 174.269C120.998 174.251 120.994 174.233 120.994 174.215C120.994 174.208 120.996 174.202 120.997 174.195C120.998 174.177 120.994 174.159 120.994 174.141C120.994 174.134 120.996 174.128 120.997 174.121C120.998 174.103 120.994 174.085 120.994 174.067C120.994 174.06 120.996 174.054 120.997 174.047C120.998 174.029 120.994 174.011 120.994 173.993C120.994 173.986 120.996 173.98 120.997 173.973C120.998 173.955 120.994 173.937 120.994 173.919C120.994 173.912 120.996 173.906 120.997 173.899C120.998 173.881 120.994 173.863 120.994 173.845C120.994 173.838 120.996 173.832 120.997 173.825C120.998 173.807 120.994 173.789 120.994 173.771C120.994 173.764 120.996 173.758 120.997 173.751C120.998 173.733 120.994 173.715 120.994 173.697C120.994 173.69 120.996 173.684 120.997 173.677C120.998 173.659 120.994 173.641 120.994 173.623C120.994 173.616 120.996 173.61 120.997 173.603C120.998 173.585 120.994 173.567 120.994 173.549C120.994 173.542 120.996 173.536 120.997 173.529C120.998 173.511 120.994 173.493 120.994 173.475C120.994 173.468 120.996 173.462 120.997 173.455C120.998 173.437 120.994 173.419 120.994 173.401C120.994 173.394 120.996 173.388 120.997 173.381C120.998 173.363 120.994 173.345 120.994 173.327C120.994 173.32 120.996 173.314 120.997 173.307C120.998 173.289 120.994 173.271 120.994 173.253C120.994 173.246 120.996 173.24 120.997 173.233C120.998 173.215 120.994 173.197 120.994 173.179C120.994 173.172 120.996 173.166 120.997 173.159C120.998 173.141 120.994 173.123 120.994 173.105C120.994 173.098 120.996 173.092 120.997 173.085C120.998 173.067 120.994 173.049 120.994 173.031C120.994 173.024 120.996 173.018 120.997 173.011C120.998 172.993 120.994 172.975 120.994 172.957C120.994 172.95 120.996 172.944 120.997 172.937C120.998 172.919 120.994 172.901 120.994 172.883C120.994 172.876 120.996 172.87 120.997 172.863C120.998 172.845 120.994 172.827 120.994 172.809C120.994 172.802 120.996 172.796 120.997 172.789C120.998 172.771 120.994 172.753 120.994 172.735C120.994 172.728 120.996 172.722 120.997 172.715C120.998 172.697 120.994 172.679 120.994 172.661C120.994 172.654 120.996 172.648 120.997 172.641C120.998 172.623 120.994 172.605 120.994 172.587C120.994 172.58 120.996 172.574 120.997 172.567C120.998 172.549 120.994 172.531 120.994 172.513C120.994 172.506 120.996 172.5 120.997 172.493C120.998 172.475 120.994 172.457 120.994 172.439C120.994 172.432 120.996 172.426 120.997 172.419C120.998 172.401 120.994 172.383 120.994 172.365C120.994 172.358 120.996 172.352 120.997 172.345C120.998 172.327 120.994 172.309 120.994 172.291C120.994 172.284 120.996 172.278 120.997 172.271C120.998 172.253 120.994 172.235 120.994 172.217C120.994 172.21 120.996 172.204 120.997 172.197C120.998 172.179 120.994 172.161 120.994 172.143C120.994 172.136 120.996 172.13 120.997 172.123C120.998 172.105 120.994 172.087 120.994 172.069C120.994 172.062 120.996 172.056 120.997 172.049C120.998 172.031 120.994 172.013 120.994 171.995C120.994 171.988 120.996 171.982 120.997 171.975C120.998 171.957 120.994 171.939 120.994 171.921C120.994 171.914 120.996 171.908 120.997 171.901C120.998 171.883 120.994 171.865 120.994 171.847C120.994 171.84 120.996 171.834 120.997 171.827C120.998 171.809 120.994 171.791 120.994 171.773C120.994 171.766 120.996 171.76 120.997 171.753C120.998 171.735 120.994 171.717 120.994 171.699C120.994 171.692 120.996 171.686 120.997 171.679C120.998 171.661 120.994 171.643 120.994 171.625C120.994 171.618 120.996 171.612 120.997 171.605C120.998 171.587 120.994 171.569 120.994 171.551C120.994 171.544 120.996 171.538 120.997 171.531C120.998 171.513 120.994 171.495 120.994 171.477C120.994 171.47 120.996 171.464 120.997 171.457C120.998 171.439 120.994 171.421 120.994 171.403C120.994 171.396 120.996 171.39 120.997 171.383C120.998 171.365 120.994 171.347 120.994 171.329C120.994 171.322 120.996 171.316 120.997 171.309C120.998 171.291 120.994 171.273 120.994 171.255C120.994 171.248 120.996 171.242 120.997 171.235C120.998 171.217 120.994 171.199 120.994 171.181C120.994 171.174 120.996 171.168 120.997 171.161C120.998 171.143 120.994 171.125 120.994 171.107C120.994 171.1 120.996 171.094 120.997 171.087C120.998 171.069 120.994 171.051 120.994 171.033C120.994 171.026 120.996 171.02 120.997 171.013C120.998 170.995 120.994 170.977 120.994 170.959C120.994 170.952 120.996 170.946 120.997 170.939C120.998 170.921 120.994 170.903 120.994 170.885C120.994 170.878 120.996 170.872 120.997 170.865C120.998 170.847 120.994 170.829 120.994 170.811C120.994 170.804 120.996 170.798 120.997 170.791C120.998 170.773 120.994 170.755 120.994 170.737C120.994 170.73 120.996 170.724 120.997 170.717C120.998 170.699 120.994 170.681 120.994 170.663C120.994 170.656 120.996 170.65 120.997 170.643C120.998 170.625 120.994 170.607 120.994 170.589C120.994 170.582 120.996 170.576 120.997 170.569C120.998 170.551 120.994 170.533 120.994 170.515C120.994 170.508 120.996 170.502 120.997 170.495C120.998 170.477 120.994 170.459 120.994 170.441C120.994 170.434 120.996 170.428 120.997 170.421C120.998 170.403 120.994 170.385 120.994 170.367C120.994 170.36 120.996 170.354 120.997 170.347C120.998 170.329 120.994 170.311 120.994 170.293C120.994 170.286 120.996 170.28 120.997 170.273C120.998 170.255 120.994 170.237 120.994 170.219C120.994 170.212 120.996 170.206 120.997 170.199C120.998 170.181 120.994 170.163 120.994 170.145C120.994 170.138 120.996 170.132 120.997 170.125C120.998 170.107 120.994 170.089 120.994 170.071C120.994 170.064 120.996 170.058 120.997 170.051C120.998 170.033 120.994 170.015 120.994 169.997C120.994 169.99 120.996 169.984 120.997 169.977C120.998 169.959 120.994 169.941 120.994 169.923C120.994 169.916 120.996 169.91 120.997 169.903C120.998 169.885 120.994 169.867 120.994 169.849C120.994 169.842 120.996 169.836 120.997 169.829C120.998 169.811 120.994 169.793 120.994 169.775C120.994 169.768 120.996 169.762 120.997 169.755C120.998 169.737 120.994 169.719 120.994 169.701C120.994 169.694 120.996 169.688 120.997 169.681C120.998 169.663 120.994 169.645 120.994 169.627C120.994 169.62 120.996 169.614 120.997 169.607C120.998 169.589 120.994 169.571 120.994 169.553C120.994 169.546 120.996 169.54 120.997 169.533C120.998 169.515 120.994 169.497 120.994 169.479C120.994 169.472 120.996 169.466 120.997 169.459C120.998 169.441 120.994 169.423 120.994 169.405C120.994 169.398 120.996 169.392 120.997 169.385C120.998 169.367 120.994 169.349 120.994 169.331C120.994 169.324 120.996 169.318 120.997 169.311C120.998 169.293 120.994 169.275 120.994 169.257C120.994 169.25 120.996 169.244 120.997 169.237C121.088 167.025 119.566 165.249 117.364 165.005C111.499 164.376 106.841 163.249 102.792 161.494C102.346 161.281 101.858 161.068 101.371 160.845C100.326 160.388 99.2401 159.911 98.4481 159.394L98.2551 159.282C96.5201 158.399 94.3791 156.887 92.6641 155.669L92.2281 155.365C91.8531 155.04 91.4061 154.655 90.9601 154.259C90.3311 153.721 89.7021 153.163 89.1741 152.737C88.1491 151.712 87.0531 150.576 85.9371 149.348C85.6831 149.023 85.1961 148.425 84.6991 147.806C84.2021 147.187 83.6841 146.548 83.4611 146.253C83.2071 145.867 82.9031 145.401 82.5881 144.913C82.1421 144.213 81.6751 143.492 81.2891 142.924C80.5181 141.554 79.8071 140.154 79.1481 138.845C78.9961 138.459 78.6611 137.627 78.3461 136.846C78.0521 136.136 77.7781 135.456 77.6861 135.243C77.6151 135.03 77.4931 134.604 77.3821 134.188C77.2401 133.691 77.0981 133.194 76.9961 132.899C76.6101 131.874 76.3161 130.301 76.0521 128.921C75.9301 128.272 75.8081 127.642 75.6871 127.094C75.6461 126.627 75.5851 125.988 75.5151 125.318C75.4711 124.881 75.4251 124.422 75.3871 123.996C75.4431 123.403 75.5191 122.756 75.5761 122.276C75.6371 121.748 75.6981 121.281 75.7281 120.906C75.7481 120.571 75.8301 120.064 75.9211 119.729L75.9511 119.577C76.3771 117.152 77.1181 114.736 77.8491 112.463C78.1031 111.895 78.3461 111.326 78.5801 110.768C79.1081 109.489 79.6051 108.292 80.3251 107.135C80.4261 106.952 80.5791 106.668 80.7511 106.354C80.9641 105.948 81.2081 105.512 81.3601 105.238C81.5731 104.934 82.0091 104.284 82.4461 103.645C82.8421 103.056 83.2381 102.468 83.4101 102.224L83.9881 101.514C84.7391 100.601 85.4491 99.7279 86.2001 98.8959L86.8801 98.2259C87.4081 97.7189 87.9961 97.1399 88.2801 96.8459C89.8531 95.3749 91.9031 93.7709 93.9221 92.4619L94.0441 92.3709C94.6431 91.9249 95.4851 91.4779 96.3071 91.0419C96.7941 90.7779 97.2711 90.5239 97.6671 90.2909L98.2151 89.9969L98.8341 89.7329C99.7071 89.3569 102.345 88.1899 104.03 87.7949L104.223 87.7339C104.964 87.4699 105.968 87.2159 106.77 87.0949C107.064 87.0339 107.409 86.9629 107.775 86.8819C108.364 86.7499 109.033 86.6079 109.48 86.5669L112.453 86.2629C112.96 86.1919 113.742 86.1919 114.432 86.2019L115.193 86.2119C116.533 86.1509 118.42 86.3239 119.932 86.4659L120.612 86.5269C132.951 88.2209 143.919 95.8099 150.048 106.615L144.226 106.982C140.816 107.195 137.934 109.184 136.524 112.289C135.988 113.469 135.716 114.703 135.694 115.927C135.693 115.952 135.694 115.976 135.694 116.001C135.693 116.026 135.694 116.05 135.694 116.075C135.693 116.1 135.694 116.124 135.694 116.149C135.693 116.174 135.694 116.198 135.694 116.223C135.693 116.248 135.694 116.272 135.694 116.297C135.693 116.322 135.694 116.346 135.694 116.371C135.693 116.396 135.694 116.42 135.694 116.445C135.693 116.47 135.694 116.494 135.694 116.519C135.693 116.544 135.694 116.568 135.694 116.593C135.693 116.618 135.694 116.642 135.694 116.667C135.693 116.692 135.694 116.716 135.694 116.741C135.693 116.766 135.694 116.79 135.694 116.815C135.693 116.84 135.694 116.864 135.694 116.889C135.693 116.914 135.694 116.938 135.694 116.963C135.693 116.988 135.694 117.012 135.694 117.037C135.693 117.062 135.694 117.086 135.694 117.111C135.693 117.136 135.694 117.16 135.694 117.185C135.693 117.21 135.694 117.234 135.694 117.259C135.693 117.284 135.694 117.308 135.694 117.333C135.693 117.358 135.694 117.382 135.694 117.407C135.693 117.432 135.694 117.456 135.694 117.481C135.693 117.506 135.694 117.53 135.694 117.555C135.693 117.58 135.694 117.604 135.694 117.629C135.693 117.654 135.694 117.678 135.694 117.703C135.693 117.728 135.694 117.752 135.694 117.777C135.693 117.802 135.694 117.826 135.694 117.851C135.693 117.876 135.694 117.9 135.694 117.925C135.693 117.95 135.694 117.974 135.694 117.999C135.693 118.024 135.694 118.048 135.694 118.073C135.693 118.098 135.694 118.122 135.694 118.147C135.693 118.172 135.694 118.196 135.694 118.221C135.693 118.246 135.694 118.27 135.694 118.295C135.693 118.32 135.694 118.344 135.694 118.369C135.693 118.394 135.694 118.418 135.694 118.443C135.693 118.468 135.694 118.492 135.694 118.517C135.693 118.542 135.694 118.566 135.694 118.591C135.693 118.616 135.694 118.64 135.694 118.665C135.693 118.69 135.694 118.714 135.694 118.739C135.693 118.764 135.694 118.788 135.694 118.813C135.693 118.838 135.694 118.862 135.694 118.887C135.693 118.912 135.694 118.936 135.694 118.961C135.693 118.986 135.694 119.01 135.694 119.035C135.693 119.06 135.694 119.084 135.694 119.109C135.693 119.134 135.694 119.158 135.694 119.183C135.693 119.208 135.694 119.232 135.694 119.257C135.693 119.282 135.694 119.306 135.694 119.331C135.693 119.356 135.694 119.38 135.694 119.405C135.693 119.43 135.694 119.454 135.694 119.479C135.693 119.504 135.694 119.528 135.694 119.553C135.693 119.578 135.694 119.602 135.694 119.627C135.693 119.652 135.694 119.676 135.694 119.701C135.693 119.726 135.694 119.75 135.694 119.775C135.693 119.8 135.694 119.824 135.694 119.849C135.693 119.874 135.694 119.898 135.694 119.923C135.693 119.948 135.694 119.972 135.694 119.997C135.693 120.022 135.694 120.046 135.694 120.071C135.693 120.096 135.694 120.12 135.694 120.145C135.693 120.17 135.694 120.194 135.694 120.219C135.693 120.244 135.694 120.268 135.694 120.293C135.693 120.318 135.694 120.342 135.694 120.367C135.693 120.392 135.694 120.416 135.694 120.441C135.693 120.466 135.694 120.49 135.694 120.515C135.693 120.54 135.694 120.564 135.694 120.589C135.693 120.614 135.694 120.638 135.694 120.663C135.693 120.688 135.694 120.712 135.694 120.737C135.693 120.762 135.694 120.786 135.694 120.811C135.693 120.836 135.694 120.86 135.694 120.885C135.693 120.91 135.694 120.934 135.694 120.959C135.693 120.984 135.694 121.008 135.694 121.033C135.693 121.058 135.694 121.082 135.694 121.107C135.693 121.132 135.694 121.156 135.694 121.181C135.693 121.206 135.694 121.23 135.694 121.255C135.693 121.28 135.694 121.304 135.694 121.329C135.693 121.354 135.694 121.378 135.694 121.403C135.693 121.428 135.694 121.452 135.694 121.477C135.693 121.502 135.694 121.526 135.694 121.551C135.693 121.576 135.694 121.6 135.694 121.625C135.693 121.65 135.694 121.674 135.694 121.699C135.693 121.724 135.694 121.748 135.694 121.773C135.693 121.798 135.694 121.822 135.694 121.847C135.642 123.868 136.28 125.868 137.579 127.569L161.081 158.256C162.928 160.671 165.83 161.98 168.875 161.798C171.899 161.615 174.629 159.931 176.151 157.303L195.594 123.896C196.457 122.41 196.873 120.788 196.847 119.174C196.847 119.149 196.847 119.125 196.847 119.1C196.847 119.075 196.847 119.051 196.847 119.026C196.847 119.001 196.847 118.977 196.847 118.952C196.847 118.927 196.847 118.903 196.847 118.878C196.847 118.853 196.847 118.829 196.847 118.804C196.847 118.779 196.847 118.755 196.847 118.73C196.847 118.705 196.847 118.681 196.847 118.656C196.847 118.631 196.847 118.607 196.847 118.582C196.847 118.557 196.847 118.533 196.847 118.508C196.847 118.483 196.847 118.459 196.847 118.434C196.847 118.409 196.847 118.385 196.847 118.36C196.847 118.335 196.847 118.311 196.847 118.286C196.847 118.261 196.847 118.237 196.847 118.212C196.847 118.187 196.847 118.163 196.847 118.138C196.847 118.113 196.847 118.089 196.847 118.064C196.847 118.039 196.847 118.015 196.847 117.99C196.847 117.965 196.847 117.941 196.847 117.916C196.847 117.891 196.847 117.867 196.847 117.842C196.847 117.817 196.847 117.793 196.847 117.768C196.847 117.743 196.847 117.719 196.847 117.694C196.847 117.669 196.847 117.645 196.847 117.62C196.847 117.595 196.847 117.571 196.847 117.546C196.847 117.521 196.847 117.497 196.847 117.472C196.847 117.447 196.847 117.423 196.847 117.398C196.847 117.373 196.847 117.349 196.847 117.324C196.847 117.299 196.847 117.275 196.847 117.25C196.847 117.225 196.847 117.201 196.847 117.176C196.847 117.151 196.847 117.127 196.847 117.102C196.847 117.077 196.847 117.053 196.847 117.028C196.847 117.003 196.847 116.979 196.847 116.954C196.847 116.929 196.847 116.905 196.847 116.88C196.847 116.855 196.847 116.831 196.847 116.806C196.847 116.781 196.847 116.757 196.847 116.732C196.847 116.707 196.847 116.683 196.847 116.658C196.847 116.633 196.847 116.609 196.847 116.584C196.847 116.559 196.847 116.535 196.847 116.51C196.847 116.485 196.847 116.461 196.847 116.436C196.847 116.411 196.847 116.387 196.847 116.362C196.847 116.337 196.847 116.313 196.847 116.288C196.847 116.263 196.847 116.239 196.847 116.214C196.847 116.189 196.847 116.165 196.847 116.14C196.847 116.115 196.847 116.091 196.847 116.066C196.847 116.041 196.847 116.017 196.847 115.992C196.847 115.967 196.847 115.943 196.847 115.918C196.847 115.893 196.847 115.869 196.847 115.844C196.847 115.819 196.847 115.795 196.847 115.77C196.847 115.745 196.847 115.721 196.847 115.696C196.847 115.671 196.847 115.647 196.847 115.622C196.847 115.597 196.847 115.573 196.847 115.548C196.847 115.523 196.847 115.499 196.847 115.474C196.847 115.449 196.847 115.425 196.847 115.4C196.847 115.375 196.847 115.351 196.847 115.326C196.847 115.301 196.847 115.277 196.847 115.252C196.847 115.227 196.847 115.203 196.847 115.178C196.847 115.153 196.847 115.129 196.847 115.104C196.847 115.079 196.847 115.055 196.847 115.03C196.847 115.005 196.847 114.981 196.847 114.956C196.847 114.931 196.847 114.907 196.847 114.882C196.847 114.857 196.847 114.833 196.847 114.808C196.847 114.783 196.847 114.759 196.847 114.734C196.847 114.709 196.847 114.685 196.847 114.66C196.847 114.635 196.847 114.611 196.847 114.586C196.847 114.561 196.847 114.537 196.847 114.512C196.847 114.487 196.847 114.463 196.847 114.438C196.847 114.413 196.847 114.389 196.847 114.364C196.847 114.339 196.847 114.315 196.847 114.29C196.847 114.265 196.847 114.241 196.847 114.216C196.847 114.191 196.847 114.167 196.847 114.142C196.847 114.117 196.847 114.093 196.847 114.068C196.847 114.043 196.847 114.019 196.847 113.994C196.847 113.969 196.847 113.945 196.847 113.92C196.847 113.895 196.847 113.871 196.847 113.846C196.847 113.821 196.847 113.797 196.847 113.772C196.847 113.747 196.847 113.723 196.847 113.698C196.847 113.673 196.847 113.649 196.847 113.624C196.847 113.599 196.847 113.575 196.847 113.55C196.847 113.525 196.847 113.501 196.847 113.476C196.847 113.451 196.847 113.427 196.847 113.402C196.847 113.377 196.847 113.353 196.847 113.328C196.849 113.308 196.85 113.283 196.849 113.258Z" fill="#C4C685"/>
<path d="M195.596 117.907L176.153 151.314C174.631 153.942 171.901 155.627 168.877 155.809C165.833 155.992 162.93 154.683 161.083 152.267L137.581 121.58C135.511 118.871 135.115 115.4 136.526 112.295C137.936 109.19 140.819 107.201 144.228 106.988L152.752 106.45C152.448 105.608 152.123 104.806 151.788 104.015C146.166 91.4108 134.212 82.3998 120.614 80.5328L119.934 80.4718C118.422 80.3298 116.534 80.1568 115.195 80.2178L114.434 80.2078C113.744 80.1978 112.963 80.1978 112.455 80.2688L109.482 80.5728C109.035 80.6138 108.366 80.7558 107.777 80.8878C107.412 80.9688 107.067 81.0398 106.772 81.1008C105.97 81.2228 104.966 81.4758 104.225 81.7398L104.032 81.8008C102.347 82.1968 99.709 83.3638 98.836 83.7388L98.217 84.0028L97.669 84.2968C97.273 84.5298 96.796 84.7838 96.309 85.0478C95.487 85.4838 94.645 85.9308 94.046 86.3768L93.924 86.4678C91.905 87.7768 89.855 89.3798 88.282 90.8518C87.998 91.1458 87.409 91.7248 86.882 92.2318L86.202 92.9018C85.451 93.7338 84.741 94.6068 83.99 95.5198L83.412 96.2298C83.24 96.4738 82.844 97.0618 82.448 97.6508C82.012 98.2898 81.575 98.9398 81.362 99.2438C81.21 99.5178 80.966 99.9538 80.753 100.36C80.581 100.675 80.428 100.959 80.327 101.141C79.606 102.298 79.109 103.495 78.582 104.774C78.349 105.332 78.105 105.9 77.851 106.469C77.12 108.742 76.38 111.157 75.953 113.583L75.923 113.735C75.832 114.07 75.75 114.577 75.73 114.912C75.7 115.287 75.639 115.754 75.578 116.282C75.466 117.216 75.284 118.789 75.314 119.347L75.324 119.459C75.324 119.956 75.314 120.788 75.304 121.529L75.294 122.655C75.304 123.183 75.416 124.319 75.517 125.324C75.588 125.994 75.649 126.633 75.69 127.1C75.812 127.648 75.934 128.277 76.055 128.927C76.319 130.307 76.613 131.88 76.999 132.905C77.101 133.199 77.243 133.697 77.385 134.194C77.497 134.61 77.618 135.036 77.689 135.249C77.78 135.462 78.054 136.142 78.349 136.852C78.664 137.633 78.998 138.466 79.151 138.851C79.811 140.16 80.521 141.56 81.292 142.93C81.678 143.498 82.144 144.219 82.591 144.919C82.906 145.406 83.21 145.873 83.464 146.259C83.687 146.553 84.205 147.193 84.702 147.812C85.199 148.431 85.686 149.03 85.94 149.355C87.056 150.583 88.152 151.719 89.177 152.744C89.705 153.17 90.334 153.728 90.963 154.266C91.41 154.662 91.856 155.047 92.231 155.372L92.667 155.676C94.382 156.894 96.523 158.406 98.258 159.289L98.451 159.401C99.242 159.919 100.328 160.396 101.374 160.852C101.861 161.075 102.348 161.288 102.795 161.501C106.844 163.257 111.502 164.383 117.367 165.012C119.569 165.256 121.091 167.031 121 169.244C120.909 171.446 119.255 173.09 117.053 173.161C116.606 173.171 116.16 173.181 115.683 173.202C114.668 173.222 113.593 173.253 112.537 173.253C111.329 173.253 110.142 173.212 109.117 173.091L108.386 173.04C107.331 172.959 106.133 172.878 105.149 172.685L101.354 171.965C100.502 171.823 99.426 171.498 98.472 171.204C98.107 171.092 97.751 170.991 97.437 170.899C96.29 170.605 94.758 170.087 93.571 169.58C91.135 168.728 88.304 167.205 86.021 165.978L85.25 165.562C84.55 165.105 83.647 164.507 82.784 163.928C82.185 163.532 81.597 163.137 81.11 162.822L80.988 162.731C79.456 161.564 77.903 160.316 76.259 158.905L76.127 158.773C75.863 158.509 75.163 157.819 74.453 157.119C73.641 156.327 72.829 155.516 72.566 155.242L72.495 155.171C71.937 154.511 71.227 153.649 70.547 152.827C70.09 152.269 69.644 151.731 69.268 151.285L69.197 151.204C67.228 148.566 65.168 145.278 63.697 142.396C63.179 141.513 62.682 140.336 62.246 139.291L61.942 138.57C61.09 136.896 60.43 134.653 59.852 132.684C59.629 131.933 59.416 131.223 59.213 130.594L59.152 130.361L58.36 126.413C58.076 125.398 57.954 124.16 57.853 123.074C57.823 122.729 57.792 122.394 57.752 122.09C57.722 121.633 57.671 121.217 57.63 120.781C57.528 119.776 57.407 118.64 57.427 117.696L57.447 113.576C57.417 112.642 57.559 111.374 57.691 110.248C57.732 109.883 57.762 109.548 57.792 109.243C57.944 106.97 58.441 104.737 58.929 102.576C59.061 101.977 59.193 101.379 59.325 100.78L59.355 100.638C60.522 96.6398 61.943 92.8948 63.566 89.4958C63.759 89.0998 64.266 88.1968 65.088 86.7558C65.555 85.9138 66.011 85.1218 66.164 84.8178L66.276 84.6248C67.494 82.7778 68.691 80.9818 69.98 79.2768L70.061 79.1748C70.497 78.6778 71.005 78.0588 71.532 77.4298C72.222 76.5878 72.943 75.7348 73.521 75.0758C73.896 74.6798 74.779 73.8278 75.987 72.6508C76.616 72.0418 77.184 71.4838 77.428 71.2508L77.56 71.1288C79.163 69.7898 80.878 68.3688 82.695 67.0288L82.807 66.9478C83.396 66.5828 84.096 66.1158 84.806 65.6488C85.699 65.0498 86.612 64.4518 87.343 63.9948C87.81 63.7208 88.814 63.2028 90.286 62.4528C91.118 62.0168 91.899 61.6208 92.224 61.4378L92.366 61.3668C94.426 60.4438 96.537 59.6218 98.516 58.8708L98.689 58.8098C99.166 58.6778 99.876 58.4648 100.597 58.2518C101.409 58.0078 102.231 57.7548 102.799 57.6028C103.966 57.1868 105.813 56.8618 107.457 56.5778C108.198 56.4458 108.888 56.3338 109.385 56.2228L109.507 56.1928C118.447 54.8228 127.773 55.4928 136.48 58.1308C157.841 64.3918 174.626 83.0138 178.776 104.801L187.168 104.273C190.578 104.05 193.683 105.663 195.479 108.565C197.27 111.463 197.311 114.954 195.596 117.907Z" fill="#FDFED2"/>
<defs>
<linearGradient id="paint0_linear_15_41" x1="123.374" y1="34.8636" x2="123.374" y2="214.351" gradientUnits="userSpaceOnUse">
<stop stop-color="#F9A000"/>
<stop offset="1" stop-color="#EE4200"/>
</linearGradient>
<linearGradient id="paint1_linear_15_41" x1="122.889" y1="41.5985" x2="122.889" y2="191.205" gradientUnits="userSpaceOnUse">
<stop stop-color="#FBBC00"/>
<stop offset="1" stop-color="#EF5F00"/>
</linearGradient>
<linearGradient id="paint2_linear_15_41" x1="127.137" y1="66.0844" x2="127.137" y2="193.871" gradientUnits="userSpaceOnUse">
<stop stop-color="#F88F00"/>
<stop offset="0.2049" stop-color="#F88A00"/>
<stop offset="0.4425" stop-color="#F67C00"/>
<stop offset="0.6965" stop-color="#F46500"/>
<stop offset="0.9601" stop-color="#F14500"/>
<stop offset="1" stop-color="#F03F00"/>
</linearGradient>
</defs>
</svg>
