<svg width="247" height="264" viewBox="0 0 247 264" fill="none" xmlns="http://www.w3.org/2000/svg">
<path opacity="0.2" d="M123.374 263.748C191.512 263.748 246.748 208.512 246.748 140.374C246.748 72.2364 191.512 17 123.374 17C55.2364 17 0 72.2364 0 140.374C0 208.512 55.2364 263.748 123.374 263.748Z" fill="black"/>
<path d="M123.374 246.748C191.512 246.748 246.748 191.512 246.748 123.374C246.748 55.2364 191.512 0 123.374 0C55.2364 0 0 55.2364 0 123.374C0 191.512 55.2364 246.748 123.374 246.748Z" fill="#FFECAD"/>
<path d="M232.348 123.374C232.348 183.558 183.559 232.348 123.374 232.348C63.1889 232.348 14.3999 183.558 14.3999 123.374C14.3999 63.1899 63.1889 14.3999 123.374 14.3999C183.559 14.3999 232.348 63.1889 232.348 123.374Z" fill="#FEFDD1"/>
<path d="M123.374 217.19C175.187 217.19 217.19 175.187 217.19 123.374C217.19 71.561 175.187 29.5581 123.374 29.5581C71.561 29.5581 29.5581 71.561 29.5581 123.374C29.5581 175.187 71.561 217.19 123.374 217.19Z" fill="#E4E3A3"/>
<path d="M123.374 213.563C173.184 213.563 213.563 173.184 213.563 123.374C213.563 73.5641 173.184 33.1851 123.374 33.1851C73.564 33.1851 33.1851 73.5641 33.1851 123.374C33.1851 173.184 73.564 213.563 123.374 213.563Z" fill="url(#paint0_linear_15_148)"/>
<path d="M201.954 96.0322C205.092 105.054 205.774 114.802 203.857 124.16C196.094 162.048 162.563 190.548 122.375 190.548C86.288 190.548 55.5701 167.57 44.0561 135.456C40.6601 125.985 39.9311 115.783 42.0291 105.943C50.0401 68.3723 83.417 40.1982 123.375 40.1982C159.737 40.1982 190.648 63.5272 201.954 96.0322Z" fill="url(#paint1_linear_15_148)"/>
<path d="M56.6912 156.884C61.2652 158.605 64.4042 162.048 67.7222 165.416C68.8092 166.597 70.1342 167.926 71.3252 169.565C72.6052 171.182 71.5942 173.731 69.5762 174.06C63.0502 175.212 56.2322 171.048 53.5222 165.173C52.1412 162.341 51.3542 154.741 56.6912 156.884Z" fill="#FFD6AF"/>
<path d="M161.69 181.863C168.594 178.622 184.133 171.543 191.133 172.681C193.555 173.075 194.921 175.64 193.948 177.892C192.135 182.087 184.708 190.845 155.548 203.368C155.548 203.368 128.769 215.368 128.137 203.368C128.136 202.638 128.248 201.565 128.895 200.589C128.895 200.589 157.867 183.658 161.69 181.863Z" fill="#EE6931"/>
<path d="M152.744 201.145C159.921 196.398 167.816 193.232 175.657 189.773C176.14 189.557 176.599 190.213 176.23 190.59C171.672 195.358 165.627 198.416 159.477 200.575C157.414 201.263 155.307 201.823 153.091 202.082C152.573 202.16 152.301 201.42 152.744 201.145Z" fill="#FF9B85"/>
<path d="M183.061 137.709L182.47 120.969C182.362 117.916 179.799 115.528 176.746 115.635L163.998 116.085C163.225 113.735 162.225 111.471 161.101 109.312L170.331 99.4058C172.414 97.1708 172.29 93.6698 170.055 91.5868L157.801 80.1688C155.566 78.0858 152.065 78.2098 149.982 80.4448L141.293 89.7698C139.107 88.6708 136.801 87.7817 134.45 87.0467L133.974 73.5337C133.866 70.4807 131.304 68.0927 128.25 68.1997L111.484 68.7918C108.431 68.8998 106.043 71.4618 106.15 74.5158L106.6 87.2638C104.25 88.0368 102.011 89.0358 99.8529 90.1598L89.9469 80.9298C87.7119 78.8468 84.2109 78.9708 82.1279 81.2058L70.7099 93.4598C68.6269 95.6948 68.7509 99.1958 70.9859 101.279L80.3109 109.968C79.2119 112.154 78.3229 114.46 77.5879 116.811L64.0489 117.289C60.9959 117.397 58.6079 119.96 58.7149 123.013L59.3069 139.779C59.4149 142.832 61.9779 145.22 65.0309 145.113L77.8039 144.662C78.5769 147.012 79.5509 149.252 80.6999 151.409L71.4699 161.315C69.3869 163.55 69.5109 167.051 71.7459 169.134L83.9999 180.552C86.2349 182.635 89.7359 182.511 91.8189 180.276L100.508 170.951C102.694 172.05 104.974 172.94 107.351 173.674L107.829 187.213C107.937 190.266 110.499 192.654 113.553 192.547L130.293 191.956C133.346 191.848 135.734 189.286 135.627 186.232L135.176 173.459C137.526 172.686 139.791 171.712 141.949 170.562L151.855 179.792C154.09 181.875 157.591 181.751 159.674 179.516L171.092 167.262C173.175 165.027 173.051 161.526 170.816 159.443L161.491 150.754C162.589 148.568 163.48 146.288 164.214 143.911L177.727 143.434C180.781 143.325 183.169 140.763 183.061 137.709ZM121.69 152.695C109.361 153.13 99.0019 143.477 98.5669 131.148C98.1319 118.819 107.785 108.46 120.114 108.025C132.443 107.59 142.802 117.243 143.237 129.572C143.671 141.901 134.019 152.26 121.69 152.695Z" fill="url(#paint2_linear_15_148)"/>
<path d="M184.008 132.677C184.013 132.648 184.016 132.619 184.02 132.59C184.025 132.561 184.028 132.532 184.032 132.504C184.037 132.475 184.04 132.446 184.044 132.418C184.049 132.39 184.052 132.361 184.056 132.332C184.061 132.303 184.064 132.274 184.068 132.245C184.073 132.216 184.076 132.187 184.08 132.159C184.085 132.131 184.088 132.102 184.092 132.073C184.097 132.044 184.1 132.015 184.104 131.986C184.109 131.957 184.112 131.928 184.116 131.9C184.121 131.871 184.124 131.842 184.128 131.814C184.133 131.786 184.136 131.757 184.14 131.728C184.145 131.699 184.148 131.67 184.152 131.641C184.157 131.612 184.16 131.583 184.164 131.555C184.169 131.526 184.172 131.497 184.176 131.469C184.181 131.441 184.184 131.412 184.188 131.383C184.193 131.354 184.196 131.325 184.201 131.296C184.206 131.267 184.209 131.238 184.213 131.21C184.218 131.182 184.221 131.153 184.225 131.124C184.23 131.095 184.233 131.066 184.237 131.037C184.242 131.008 184.245 130.979 184.249 130.951C184.254 130.922 184.257 130.893 184.261 130.865C184.266 130.837 184.269 130.808 184.273 130.779C184.278 130.75 184.281 130.721 184.286 130.692C184.291 130.663 184.294 130.634 184.298 130.606C184.303 130.577 184.306 130.548 184.31 130.52C184.315 130.492 184.318 130.463 184.322 130.434C184.327 130.405 184.33 130.376 184.335 130.347C184.34 130.318 184.343 130.289 184.347 130.261C184.352 130.233 184.355 130.204 184.359 130.175C184.364 130.146 184.367 130.117 184.372 130.088C184.377 130.059 184.38 130.03 184.384 130.002C184.389 129.973 184.392 129.944 184.396 129.916C184.401 129.888 184.404 129.859 184.408 129.83C184.413 129.801 184.416 129.772 184.421 129.743C184.426 129.714 184.429 129.685 184.433 129.657C184.438 129.628 184.441 129.599 184.445 129.571C184.45 129.543 184.453 129.514 184.457 129.485C184.462 129.456 184.465 129.427 184.469 129.398C184.474 129.369 184.477 129.34 184.481 129.312C184.486 129.284 184.489 129.255 184.493 129.226C184.498 129.197 184.501 129.168 184.506 129.139C184.511 129.11 184.514 129.081 184.518 129.053C184.523 129.024 184.526 128.995 184.53 128.967C184.535 128.939 184.538 128.91 184.542 128.881C184.547 128.852 184.55 128.823 184.554 128.794C184.559 128.765 184.562 128.736 184.566 128.708C184.571 128.679 184.574 128.65 184.578 128.622C184.583 128.594 184.586 128.565 184.59 128.536C184.595 128.507 184.598 128.478 184.602 128.449C184.607 128.42 184.61 128.391 184.614 128.363C184.619 128.335 184.622 128.306 184.626 128.277C184.631 128.248 184.634 128.219 184.638 128.19C184.643 128.161 184.646 128.132 184.65 128.104C184.655 128.075 184.658 128.046 184.662 128.018C184.667 127.99 184.67 127.961 184.674 127.932C184.679 127.903 184.682 127.874 184.686 127.845C184.691 127.816 184.694 127.787 184.698 127.759C184.703 127.73 184.706 127.701 184.71 127.673C184.715 127.645 184.718 127.616 184.722 127.587C184.727 127.558 184.73 127.529 184.735 127.5C184.74 127.471 184.743 127.442 184.747 127.414C184.752 127.386 184.755 127.357 184.759 127.328C184.764 127.299 184.767 127.27 184.771 127.241C184.776 127.212 184.779 127.183 184.783 127.155C184.788 127.126 184.791 127.097 184.795 127.069C184.8 127.041 184.803 127.012 184.807 126.983C184.812 126.954 184.815 126.925 184.82 126.896C184.825 126.867 184.828 126.838 184.832 126.81C184.837 126.781 184.84 126.752 184.844 126.724C184.849 126.696 184.852 126.667 184.856 126.638C184.861 126.609 184.864 126.58 184.869 126.551C184.874 126.522 184.877 126.493 184.881 126.465C184.886 126.436 184.889 126.407 184.893 126.379C184.898 126.351 184.901 126.322 184.905 126.293C184.91 126.264 184.913 126.235 184.917 126.206C184.922 126.177 184.925 126.148 184.929 126.12C184.934 126.092 184.937 126.063 184.941 126.034C184.946 126.005 184.949 125.976 184.954 125.947C184.959 125.918 184.962 125.889 184.966 125.861C185.03 125.492 185.058 125.11 185.044 124.721L184.453 107.981C184.345 104.928 181.782 102.54 178.729 102.647L165.981 103.097C165.667 102.141 165.306 101.203 164.924 100.277L171.315 93.4178C172.108 92.5658 172.577 91.5308 172.735 90.4598C172.74 90.4308 172.743 90.4028 172.747 90.3738C172.752 90.3448 172.755 90.3158 172.759 90.2868C172.764 90.2578 172.767 90.2298 172.771 90.2008C172.776 90.1718 172.779 90.1438 172.783 90.1148C172.788 90.0858 172.791 90.0578 172.795 90.0288C172.8 89.9998 172.803 89.9708 172.807 89.9418C172.812 89.9128 172.815 89.8848 172.819 89.8558C172.824 89.8268 172.827 89.7988 172.831 89.7698C172.836 89.7408 172.839 89.7128 172.843 89.6838C172.848 89.6548 172.851 89.6258 172.855 89.5968C172.86 89.5678 172.863 89.5398 172.867 89.5108C172.872 89.4818 172.875 89.4538 172.879 89.4248C172.884 89.3958 172.887 89.3667 172.891 89.3377C172.896 89.3087 172.899 89.2808 172.903 89.2518C172.908 89.2228 172.911 89.1948 172.915 89.1658C172.92 89.1368 172.923 89.1088 172.927 89.0798C172.932 89.0508 172.935 89.0217 172.939 88.9927C172.944 88.9637 172.947 88.9357 172.951 88.9067C172.956 88.8777 172.959 88.8498 172.963 88.8208C172.968 88.7918 172.971 88.7638 172.975 88.7348C172.98 88.7058 172.983 88.6767 172.987 88.6477C172.992 88.6187 172.995 88.5907 172.999 88.5617C173.004 88.5327 173.007 88.5047 173.011 88.4757C173.016 88.4467 173.019 88.4178 173.023 88.3888C173.028 88.3598 173.031 88.3318 173.035 88.3028C173.04 88.2738 173.043 88.2457 173.047 88.2167C173.052 88.1877 173.055 88.1597 173.059 88.1307C173.064 88.1017 173.067 88.0728 173.071 88.0438C173.076 88.0148 173.079 87.9868 173.083 87.9578C173.088 87.9288 173.091 87.9008 173.095 87.8718C173.1 87.8428 173.103 87.8147 173.107 87.7857C173.112 87.7567 173.115 87.7278 173.119 87.6988C173.124 87.6698 173.127 87.6418 173.131 87.6128C173.136 87.5838 173.139 87.5558 173.143 87.5268C173.148 87.4978 173.151 87.4688 173.155 87.4398C173.16 87.4108 173.163 87.3828 173.167 87.3538C173.172 87.3248 173.175 87.2968 173.179 87.2678C173.184 87.2388 173.187 87.2108 173.191 87.1818C173.196 87.1528 173.199 87.1238 173.203 87.0948C173.208 87.0658 173.211 87.0378 173.215 87.0088C173.22 86.9798 173.223 86.9518 173.227 86.9228C173.232 86.8938 173.235 86.8658 173.239 86.8368C173.244 86.8078 173.247 86.7788 173.251 86.7498C173.256 86.7208 173.259 86.6928 173.263 86.6638C173.268 86.6348 173.271 86.6068 173.275 86.5778C173.28 86.5488 173.283 86.5197 173.287 86.4907C173.292 86.4617 173.295 86.4338 173.299 86.4048C173.304 86.3758 173.307 86.3478 173.311 86.3188C173.316 86.2898 173.319 86.2618 173.323 86.2328C173.328 86.2038 173.331 86.1747 173.335 86.1457C173.34 86.1167 173.343 86.0887 173.347 86.0597C173.352 86.0307 173.355 86.0028 173.359 85.9738C173.364 85.9448 173.367 85.9168 173.371 85.8878C173.376 85.8588 173.379 85.8297 173.383 85.8007C173.388 85.7717 173.391 85.7437 173.395 85.7147C173.4 85.6857 173.403 85.6577 173.407 85.6287C173.412 85.5997 173.415 85.5708 173.419 85.5418C173.424 85.5128 173.427 85.4848 173.431 85.4558C173.436 85.4268 173.439 85.3987 173.443 85.3697C173.448 85.3407 173.451 85.3127 173.455 85.2837C173.46 85.2547 173.463 85.2258 173.467 85.1968C173.472 85.1678 173.475 85.1398 173.479 85.1108C173.484 85.0818 173.487 85.0538 173.491 85.0248C173.496 84.9958 173.499 84.9677 173.503 84.9387C173.508 84.9097 173.511 84.8808 173.515 84.8518C173.52 84.8228 173.523 84.7948 173.527 84.7658C173.532 84.7368 173.535 84.7088 173.539 84.6798C173.544 84.6508 173.547 84.6218 173.551 84.5928C173.556 84.5638 173.559 84.5358 173.563 84.5068C173.568 84.4778 173.571 84.4498 173.575 84.4208C173.58 84.3918 173.583 84.3638 173.587 84.3348C173.592 84.3058 173.595 84.2768 173.599 84.2478C173.604 84.2188 173.607 84.1908 173.611 84.1618C173.616 84.1328 173.619 84.1048 173.623 84.0758C173.628 84.0468 173.631 84.0188 173.635 83.9898C173.64 83.9608 173.643 83.9318 173.647 83.9028C173.652 83.8738 173.655 83.8458 173.659 83.8168C173.664 83.7878 173.667 83.7598 173.671 83.7308C173.676 83.7018 173.679 83.6727 173.683 83.6437C173.688 83.6147 173.691 83.5868 173.695 83.5578C173.985 81.7928 173.418 79.9208 172.011 78.6098L159.757 67.1918C157.522 65.1088 154.021 65.2328 151.938 67.4678L143.25 76.7928C141.064 75.6938 138.758 74.8048 136.406 74.0698L135.974 60.5337C135.866 57.4807 133.303 55.0927 130.25 55.1997L113.484 55.7918C110.79 55.8868 108.617 57.8938 108.216 60.4618C108.211 60.4908 108.208 60.5198 108.204 60.5478C108.199 60.5758 108.196 60.6048 108.192 60.6338C108.187 60.6628 108.184 60.6918 108.179 60.7208C108.174 60.7498 108.171 60.7788 108.167 60.8068C108.162 60.8358 108.159 60.8648 108.155 60.8928C108.15 60.9208 108.147 60.9498 108.143 60.9788C108.138 61.0078 108.135 61.0368 108.131 61.0658C108.126 61.0948 108.123 61.1238 108.119 61.1518C108.114 61.1798 108.111 61.2088 108.107 61.2378C108.102 61.2668 108.099 61.2957 108.094 61.3247C108.089 61.3537 108.086 61.3827 108.082 61.4107C108.077 61.4397 108.074 61.4688 108.07 61.4968C108.065 61.5248 108.062 61.5538 108.058 61.5828C108.053 61.6118 108.05 61.6408 108.046 61.6698C108.041 61.6988 108.038 61.7277 108.034 61.7557C108.029 61.7847 108.026 61.8137 108.022 61.8417C108.017 61.8697 108.014 61.8988 108.01 61.9278C108.005 61.9568 108.002 61.9858 107.998 62.0148C107.993 62.0438 107.99 62.0727 107.986 62.1007C107.981 62.1287 107.978 62.1577 107.974 62.1867C107.969 62.2157 107.966 62.2448 107.962 62.2738C107.957 62.3028 107.954 62.3318 107.95 62.3598C107.945 62.3888 107.942 62.4178 107.938 62.4458C107.933 62.4738 107.93 62.5027 107.926 62.5317C107.921 62.5607 107.918 62.5898 107.914 62.6188C107.909 62.6478 107.906 62.6768 107.902 62.7048C107.897 62.7338 107.894 62.7628 107.89 62.7908C107.885 62.8188 107.882 62.8478 107.878 62.8768C107.873 62.9058 107.87 62.9348 107.865 62.9638C107.86 62.9928 107.857 63.0218 107.853 63.0498C107.848 63.0778 107.845 63.1068 107.841 63.1358C107.836 63.1648 107.833 63.1938 107.829 63.2228C107.824 63.2518 107.821 63.2808 107.817 63.3088C107.812 63.3378 107.809 63.3668 107.805 63.3948C107.8 63.4228 107.797 63.4518 107.793 63.4808C107.788 63.5098 107.785 63.5388 107.78 63.5678C107.775 63.5968 107.772 63.6258 107.768 63.6538C107.763 63.6828 107.76 63.7118 107.756 63.7398C107.751 63.7678 107.748 63.7968 107.744 63.8258C107.739 63.8548 107.736 63.8838 107.731 63.9128C107.726 63.9418 107.723 63.9708 107.719 63.9988C107.714 64.0278 107.711 64.0568 107.707 64.0848C107.702 64.1128 107.699 64.1418 107.695 64.1708C107.69 64.1998 107.687 64.2287 107.683 64.2577C107.678 64.2867 107.675 64.3158 107.671 64.3438C107.666 64.3718 107.663 64.4008 107.659 64.4298C107.654 64.4588 107.651 64.4878 107.646 64.5168C107.641 64.5458 107.638 64.5747 107.634 64.6027C107.629 64.6317 107.626 64.6607 107.622 64.6887C107.617 64.7167 107.614 64.7458 107.61 64.7748C107.605 64.8038 107.602 64.8328 107.598 64.8618C107.593 64.8908 107.59 64.9198 107.586 64.9478C107.581 64.9768 107.578 65.0057 107.574 65.0337C107.569 65.0617 107.566 65.0907 107.562 65.1197C107.557 65.1487 107.554 65.1778 107.55 65.2068C107.545 65.2358 107.542 65.2648 107.538 65.2928C107.533 65.3208 107.53 65.3497 107.526 65.3787C107.521 65.4077 107.518 65.4368 107.514 65.4658C107.509 65.4948 107.506 65.5238 107.502 65.5518C107.497 65.5808 107.494 65.6098 107.49 65.6378C107.485 65.6658 107.482 65.6948 107.478 65.7238C107.473 65.7528 107.47 65.7818 107.466 65.8108C107.461 65.8398 107.458 65.8688 107.454 65.8968C107.449 65.9258 107.446 65.9548 107.442 65.9828C107.437 66.0108 107.434 66.0398 107.43 66.0688C107.425 66.0978 107.422 66.1268 107.417 66.1558C107.412 66.1848 107.409 66.2138 107.405 66.2418C107.4 66.2698 107.397 66.2988 107.393 66.3278C107.388 66.3568 107.385 66.3858 107.381 66.4148C107.376 66.4438 107.373 66.4728 107.369 66.5008C107.364 66.5298 107.361 66.5588 107.357 66.5868C107.352 66.6148 107.349 66.6438 107.345 66.6728C107.34 66.7018 107.337 66.7307 107.332 66.7597C107.327 66.7887 107.324 66.8178 107.32 66.8458C107.315 66.8748 107.312 66.9038 107.308 66.9318C107.303 66.9598 107.3 66.9888 107.296 67.0178C107.291 67.0468 107.288 67.0757 107.283 67.1047C107.278 67.1337 107.275 67.1628 107.271 67.1908C107.266 67.2188 107.263 67.2478 107.259 67.2768C107.254 67.3058 107.251 67.3348 107.246 67.3638C107.182 67.7328 107.155 68.1147 107.168 68.5037L107.386 74.6898C105.483 75.3898 103.647 76.2218 101.87 77.1468L91.964 67.9168C89.729 65.8338 86.2279 65.9578 84.1449 68.1928L72.727 80.4468C71.933 81.2988 71.465 82.3338 71.306 83.4048C71.301 83.4338 71.2979 83.4617 71.2939 83.4907C71.2889 83.5197 71.286 83.5477 71.282 83.5767C71.277 83.6057 71.2739 83.6348 71.2699 83.6638C71.2649 83.6928 71.2619 83.7208 71.2579 83.7498C71.2529 83.7788 71.25 83.8068 71.246 83.8358C71.241 83.8648 71.2379 83.8927 71.2339 83.9217C71.2289 83.9507 71.226 83.9798 71.222 84.0088C71.217 84.0378 71.2139 84.0658 71.2099 84.0948C71.2049 84.1238 71.2019 84.1518 71.1979 84.1808C71.1929 84.2098 71.19 84.2388 71.186 84.2678C71.181 84.2968 71.1779 84.3248 71.1739 84.3538C71.1689 84.3828 71.166 84.4108 71.162 84.4398C71.157 84.4688 71.154 84.4968 71.15 84.5258C71.145 84.5548 71.1419 84.5838 71.1379 84.6128C71.1329 84.6418 71.13 84.6698 71.126 84.6988C71.121 84.7278 71.1179 84.7558 71.1139 84.7848C71.1089 84.8138 71.106 84.8418 71.102 84.8708C71.097 84.8998 71.094 84.9288 71.09 84.9578C71.085 84.9868 71.0819 85.0148 71.0779 85.0438C71.0729 85.0728 71.07 85.1008 71.066 85.1298C71.061 85.1588 71.0579 85.1877 71.0539 85.2167C71.0489 85.2457 71.046 85.2738 71.042 85.3028C71.037 85.3318 71.034 85.3598 71.03 85.3888C71.025 85.4178 71.0219 85.4458 71.0179 85.4748C71.0129 85.5038 71.01 85.5327 71.006 85.5617C71.001 85.5907 70.9979 85.6187 70.9939 85.6477C70.9889 85.6767 70.9859 85.7048 70.9819 85.7338C70.9769 85.7628 70.974 85.7908 70.97 85.8198C70.965 85.8488 70.9619 85.8777 70.9579 85.9067C70.9529 85.9357 70.95 85.9637 70.946 85.9927C70.941 86.0217 70.9379 86.0497 70.9339 86.0787C70.9289 86.1077 70.9259 86.1368 70.9219 86.1658C70.9169 86.1948 70.914 86.2228 70.91 86.2518C70.905 86.2808 70.9019 86.3087 70.8979 86.3377C70.8929 86.3667 70.89 86.3947 70.886 86.4237C70.881 86.4527 70.878 86.4818 70.874 86.5108C70.869 86.5398 70.8659 86.5678 70.8619 86.5968C70.8569 86.6258 70.854 86.6538 70.85 86.6828C70.845 86.7118 70.8419 86.7397 70.8379 86.7687C70.8329 86.7977 70.83 86.8268 70.826 86.8558C70.821 86.8848 70.818 86.9128 70.814 86.9418C70.809 86.9708 70.8059 86.9988 70.8019 87.0278C70.7969 87.0568 70.794 87.0858 70.79 87.1148C70.785 87.1438 70.7819 87.1718 70.7779 87.2008C70.7729 87.2298 70.77 87.2578 70.766 87.2868C70.761 87.3158 70.758 87.3438 70.754 87.3728C70.749 87.4018 70.7459 87.4308 70.7419 87.4598C70.7369 87.4888 70.734 87.5168 70.73 87.5458C70.725 87.5748 70.7219 87.6028 70.7179 87.6318C70.7129 87.6608 70.7099 87.6888 70.7059 87.7178C70.7009 87.7468 70.698 87.7758 70.694 87.8048C70.689 87.8338 70.6859 87.8618 70.6819 87.8908C70.6769 87.9198 70.674 87.9478 70.67 87.9768C70.665 88.0058 70.6619 88.0347 70.6579 88.0637C70.6529 88.0927 70.6499 88.1208 70.6459 88.1498C70.6409 88.1788 70.638 88.2068 70.634 88.2358C70.629 88.2648 70.6259 88.2928 70.6219 88.3218C70.6169 88.3508 70.614 88.3797 70.61 88.4087C70.605 88.4377 70.6019 88.4657 70.5979 88.4947C70.5929 88.5237 70.5899 88.5518 70.5859 88.5808C70.5809 88.6098 70.578 88.6378 70.574 88.6668C70.569 88.6958 70.5659 88.7247 70.5619 88.7537C70.5569 88.7827 70.554 88.8107 70.55 88.8397C70.545 88.8687 70.542 88.8967 70.538 88.9257C70.533 88.9547 70.5299 88.9828 70.5259 89.0118C70.5209 89.0408 70.518 89.0698 70.514 89.0988C70.509 89.1278 70.5059 89.1557 70.5019 89.1847C70.4969 89.2137 70.494 89.2417 70.49 89.2707C70.485 89.2997 70.482 89.3288 70.478 89.3578C70.473 89.3868 70.4699 89.4148 70.4659 89.4438C70.4609 89.4728 70.458 89.5008 70.454 89.5298C70.449 89.5588 70.4459 89.5867 70.4419 89.6157C70.4369 89.6447 70.434 89.6738 70.43 89.7028C70.425 89.7318 70.422 89.7598 70.418 89.7888C70.413 89.8178 70.4099 89.8458 70.4059 89.8748C70.4009 89.9038 70.398 89.9318 70.394 89.9608C70.389 89.9898 70.3859 90.0188 70.3819 90.0478C70.3769 90.0768 70.3739 90.1048 70.3699 90.1338C70.3649 90.1628 70.362 90.1908 70.358 90.2198C70.353 90.2488 70.3499 90.2778 70.3459 90.3068C70.0559 92.0718 70.623 93.9438 72.03 95.2548L79.998 102.68C79.874 103.049 79.747 103.416 79.631 103.787L66.092 104.265C63.398 104.36 61.225 106.367 60.824 108.935C60.819 108.963 60.8159 108.992 60.8119 109.021C60.8069 109.05 60.8039 109.079 60.7989 109.108C60.7939 109.137 60.791 109.166 60.787 109.194C60.782 109.223 60.779 109.252 60.775 109.28C60.77 109.308 60.7669 109.337 60.7629 109.366C60.7579 109.395 60.755 109.424 60.751 109.453C60.746 109.482 60.7429 109.511 60.7389 109.539C60.7339 109.567 60.731 109.596 60.727 109.625C60.722 109.654 60.719 109.683 60.715 109.712C60.71 109.741 60.7069 109.77 60.7029 109.798C60.6979 109.827 60.695 109.856 60.691 109.884C60.686 109.912 60.6829 109.941 60.6789 109.97C60.6739 109.999 60.671 110.028 60.667 110.057C60.662 110.086 60.659 110.115 60.655 110.143C60.65 110.172 60.6469 110.201 60.6429 110.229C60.6379 110.257 60.635 110.286 60.631 110.315C60.626 110.344 60.6229 110.373 60.6189 110.402C60.6139 110.431 60.6109 110.46 60.6069 110.488C60.6019 110.516 60.599 110.545 60.595 110.574C60.59 110.603 60.5869 110.632 60.5829 110.661C60.5779 110.69 60.575 110.719 60.571 110.747C60.566 110.776 60.5629 110.805 60.5589 110.833C60.5539 110.861 60.5509 110.89 60.5469 110.919C60.5419 110.948 60.539 110.977 60.535 111.006C60.53 111.035 60.5269 111.064 60.5229 111.092C60.5179 111.121 60.515 111.15 60.511 111.178C60.506 111.206 60.503 111.235 60.499 111.264C60.494 111.293 60.4909 111.322 60.4859 111.351C60.4809 111.38 60.4779 111.409 60.4739 111.437C60.4689 111.465 60.466 111.494 60.462 111.523C60.457 111.552 60.4539 111.581 60.4499 111.61C60.4449 111.639 60.442 111.668 60.438 111.696C60.433 111.725 60.43 111.754 60.426 111.782C60.421 111.81 60.4179 111.839 60.4139 111.868C60.4089 111.897 60.4059 111.926 60.4009 111.955C60.3959 111.984 60.393 112.013 60.389 112.041C60.384 112.07 60.3809 112.099 60.3769 112.127C60.3719 112.155 60.369 112.184 60.365 112.213C60.36 112.242 60.357 112.271 60.353 112.3C60.348 112.329 60.3449 112.358 60.3409 112.386C60.3359 112.414 60.333 112.443 60.329 112.472C60.324 112.501 60.321 112.53 60.316 112.559C60.311 112.588 60.3079 112.617 60.3039 112.645C60.2989 112.674 60.296 112.703 60.292 112.731C60.287 112.759 60.284 112.788 60.28 112.817C60.275 112.846 60.272 112.875 60.267 112.904C60.262 112.933 60.2589 112.962 60.2549 112.99C60.2499 113.019 60.247 113.048 60.243 113.076C60.238 113.104 60.2349 113.133 60.2309 113.162C60.2259 113.191 60.2229 113.22 60.2189 113.249C60.2139 113.278 60.211 113.307 60.207 113.335C60.202 113.363 60.1989 113.392 60.1949 113.421C60.1899 113.45 60.1869 113.479 60.1819 113.508C60.1769 113.537 60.174 113.566 60.17 113.594C60.165 113.623 60.1619 113.652 60.1579 113.68C60.1529 113.708 60.1499 113.737 60.1459 113.766C60.1409 113.795 60.138 113.824 60.134 113.853C60.129 113.882 60.1259 113.911 60.1219 113.939C60.1169 113.968 60.114 113.997 60.11 114.025C60.105 114.053 60.1019 114.082 60.0979 114.111C60.0929 114.14 60.0899 114.169 60.0859 114.198C60.0809 114.227 60.078 114.256 60.074 114.284C60.069 114.312 60.0659 114.341 60.0619 114.37C60.0569 114.399 60.054 114.428 60.05 114.457C60.045 114.486 60.042 114.515 60.038 114.543C60.033 114.572 60.0299 114.601 60.0259 114.629C60.0209 114.657 60.018 114.686 60.014 114.715C60.009 114.744 60.0059 114.773 60.0019 114.802C59.9969 114.831 59.994 114.86 59.99 114.888C59.985 114.917 59.982 114.946 59.978 114.974C59.973 115.002 59.9699 115.031 59.9659 115.06C59.9609 115.089 59.9579 115.118 59.9529 115.147C59.9479 115.176 59.945 115.205 59.941 115.233C59.936 115.261 59.9329 115.29 59.9289 115.319C59.9239 115.348 59.921 115.377 59.917 115.406C59.912 115.435 59.909 115.464 59.905 115.492C59.9 115.521 59.8969 115.55 59.8929 115.578C59.8879 115.606 59.885 115.635 59.881 115.664C59.876 115.693 59.873 115.722 59.868 115.751C59.863 115.78 59.8599 115.809 59.8559 115.837C59.7919 116.206 59.7639 116.588 59.7779 116.977L60.3699 133.743C60.4779 136.796 63.0409 139.184 66.0939 139.077L78.8669 138.626C79.1809 139.58 79.5359 140.511 79.9139 141.431L73.5329 148.28C72.7389 149.132 72.2709 150.167 72.1119 151.238C72.1069 151.267 72.104 151.295 72.1 151.324C72.095 151.353 72.0919 151.382 72.0879 151.411C72.0829 151.44 72.08 151.468 72.076 151.497C72.071 151.526 72.068 151.554 72.064 151.583C72.059 151.612 72.0559 151.641 72.0519 151.67C72.0469 151.699 72.044 151.727 72.04 151.756C72.035 151.785 72.0319 151.813 72.0279 151.842C72.0229 151.871 72.02 151.899 72.016 151.928C72.011 151.957 72.008 151.986 72.004 152.015C71.999 152.044 71.9959 152.072 71.9919 152.101C71.9869 152.13 71.984 152.158 71.98 152.187C71.975 152.216 71.9719 152.244 71.9679 152.273C71.9629 152.302 71.9599 152.331 71.9559 152.36C71.9509 152.389 71.948 152.417 71.944 152.446C71.939 152.475 71.9359 152.503 71.9319 152.532C71.9269 152.561 71.924 152.59 71.92 152.619C71.915 152.648 71.9119 152.676 71.9079 152.705C71.9029 152.734 71.8999 152.762 71.8959 152.791C71.8909 152.82 71.888 152.848 71.884 152.877C71.879 152.906 71.8759 152.935 71.8719 152.964C71.8669 152.993 71.864 153.021 71.86 153.05C71.855 153.079 71.8519 153.107 71.8479 153.136C71.8429 153.165 71.8399 153.193 71.8359 153.222C71.8309 153.251 71.828 153.28 71.824 153.309C71.819 153.338 71.8159 153.366 71.8119 153.395C71.8069 153.424 71.804 153.452 71.8 153.481C71.795 153.51 71.792 153.539 71.788 153.568C71.783 153.597 71.7799 153.625 71.7759 153.654C71.7709 153.683 71.768 153.711 71.764 153.74C71.759 153.769 71.7559 153.797 71.7519 153.826C71.7469 153.855 71.744 153.884 71.74 153.913C71.735 153.942 71.732 153.97 71.728 153.999C71.723 154.028 71.7199 154.056 71.7159 154.085C71.7109 154.114 71.708 154.142 71.704 154.171C71.699 154.2 71.6959 154.229 71.6919 154.258C71.6869 154.287 71.684 154.315 71.68 154.344C71.675 154.373 71.672 154.401 71.668 154.43C71.663 154.459 71.6599 154.488 71.6559 154.517C71.6509 154.546 71.648 154.574 71.644 154.603C71.639 154.632 71.6359 154.66 71.6319 154.689C71.6269 154.718 71.6239 154.746 71.6199 154.775C71.6149 154.804 71.612 154.833 71.608 154.862C71.603 154.891 71.5999 154.919 71.5959 154.948C71.5909 154.977 71.588 155.005 71.584 155.034C71.579 155.063 71.5759 155.091 71.5719 155.12C71.5669 155.149 71.5639 155.178 71.5599 155.207C71.5549 155.236 71.552 155.264 71.548 155.293C71.543 155.322 71.5399 155.35 71.5359 155.379C71.5309 155.408 71.528 155.437 71.524 155.466C71.519 155.495 71.516 155.523 71.512 155.552C71.507 155.581 71.5039 155.609 71.4999 155.638C71.4949 155.667 71.492 155.695 71.488 155.724C71.483 155.753 71.4799 155.782 71.4759 155.811C71.4709 155.84 71.468 155.868 71.464 155.897C71.459 155.926 71.456 155.954 71.452 155.983C71.447 156.012 71.4439 156.04 71.4399 156.069C71.4349 156.098 71.432 156.127 71.428 156.156C71.423 156.185 71.4199 156.213 71.4159 156.242C71.4109 156.271 71.408 156.299 71.404 156.328C71.399 156.357 71.396 156.386 71.392 156.415C71.387 156.444 71.3839 156.472 71.3799 156.501C71.3749 156.53 71.372 156.558 71.368 156.587C71.363 156.616 71.3599 156.644 71.3559 156.673C71.3509 156.702 71.3479 156.731 71.3439 156.76C71.3389 156.789 71.336 156.817 71.332 156.846C71.327 156.875 71.3239 156.903 71.3199 156.932C71.3149 156.961 71.312 156.989 71.308 157.018C71.303 157.047 71.2999 157.076 71.2959 157.105C71.2909 157.134 71.2879 157.162 71.2839 157.191C71.2789 157.22 71.276 157.248 71.272 157.277C71.267 157.306 71.2639 157.335 71.2599 157.364C71.2549 157.393 71.252 157.421 71.248 157.45C71.243 157.479 71.2399 157.507 71.2359 157.536C71.2309 157.565 71.2279 157.593 71.2239 157.622C71.2189 157.651 71.216 157.68 71.212 157.709C71.207 157.738 71.2039 157.766 71.1999 157.795C71.1949 157.824 71.192 157.852 71.188 157.881C71.183 157.91 71.18 157.938 71.176 157.967C71.171 157.996 71.1679 158.025 71.1639 158.054C71.1589 158.083 71.156 158.111 71.152 158.14C70.862 159.905 71.4289 161.777 72.8359 163.088L85.09 174.506C87.325 176.589 90.8259 176.465 92.9089 174.23L101.598 164.906C103.784 166.005 106.064 166.895 108.441 167.629L108.919 181.168C109.027 184.221 111.59 186.609 114.643 186.502L131.383 185.911C134.077 185.816 136.25 183.809 136.651 181.241C136.656 181.212 136.659 181.183 136.663 181.155C136.668 181.127 136.671 181.098 136.675 181.069C136.68 181.04 136.683 181.011 136.687 180.982C136.692 180.953 136.695 180.924 136.699 180.896C136.704 180.868 136.707 180.839 136.711 180.81C136.716 180.781 136.719 180.752 136.724 180.723C136.729 180.694 136.732 180.665 136.736 180.637C136.741 180.608 136.744 180.579 136.748 180.551C136.753 180.523 136.756 180.494 136.76 180.465C136.765 180.436 136.768 180.407 136.772 180.378C136.777 180.349 136.78 180.32 136.784 180.292C136.789 180.263 136.792 180.234 136.796 180.206C136.801 180.178 136.804 180.149 136.808 180.12C136.813 180.091 136.816 180.062 136.82 180.033C136.825 180.004 136.828 179.975 136.832 179.947C136.837 179.919 136.84 179.89 136.844 179.861C136.849 179.832 136.852 179.803 136.856 179.774C136.861 179.745 136.864 179.716 136.868 179.688C136.873 179.659 136.876 179.63 136.88 179.602C136.885 179.574 136.888 179.545 136.892 179.516C136.897 179.487 136.9 179.458 136.904 179.429C136.909 179.4 136.912 179.371 136.916 179.343C136.921 179.314 136.924 179.285 136.928 179.257C136.933 179.229 136.936 179.2 136.94 179.171C136.945 179.142 136.948 179.113 136.953 179.084C136.958 179.055 136.961 179.026 136.965 178.998C136.97 178.97 136.973 178.941 136.977 178.912C136.982 178.883 136.985 178.854 136.989 178.825C136.994 178.796 136.997 178.767 137.001 178.739C137.006 178.71 137.009 178.681 137.013 178.653C137.018 178.625 137.021 178.596 137.025 178.567C137.03 178.538 137.033 178.509 137.038 178.48C137.043 178.451 137.046 178.422 137.05 178.394C137.055 178.365 137.058 178.336 137.062 178.308C137.067 178.28 137.07 178.251 137.074 178.222C137.079 178.193 137.082 178.164 137.087 178.135C137.092 178.106 137.095 178.077 137.099 178.049C137.104 178.021 137.107 177.992 137.111 177.963C137.116 177.934 137.119 177.905 137.124 177.876C137.129 177.847 137.132 177.818 137.136 177.79C137.141 177.761 137.144 177.732 137.148 177.704C137.153 177.676 137.156 177.647 137.16 177.618C137.165 177.589 137.168 177.56 137.173 177.531C137.178 177.502 137.181 177.473 137.185 177.445C137.19 177.416 137.193 177.387 137.197 177.359C137.202 177.331 137.205 177.302 137.209 177.273C137.214 177.244 137.217 177.215 137.221 177.186C137.226 177.157 137.229 177.128 137.233 177.1C137.238 177.072 137.241 177.043 137.245 177.014C137.25 176.985 137.253 176.956 137.257 176.927C137.262 176.898 137.265 176.869 137.269 176.841C137.274 176.812 137.277 176.783 137.281 176.755C137.286 176.727 137.289 176.698 137.293 176.669C137.298 176.64 137.301 176.611 137.305 176.582C137.31 176.553 137.313 176.524 137.317 176.496C137.322 176.467 137.325 176.438 137.329 176.41C137.334 176.382 137.337 176.353 137.341 176.324C137.346 176.295 137.349 176.266 137.353 176.237C137.358 176.208 137.361 176.179 137.365 176.151C137.37 176.123 137.373 176.094 137.377 176.065C137.382 176.036 137.385 176.007 137.389 175.978C137.394 175.949 137.397 175.92 137.401 175.892C137.406 175.863 137.409 175.834 137.413 175.806C137.418 175.778 137.421 175.749 137.425 175.72C137.43 175.691 137.433 175.662 137.437 175.633C137.442 175.604 137.445 175.575 137.449 175.547C137.454 175.518 137.457 175.489 137.461 175.461C137.466 175.433 137.469 175.404 137.473 175.375C137.478 175.346 137.481 175.317 137.486 175.288C137.491 175.259 137.494 175.23 137.498 175.202C137.503 175.173 137.506 175.144 137.51 175.116C137.515 175.088 137.518 175.059 137.522 175.03C137.527 175.001 137.53 174.972 137.535 174.943C137.54 174.914 137.543 174.885 137.547 174.857C137.552 174.829 137.555 174.8 137.559 174.771C137.564 174.742 137.567 174.713 137.572 174.684C137.577 174.655 137.58 174.626 137.584 174.598C137.589 174.569 137.592 174.54 137.596 174.512C137.601 174.484 137.604 174.455 137.608 174.426C137.613 174.397 137.616 174.368 137.62 174.339C137.684 173.97 137.712 173.588 137.698 173.199L137.479 166.991C139.389 166.296 141.243 165.476 143.02 164.529L152.926 173.759C155.161 175.842 158.662 175.718 160.745 173.483L172.163 161.229C172.956 160.377 173.425 159.342 173.583 158.272C173.588 158.243 173.591 158.214 173.595 158.185C173.6 158.156 173.603 158.128 173.607 158.099C173.612 158.07 173.615 158.042 173.619 158.013C173.624 157.984 173.627 157.955 173.631 157.926C173.636 157.897 173.639 157.869 173.643 157.84C173.648 157.811 173.651 157.783 173.655 157.754C173.66 157.725 173.663 157.697 173.667 157.668C173.672 157.639 173.675 157.61 173.679 157.581C173.684 157.552 173.687 157.524 173.691 157.495C173.696 157.466 173.699 157.438 173.703 157.409C173.708 157.38 173.711 157.352 173.715 157.323C173.72 157.294 173.723 157.265 173.727 157.236C173.732 157.207 173.735 157.179 173.739 157.15C173.744 157.121 173.747 157.093 173.751 157.064C173.756 157.035 173.759 157.006 173.763 156.977C173.768 156.948 173.771 156.92 173.775 156.891C173.78 156.862 173.783 156.834 173.787 156.805C173.792 156.776 173.795 156.748 173.799 156.719C173.804 156.69 173.807 156.661 173.811 156.632C173.816 156.603 173.819 156.575 173.823 156.546C173.828 156.517 173.831 156.489 173.835 156.46C173.84 156.431 173.843 156.403 173.847 156.374C173.852 156.345 173.855 156.316 173.859 156.287C173.864 156.258 173.867 156.23 173.871 156.201C173.876 156.172 173.879 156.144 173.883 156.115C173.888 156.086 173.891 156.057 173.895 156.028C173.9 155.999 173.903 155.971 173.907 155.942C173.912 155.913 173.915 155.885 173.919 155.856C173.924 155.827 173.927 155.799 173.931 155.77C173.936 155.741 173.939 155.712 173.943 155.683C173.948 155.654 173.951 155.626 173.955 155.597C173.96 155.568 173.963 155.54 173.967 155.511C173.972 155.482 173.975 155.454 173.979 155.425C173.984 155.396 173.987 155.367 173.991 155.338C173.996 155.309 173.999 155.281 174.003 155.252C174.008 155.223 174.011 155.195 174.015 155.166C174.02 155.137 174.023 155.109 174.027 155.08C174.032 155.051 174.035 155.022 174.039 154.993C174.044 154.964 174.047 154.936 174.051 154.907C174.056 154.878 174.059 154.85 174.063 154.821C174.068 154.792 174.071 154.763 174.075 154.734C174.08 154.705 174.083 154.677 174.087 154.648C174.092 154.619 174.095 154.591 174.099 154.562C174.104 154.533 174.107 154.505 174.111 154.476C174.116 154.447 174.119 154.418 174.123 154.389C174.128 154.36 174.131 154.332 174.135 154.303C174.14 154.274 174.143 154.246 174.147 154.217C174.152 154.188 174.155 154.16 174.159 154.131C174.164 154.102 174.167 154.073 174.171 154.044C174.176 154.015 174.179 153.987 174.183 153.958C174.188 153.929 174.191 153.901 174.195 153.872C174.2 153.843 174.203 153.814 174.207 153.785C174.212 153.756 174.215 153.728 174.219 153.699C174.224 153.67 174.227 153.642 174.231 153.613C174.236 153.584 174.239 153.556 174.243 153.527C174.248 153.498 174.251 153.469 174.255 153.44C174.26 153.411 174.263 153.383 174.267 153.354C174.272 153.325 174.275 153.297 174.279 153.268C174.284 153.239 174.287 153.211 174.291 153.182C174.296 153.153 174.299 153.124 174.303 153.095C174.308 153.066 174.311 153.038 174.315 153.009C174.32 152.98 174.323 152.952 174.327 152.923C174.332 152.894 174.335 152.865 174.339 152.836C174.344 152.807 174.347 152.779 174.351 152.75C174.356 152.721 174.359 152.693 174.363 152.664C174.368 152.635 174.371 152.607 174.375 152.578C174.38 152.549 174.383 152.52 174.387 152.491C174.392 152.462 174.395 152.434 174.399 152.405C174.404 152.376 174.407 152.348 174.411 152.319C174.416 152.29 174.419 152.262 174.423 152.233C174.428 152.204 174.431 152.175 174.435 152.146C174.44 152.117 174.443 152.089 174.447 152.06C174.452 152.031 174.455 152.003 174.459 151.974C174.464 151.945 174.467 151.916 174.471 151.887C174.476 151.858 174.479 151.83 174.483 151.801C174.488 151.772 174.491 151.744 174.495 151.715C174.5 151.686 174.503 151.658 174.507 151.629C174.512 151.6 174.515 151.571 174.519 151.542C174.524 151.513 174.527 151.485 174.531 151.456C174.536 151.427 174.539 151.399 174.543 151.37C174.833 149.605 174.266 147.733 172.859 146.422L164.893 138.999C165.016 138.63 165.143 138.264 165.258 137.89L178.771 137.413C181.465 137.318 183.638 135.311 184.039 132.743C184 132.734 184.003 132.705 184.008 132.677ZM123.69 139.695C111.361 140.13 101.002 130.477 100.567 118.148C100.562 118.005 100.565 117.864 100.563 117.721C103.307 108.91 111.373 102.368 121.114 102.025C133.443 101.59 143.802 111.243 144.237 123.572C144.242 123.715 144.239 123.857 144.241 123.999C141.496 132.81 133.431 139.351 123.69 139.695Z" fill="#C7C97E"/>
<path d="M185.061 124.709L184.47 107.969C184.362 104.916 181.799 102.528 178.746 102.635L165.998 103.085C165.225 100.735 164.225 98.4707 163.101 96.3117L172.331 86.4058C174.414 84.1708 174.29 80.6698 172.055 78.5868L159.801 67.1688C157.566 65.0858 154.065 65.2098 151.982 67.4448L143.293 76.7698C141.107 75.6708 138.801 74.7817 136.45 74.0467L135.974 60.5337C135.866 57.4807 133.304 55.0927 130.25 55.1997L113.484 55.7918C110.431 55.8998 108.043 58.4618 108.15 61.5158L108.6 74.2638C106.25 75.0368 104.011 76.0358 101.853 77.1598L91.9469 67.9298C89.7119 65.8468 86.2109 65.9708 84.1279 68.2058L72.7099 80.4598C70.6269 82.6948 70.7509 86.1958 72.9859 88.2788L82.3109 96.9678C81.2119 99.1538 80.3229 101.46 79.5879 103.811L66.0489 104.289C62.9959 104.397 60.6079 106.959 60.7149 110.013L61.3069 126.779C61.4149 129.832 63.9779 132.22 67.0309 132.113L79.8039 131.662C80.5769 134.012 81.5509 136.252 82.6999 138.409L73.4699 148.315C71.3869 150.55 71.5109 154.051 73.7459 156.134L85.9999 167.552C88.2349 169.635 91.7359 169.511 93.8189 167.276L102.508 157.951C104.694 159.05 106.974 159.94 109.351 160.674L109.829 174.213C109.937 177.266 112.499 179.654 115.553 179.547L132.293 178.956C135.346 178.848 137.734 176.286 137.627 173.232L137.176 160.459C139.526 159.686 141.791 158.712 143.949 157.562L153.855 166.792C156.09 168.875 159.591 168.751 161.674 166.516L173.092 154.262C175.175 152.027 175.051 148.526 172.816 146.443L163.491 137.754C164.589 135.568 165.48 133.288 166.214 130.911L179.727 130.434C182.781 130.325 185.169 127.763 185.061 124.709ZM123.69 139.695C111.361 140.13 101.002 130.477 100.567 118.148C100.132 105.819 109.785 95.4598 122.114 95.0248C134.443 94.5898 144.802 104.243 145.237 116.572C145.671 128.901 136.019 139.26 123.69 139.695Z" fill="#FDFED2"/>
<defs>
<linearGradient id="paint0_linear_15_148" x1="123.374" y1="34.8632" x2="123.374" y2="214.35" gradientUnits="userSpaceOnUse">
<stop stop-color="#F9A000"/>
<stop offset="1" stop-color="#EE4200"/>
</linearGradient>
<linearGradient id="paint1_linear_15_148" x1="122.889" y1="41.5979" x2="122.889" y2="191.205" gradientUnits="userSpaceOnUse">
<stop stop-color="#FBBC00"/>
<stop offset="1" stop-color="#EF5F00"/>
</linearGradient>
<linearGradient id="paint2_linear_15_148" x1="120.888" y1="70.7154" x2="120.888" y2="203.695" gradientUnits="userSpaceOnUse">
<stop stop-color="#F88F00"/>
<stop offset="0.2049" stop-color="#F88A00"/>
<stop offset="0.4425" stop-color="#F67C00"/>
<stop offset="0.6965" stop-color="#F46500"/>
<stop offset="0.9601" stop-color="#F14500"/>
<stop offset="1" stop-color="#F03F00"/>
</linearGradient>
</defs>
</svg>
