<svg width="247" height="264" viewBox="0 0 247 264" fill="none" xmlns="http://www.w3.org/2000/svg">
<path opacity="0.2" d="M123.374 263.748C191.512 263.748 246.748 208.512 246.748 140.374C246.748 72.2364 191.512 17 123.374 17C55.2364 17 0 72.2364 0 140.374C0 208.512 55.2364 263.748 123.374 263.748Z" fill="black"/>
<path d="M123.374 246.748C191.512 246.748 246.748 191.512 246.748 123.374C246.748 55.2364 191.512 0 123.374 0C55.2364 0 0 55.2364 0 123.374C0 191.512 55.2364 246.748 123.374 246.748Z" fill="#FFECAD"/>
<path d="M123.374 232.348C183.559 232.348 232.348 183.559 232.348 123.374C232.348 63.1893 183.559 14.3999 123.374 14.3999C63.1892 14.3999 14.3999 63.1893 14.3999 123.374C14.3999 183.559 63.1892 232.348 123.374 232.348Z" fill="#FEFDD1"/>
<path d="M123.374 217.19C175.187 217.19 217.19 175.187 217.19 123.374C217.19 71.561 175.187 29.5581 123.374 29.5581C71.561 29.5581 29.5581 71.561 29.5581 123.374C29.5581 175.187 71.561 217.19 123.374 217.19Z" fill="#E4E3A3"/>
<path d="M123.374 213.563C173.184 213.563 213.563 173.184 213.563 123.374C213.563 73.5641 173.184 33.1851 123.374 33.1851C73.564 33.1851 33.1851 73.5641 33.1851 123.374C33.1851 173.184 73.564 213.563 123.374 213.563Z" fill="url(#paint0_linear_16_603)"/>
<path d="M201.954 96.0332C205.092 105.055 205.774 114.803 203.857 124.161C196.094 162.049 162.563 190.549 122.376 190.549C86.2891 190.549 55.571 167.571 44.057 135.457C40.661 125.986 39.9321 115.784 42.0301 105.944C50.0411 68.3732 83.4181 40.1992 123.376 40.1992C159.737 40.1992 190.648 63.5282 201.954 96.0332Z" fill="url(#paint1_linear_16_603)"/>
<path d="M56.6912 156.885C61.2652 158.606 64.4042 162.049 67.7222 165.417C68.8092 166.598 70.1342 167.927 71.3252 169.566C72.6052 171.183 71.5942 173.732 69.5762 174.061C63.0502 175.213 56.2322 171.049 53.5222 165.174C52.1412 162.341 51.3542 154.742 56.6912 156.885Z" fill="#FFD6AF"/>
<path d="M160.112 135.963C158.163 108.968 150.225 91.7548 146.094 84.4448C142.837 78.6818 135.67 76.3698 129.677 79.1818C113.525 86.7598 97.2872 118.997 97.2872 118.997C97.2872 118.997 69.5242 117.786 70.0062 136.207C70.0062 136.207 70.1992 148.365 75.5392 155.708C77.3802 158.239 80.2202 159.865 83.3252 160.255C86.0422 160.596 88.9192 160.871 91.9432 161.049C97.4832 161.375 102.593 161.32 107.18 161.053C111.089 164.174 115.553 167.295 120.425 170.528C126.908 174.83 134.729 179.51 141.381 182.026C144.078 183.046 146.941 183.592 149.824 183.502C153.678 183.382 158.318 182.156 158.984 177.091C159.731 170.856 160.284 164.025 160.49 156.672C160.698 149.227 160.521 142.296 160.112 135.963Z" fill="url(#paint2_linear_16_603)"/>
<path d="M160.867 149.228C160.947 147.65 161.007 146.035 161.056 144.404C161.064 144.161 161.078 143.928 161.085 143.684C161.148 141.443 161.172 139.255 161.169 137.109C161.167 133.676 161.087 130.367 160.938 127.194C160.873 125.762 160.797 124.352 160.708 122.975C160.614 121.666 160.501 120.388 160.379 119.125C159.205 106.582 156.712 96.3081 154.025 88.3291C151.417 80.5241 148.633 74.8941 146.69 71.4571C143.433 65.6941 136.266 63.3831 130.273 66.1941C114.121 73.7721 97.8833 106.009 97.8833 106.009C97.8833 106.009 71.7562 104.872 70.6362 121.623C70.6342 121.655 70.6342 121.689 70.6312 121.722C70.6292 121.754 70.6292 121.788 70.6262 121.821C70.6242 121.853 70.6243 121.887 70.6213 121.92C70.6193 121.952 70.6193 121.986 70.6163 122.019C70.6143 122.051 70.6143 122.085 70.6113 122.118C70.6093 122.15 70.6093 122.184 70.6063 122.217C70.6043 122.249 70.6043 122.283 70.6013 122.316C70.5993 122.348 70.5993 122.382 70.5963 122.415C70.5943 122.447 70.5943 122.481 70.5913 122.514C70.5893 122.546 70.5893 122.58 70.5863 122.613C70.5843 122.645 70.5843 122.679 70.5813 122.712C70.5793 122.744 70.5792 122.778 70.5762 122.811C70.5742 122.843 70.5742 122.877 70.5712 122.91C70.5692 122.942 70.5692 122.976 70.5662 123.009C70.5642 123.041 70.5643 123.075 70.5613 123.108C70.5593 123.14 70.5593 123.174 70.5563 123.207C70.5543 123.239 70.5543 123.273 70.5513 123.306C70.5493 123.338 70.5493 123.372 70.5463 123.405C70.5443 123.437 70.5443 123.471 70.5413 123.504C70.5393 123.536 70.5393 123.57 70.5363 123.603C70.5343 123.635 70.5343 123.669 70.5313 123.702C70.5293 123.734 70.5293 123.768 70.5263 123.801C70.5243 123.833 70.5243 123.867 70.5213 123.9C70.5193 123.932 70.5192 123.966 70.5162 123.999C70.5142 124.031 70.5142 124.065 70.5112 124.098C70.5092 124.13 70.5092 124.164 70.5062 124.197C70.5042 124.229 70.5042 124.263 70.5012 124.296C70.4992 124.328 70.4993 124.362 70.4963 124.395C70.4943 124.427 70.4943 124.461 70.4913 124.494C70.4893 124.526 70.4893 124.56 70.4863 124.593C70.4843 124.625 70.4843 124.659 70.4813 124.692C70.4793 124.724 70.4793 124.758 70.4763 124.791C70.4743 124.823 70.4743 124.857 70.4713 124.89C70.4693 124.922 70.4693 124.956 70.4663 124.989C70.4643 125.021 70.4643 125.055 70.4613 125.088C70.4593 125.12 70.4593 125.154 70.4563 125.187C70.4543 125.219 70.4542 125.253 70.4512 125.286C70.4492 125.318 70.4492 125.352 70.4462 125.385C70.4442 125.417 70.4442 125.451 70.4412 125.484C70.4392 125.516 70.4393 125.55 70.4363 125.583C70.4343 125.615 70.4343 125.649 70.4313 125.682C70.4293 125.714 70.4293 125.748 70.4263 125.781C70.4243 125.813 70.4243 125.847 70.4213 125.88C70.4193 125.912 70.4193 125.946 70.4163 125.979C70.4143 126.011 70.4143 126.045 70.4113 126.078C70.4093 126.11 70.4093 126.144 70.4063 126.177C70.4043 126.209 70.4043 126.243 70.4013 126.276C70.3993 126.308 70.3993 126.342 70.3963 126.375C70.3943 126.407 70.3942 126.441 70.3912 126.474C70.3892 126.506 70.3892 126.54 70.3862 126.573C70.3842 126.605 70.3842 126.639 70.3812 126.672C70.3792 126.704 70.3792 126.738 70.3762 126.771C70.3742 126.803 70.3743 126.837 70.3713 126.87C70.3693 126.902 70.3693 126.936 70.3663 126.969C70.3643 127.001 70.3643 127.035 70.3613 127.068C70.3593 127.1 70.3593 127.134 70.3563 127.167C70.3543 127.199 70.3543 127.233 70.3513 127.266C70.3493 127.298 70.3493 127.332 70.3463 127.365C70.3443 127.397 70.3443 127.431 70.3413 127.464C70.3393 127.496 70.3393 127.53 70.3363 127.563C70.3343 127.595 70.3343 127.629 70.3313 127.662C70.3293 127.694 70.3292 127.728 70.3262 127.761C70.3242 127.793 70.3242 127.827 70.3212 127.86C70.3192 127.892 70.3192 127.926 70.3162 127.959C70.3142 127.991 70.3143 128.025 70.3113 128.058C70.3093 128.09 70.3093 128.124 70.3063 128.157C70.3043 128.189 70.3043 128.223 70.3013 128.256C70.2993 128.288 70.2993 128.322 70.2963 128.355C70.2943 128.387 70.2943 128.421 70.2913 128.454C70.2893 128.486 70.2893 128.52 70.2863 128.553C70.2843 128.585 70.2843 128.619 70.2813 128.652C70.2793 128.684 70.2793 128.718 70.2763 128.751C70.2743 128.783 70.2743 128.817 70.2713 128.85C70.2693 128.882 70.2692 128.916 70.2662 128.949C70.2642 128.981 70.2642 129.015 70.2612 129.048C70.2592 129.08 70.2592 129.114 70.2562 129.147C70.2542 129.179 70.2542 129.213 70.2512 129.246C70.2492 129.278 70.2493 129.312 70.2463 129.345C70.2443 129.377 70.2443 129.411 70.2413 129.444C70.2393 129.476 70.2393 129.51 70.2363 129.543C70.1963 130.089 70.1823 130.652 70.1973 131.237C70.1973 131.237 70.3912 143.395 75.7302 150.738C77.5712 153.269 80.4112 154.895 83.5162 155.285C86.2332 155.627 89.1103 155.901 92.1343 156.079C97.6743 156.405 102.784 156.35 107.371 156.083C111.28 159.204 115.744 162.325 120.616 165.558C127.099 169.86 134.92 174.54 141.572 177.056C144.27 178.076 147.132 178.622 150.015 178.532C153.869 178.412 158.509 177.186 159.175 172.121C159.255 171.451 159.324 170.747 159.399 170.064C159.873 165.928 160.244 161.566 160.476 156.95C160.478 156.917 160.479 156.884 160.481 156.851C160.483 156.818 160.484 156.785 160.486 156.752C160.488 156.719 160.489 156.686 160.491 156.653C160.493 156.62 160.494 156.587 160.496 156.554C160.498 156.521 160.499 156.488 160.501 156.455C160.503 156.422 160.504 156.389 160.506 156.356C160.508 156.323 160.509 156.29 160.511 156.257C160.513 156.224 160.514 156.191 160.516 156.158C160.518 156.125 160.519 156.092 160.521 156.059C160.523 156.026 160.524 155.993 160.526 155.96C160.528 155.927 160.529 155.894 160.531 155.861C160.533 155.828 160.534 155.795 160.536 155.762C160.538 155.729 160.539 155.696 160.541 155.663C160.543 155.63 160.544 155.597 160.546 155.564C160.548 155.531 160.549 155.498 160.551 155.465C160.553 155.432 160.554 155.399 160.556 155.366C160.558 155.333 160.559 155.3 160.561 155.267C160.563 155.234 160.564 155.201 160.566 155.168C160.568 155.135 160.569 155.102 160.571 155.069C160.573 155.036 160.574 155.003 160.576 154.97C160.578 154.937 160.579 154.904 160.581 154.871C160.583 154.838 160.584 154.805 160.586 154.772C160.588 154.739 160.589 154.706 160.591 154.673C160.593 154.64 160.594 154.607 160.596 154.574C160.598 154.541 160.599 154.508 160.601 154.475C160.603 154.442 160.604 154.409 160.606 154.376C160.608 154.343 160.609 154.31 160.611 154.277C160.613 154.244 160.614 154.211 160.616 154.178C160.618 154.145 160.619 154.112 160.621 154.079C160.623 154.046 160.624 154.013 160.626 153.98C160.628 153.947 160.629 153.914 160.631 153.881C160.633 153.848 160.634 153.815 160.636 153.782C160.638 153.749 160.639 153.716 160.641 153.683C160.643 153.65 160.644 153.617 160.646 153.584C160.648 153.551 160.649 153.518 160.651 153.485C160.653 153.452 160.654 153.419 160.656 153.386C160.658 153.353 160.659 153.32 160.661 153.287C160.663 153.254 160.664 153.221 160.666 153.188C160.668 153.155 160.669 153.122 160.671 153.089C160.673 153.056 160.674 153.023 160.676 152.99C160.678 152.957 160.679 152.924 160.681 152.891C160.683 152.858 160.684 152.825 160.686 152.792C160.688 152.759 160.689 152.726 160.691 152.693C160.693 152.66 160.694 152.627 160.696 152.594C160.698 152.561 160.699 152.528 160.701 152.495C160.703 152.462 160.704 152.429 160.706 152.396C160.708 152.363 160.709 152.33 160.711 152.297C160.713 152.264 160.714 152.231 160.716 152.198C160.718 152.165 160.719 152.132 160.721 152.099C160.723 152.066 160.724 152.033 160.726 152C160.728 151.967 160.729 151.934 160.731 151.901C160.733 151.868 160.734 151.835 160.736 151.802C160.738 151.769 160.739 151.736 160.741 151.703C160.743 151.67 160.744 151.637 160.746 151.604C160.748 151.571 160.749 151.538 160.751 151.505C160.753 151.472 160.754 151.439 160.756 151.406C160.758 151.373 160.759 151.34 160.761 151.307C160.763 151.274 160.764 151.241 160.766 151.208C160.768 151.175 160.769 151.142 160.771 151.109C160.773 151.076 160.774 151.043 160.776 151.01C160.778 150.977 160.779 150.944 160.781 150.911C160.783 150.878 160.784 150.845 160.786 150.812C160.788 150.779 160.789 150.746 160.791 150.713C160.793 150.68 160.794 150.647 160.796 150.614C160.798 150.581 160.799 150.548 160.801 150.515C160.803 150.482 160.804 150.449 160.806 150.416C160.808 150.383 160.809 150.35 160.811 150.317C160.813 150.284 160.814 150.251 160.816 150.218C160.818 150.185 160.819 150.152 160.821 150.119C160.823 150.086 160.824 150.053 160.826 150.02C160.828 149.987 160.829 149.954 160.831 149.921C160.833 149.888 160.834 149.855 160.836 149.822C160.838 149.789 160.839 149.756 160.841 149.723C160.843 149.69 160.844 149.657 160.846 149.624C160.848 149.591 160.849 149.558 160.851 149.525C160.853 149.492 160.854 149.459 160.856 149.426C160.858 149.393 160.859 149.36 160.861 149.327C160.865 149.294 160.866 149.261 160.867 149.228Z" fill="#C7C97E"/>
<path d="M160.708 122.977C158.759 95.982 150.821 78.769 146.69 71.459C143.433 65.696 136.266 63.384 130.273 66.196C114.121 73.774 97.8834 106.011 97.8834 106.011C97.8834 106.011 70.1204 104.8 70.6024 123.221C70.6024 123.221 70.7964 135.379 76.1354 142.722C77.9764 145.253 80.8164 146.879 83.9214 147.269C86.6384 147.61 89.5154 147.885 92.5394 148.063C98.0794 148.389 103.189 148.334 107.776 148.067C111.685 151.188 116.149 154.309 121.021 157.542C127.504 161.844 135.325 166.524 141.977 169.04C144.674 170.06 147.537 170.606 150.42 170.516C154.274 170.396 158.914 169.17 159.58 164.105C160.327 157.87 160.88 151.039 161.086 143.686C161.294 136.241 161.117 129.31 160.708 122.977Z" fill="#F80000"/>
<path d="M72 63L185 176" stroke="#FDFED2" stroke-width="16"/>
<defs>
<linearGradient id="paint0_linear_16_603" x1="123.374" y1="34.864" x2="123.374" y2="214.351" gradientUnits="userSpaceOnUse">
<stop stop-color="#F9A000"/>
<stop offset="1" stop-color="#EE4200"/>
</linearGradient>
<linearGradient id="paint1_linear_16_603" x1="122.889" y1="41.5989" x2="122.889" y2="191.206" gradientUnits="userSpaceOnUse">
<stop stop-color="#FBBC00"/>
<stop offset="1" stop-color="#EF5F00"/>
</linearGradient>
<linearGradient id="paint2_linear_16_603" x1="118.797" y1="68.8576" x2="113.437" y2="185.777" gradientUnits="userSpaceOnUse">
<stop stop-color="#EA8614"/>
<stop offset="0.6623" stop-color="#EB5B0B"/>
<stop offset="1" stop-color="#EC4406"/>
</linearGradient>
</defs>
</svg>
