<svg width="247" height="264" viewBox="0 0 247 264" fill="none" xmlns="http://www.w3.org/2000/svg">
<path opacity="0.2" d="M123.374 263.748C191.512 263.748 246.748 208.512 246.748 140.374C246.748 72.2364 191.512 17 123.374 17C55.2364 17 0 72.2364 0 140.374C0 208.512 55.2364 263.748 123.374 263.748Z" fill="black"/>
<path d="M123.374 246.748C191.512 246.748 246.748 191.512 246.748 123.374C246.748 55.2364 191.512 0 123.374 0C55.2364 0 0 55.2364 0 123.374C0 191.512 55.2364 246.748 123.374 246.748Z" fill="#FFECAD"/>
<path d="M123.374 232.348C183.559 232.348 232.348 183.559 232.348 123.374C232.348 63.1893 183.559 14.3999 123.374 14.3999C63.1892 14.3999 14.3999 63.1893 14.3999 123.374C14.3999 183.559 63.1892 232.348 123.374 232.348Z" fill="#FEFDD1"/>
<path d="M123.374 217.19C175.187 217.19 217.19 175.187 217.19 123.374C217.19 71.561 175.187 29.5581 123.374 29.5581C71.561 29.5581 29.5581 71.561 29.5581 123.374C29.5581 175.187 71.561 217.19 123.374 217.19Z" fill="#E4E3A3"/>
<path d="M123.374 213.563C173.184 213.563 213.563 173.184 213.563 123.374C213.563 73.5641 173.184 33.1851 123.374 33.1851C73.564 33.1851 33.1851 73.5641 33.1851 123.374C33.1851 173.184 73.564 213.563 123.374 213.563Z" fill="url(#paint0_linear_15_75)"/>
<path d="M201.954 96.0332C205.092 105.055 205.774 114.803 203.857 124.161C196.094 162.049 162.563 190.549 122.376 190.549C86.2891 190.549 55.571 167.571 44.057 135.457C40.661 125.986 39.9321 115.784 42.0301 105.944C50.0411 68.3732 83.4181 40.1992 123.376 40.1992C159.737 40.1992 190.648 63.5282 201.954 96.0332Z" fill="url(#paint1_linear_15_75)"/>
<path d="M56.6912 156.885C61.2652 158.606 64.4042 162.049 67.7222 165.417C68.8092 166.598 70.1342 167.927 71.3252 169.566C72.6052 171.183 71.5942 173.732 69.5762 174.061C63.0502 175.213 56.2322 171.049 53.5222 165.174C52.1412 162.341 51.3542 154.742 56.6912 156.885Z" fill="#FFD6AF"/>
<path d="M161.69 181.864C168.594 178.623 184.133 171.544 191.133 172.682C193.555 173.076 194.921 175.641 193.948 177.893C192.135 182.088 184.708 190.846 155.548 203.369C155.548 203.369 128.769 215.369 128.137 203.369C128.136 202.639 128.248 201.566 128.895 200.59C128.895 200.59 157.867 183.659 161.69 181.864Z" fill="#EE6931"/>
<path d="M152.744 201.146C159.921 196.399 167.816 193.233 175.657 189.774C176.14 189.558 176.599 190.214 176.23 190.591C171.672 195.359 165.627 198.417 159.477 200.576C157.414 201.264 155.307 201.824 153.091 202.083C152.573 202.161 152.301 201.421 152.744 201.146Z" fill="#FF9B85"/>
<path d="M143.692 129.445C141.743 102.45 133.805 85.2368 129.674 77.9268C126.417 72.1638 119.25 69.8518 113.257 72.6638C97.1048 80.2418 80.8668 112.479 80.8668 112.479C80.8668 112.479 53.1038 111.268 53.5858 129.689C53.5858 129.689 53.7788 141.847 59.1188 149.19C60.9598 151.721 63.7998 153.347 66.9048 153.737C69.6218 154.078 72.4988 154.353 75.5228 154.531C81.0628 154.857 86.1728 154.802 90.7598 154.535C94.6688 157.656 99.1328 160.777 104.005 164.01C110.488 168.312 118.309 172.992 124.961 175.508C127.658 176.528 130.521 177.074 133.404 176.984C137.258 176.864 141.898 175.638 142.564 170.573C143.311 164.338 143.864 157.507 144.07 150.154C144.278 142.709 144.101 135.778 143.692 129.445Z" fill="url(#paint2_linear_15_75)"/>
<path d="M176.922 82.0898L176.973 82.0628L168.005 70.8408L146.98 87.5148L147.021 87.5658L146.976 87.6018L147.017 87.6519L146.973 87.6878L147.013 87.7388L146.969 87.7738L147.009 87.8248L146.965 87.8608L147.006 87.9108L146.961 87.9468L147.002 87.9978L146.957 88.0328L146.998 88.0838L146.953 88.1198L146.994 88.1698L146.949 88.2058L146.99 88.2568L146.945 88.2918L146.986 88.3428L146.941 88.3788L146.982 88.4288L146.937 88.4648L146.978 88.5158L146.933 88.5508L146.974 88.6018L146.929 88.6378L146.97 88.6878L146.925 88.7238L146.966 88.7748L146.921 88.8098L146.962 88.8608L146.917 88.8958L146.958 88.9468L146.913 88.9828L146.954 89.0338L146.909 89.0688L146.95 89.1198L146.905 89.1558L146.946 89.2058L146.901 89.2418L146.942 89.2928L146.897 89.3278L146.938 89.3788L146.893 89.4138L146.934 89.4648L146.889 89.5009L146.93 89.5518L146.885 89.5869L146.926 89.6378L146.881 89.6729L146.922 89.7238L146.877 89.7598L146.918 89.8109L146.874 89.8458L146.914 89.8969L146.87 89.9318L146.91 89.9828L146.866 90.0188L146.906 90.0698L146.862 90.1048L146.903 90.1558L146.858 90.1908L146.899 90.2418L146.854 90.2778L146.895 90.3278L146.85 90.3638L146.891 90.4149L146.846 90.4498L146.887 90.5009L146.842 90.5368L146.883 90.5878L146.838 90.6228L146.879 90.6738L146.834 90.7088L146.875 90.7598L146.83 90.7958L146.871 90.8458L146.826 90.8818L146.867 90.9328L146.822 90.9678L146.863 91.0188L146.818 91.0548L146.859 91.1058L146.814 91.1408L146.855 91.1918L146.81 91.2268L146.851 91.2778L146.806 91.3138L146.847 91.3638L146.802 91.3998L146.843 91.4508L146.798 91.4858L146.839 91.5368L146.794 91.5728L146.835 91.6228L146.79 91.6588L146.831 91.7098L146.786 91.7448L146.827 91.7958L146.782 91.8318L146.823 91.8818L146.778 91.9178L146.819 91.9688L146.774 92.0038L146.815 92.0548L146.77 92.0908L146.811 92.1408L146.767 92.1768L146.807 92.2278L146.763 92.2628L146.804 92.3138L146.759 92.3499L146.8 92.3998L146.755 92.4359L146.796 92.4868L146.751 92.5219L146.792 92.5728L146.747 92.6088L146.788 92.6588L146.743 92.6948L146.784 92.7458L146.739 92.7808L146.78 92.8318L146.735 92.8678L146.776 92.9178L146.731 92.9538L146.772 93.0048L146.727 93.0399L146.768 93.0908L146.723 93.1268L146.764 93.1768L146.719 93.2128L146.76 93.2639L146.715 93.2988L146.756 93.3499L146.711 93.3858L146.752 93.4359L146.707 93.4718L146.748 93.5228L146.703 93.5578L146.744 93.6088L146.699 93.6448L146.74 93.6948L146.695 93.7308L146.736 93.7818L146.691 93.8168L146.732 93.8678L146.687 93.9038L146.728 93.9538L146.683 93.9898L146.724 94.0408L146.679 94.0758L146.72 94.1268L146.675 94.1628L146.716 94.2128L146.671 94.2488L146.712 94.2998L146.667 94.3348L146.708 94.3858L146.663 94.4218L146.704 94.4718L146.66 94.5078L152.368 101.598L176.652 89.0558L176.605 88.9958L176.656 88.9698L176.609 88.9099L176.66 88.8828L176.613 88.8239L176.664 88.7968L176.617 88.7368L176.668 88.7108L176.621 88.6508L176.672 88.6248L176.625 88.5648L176.676 88.5378L176.629 88.4778L176.68 88.4518L176.633 88.3918L176.684 88.3648L176.637 88.3058L176.688 88.2788L176.64 88.2188L176.692 88.1928L176.644 88.1328L176.696 88.1068L176.648 88.0468L176.7 88.0198L176.652 87.9608L176.704 87.9338L176.656 87.8738L176.708 87.8478L176.66 87.7878L176.712 87.7608L176.664 87.7018L176.716 87.6748L176.668 87.6148L176.72 87.5888L176.672 87.5288L176.724 87.5018L176.676 87.4418L176.728 87.4158L176.68 87.3558L176.732 87.3298L176.684 87.2698L176.736 87.2428L176.688 87.1838L176.74 87.1568L176.692 87.0968L176.744 87.0708L176.696 87.0108L176.748 86.9838L176.7 86.9248L176.752 86.8978L176.704 86.8378L176.755 86.8118L176.708 86.7518L176.759 86.7249L176.712 86.6658L176.763 86.6389L176.716 86.5788L176.767 86.5528L176.72 86.4928L176.771 86.4658L176.724 86.4068L176.775 86.3798L176.728 86.3198L176.779 86.2938L176.732 86.2338L176.783 86.2068L176.736 86.1478L176.787 86.1208L176.74 86.0609L176.791 86.0349L176.744 85.9749L176.795 85.9478L176.747 85.8889L176.799 85.8618L176.751 85.8018L176.803 85.7758L176.755 85.7158L176.807 85.6888L176.759 85.6298L176.811 85.6028L176.763 85.5428L176.815 85.5168L176.767 85.4568L176.819 85.4298L176.771 85.3708L176.823 85.3438L176.775 85.2838L176.827 85.2578L176.779 85.1978L176.831 85.1708L176.783 85.1118L176.835 85.0848L176.787 85.0248L176.839 84.9988L176.791 84.9388L176.843 84.9118L176.795 84.8528L176.847 84.8258L176.799 84.7658L176.851 84.7398L176.803 84.6798L176.854 84.6528L176.807 84.5938L176.858 84.5668L176.811 84.5068L176.862 84.4808L176.815 84.4208L176.866 84.3938L176.819 84.3348L176.87 84.3078L176.823 84.2478L176.874 84.2218L176.827 84.1618L176.878 84.1348L176.831 84.0758L176.882 84.0488L176.835 83.9888L176.886 83.9628L176.839 83.9028L176.89 83.8759L176.843 83.8168L176.894 83.7899L176.847 83.7298L176.898 83.7038L176.851 83.6438L176.902 83.6168L176.854 83.5578L176.906 83.5308L176.858 83.4708L176.91 83.4448L176.862 83.3848L176.914 83.3578L176.866 83.2988L176.918 83.2719L176.87 83.2119L176.922 83.1859L176.874 83.1259L176.926 83.0988L176.878 83.0399L176.93 83.0128L176.882 82.9528L176.934 82.9268L176.886 82.8668L176.938 82.8398L176.89 82.7808L176.942 82.7538L176.894 82.6938L176.946 82.6678L176.898 82.6078L176.95 82.5808L176.902 82.5219L176.954 82.4948L176.906 82.4348L176.957 82.4088L176.91 82.3488L176.961 82.3218L176.914 82.2628L176.965 82.2358L176.918 82.1758L176.969 82.1498L176.922 82.0898Z" fill="url(#paint3_linear_15_75)"/>
<path d="M186.802 124.106H186.804C187.263 118.247 181.975 109.469 181.975 109.469L155.486 112.173C155.498 112.191 155.51 112.223 155.522 112.243L155.483 112.247C155.495 112.265 155.507 112.297 155.519 112.317L155.48 112.321C155.492 112.339 155.504 112.371 155.516 112.391L155.477 112.395C155.489 112.413 155.501 112.445 155.513 112.465L155.474 112.469C155.486 112.487 155.498 112.519 155.51 112.539L155.471 112.543C155.483 112.561 155.495 112.593 155.507 112.613L155.468 112.617C155.48 112.635 155.492 112.667 155.504 112.687L155.465 112.691C155.477 112.709 155.489 112.741 155.501 112.761L155.462 112.765C155.474 112.783 155.486 112.815 155.498 112.835L155.459 112.839C155.471 112.857 155.483 112.889 155.495 112.909L155.456 112.913C155.468 112.931 155.48 112.963 155.492 112.983L155.453 112.987C155.465 113.005 155.477 113.037 155.489 113.057L155.45 113.061C155.462 113.079 155.474 113.111 155.486 113.131L155.447 113.135C155.459 113.153 155.471 113.185 155.483 113.205L155.444 113.209C155.456 113.227 155.468 113.259 155.48 113.279L155.441 113.283C155.453 113.301 155.465 113.333 155.477 113.353L155.438 113.357C155.45 113.375 155.462 113.407 155.474 113.427L155.435 113.431C155.447 113.449 155.459 113.481 155.471 113.501L155.432 113.505C155.444 113.523 155.456 113.555 155.468 113.575L155.429 113.579C155.441 113.597 155.453 113.629 155.465 113.649L155.426 113.653C155.438 113.671 155.45 113.703 155.462 113.723L155.423 113.727C155.435 113.745 155.447 113.777 155.459 113.797L155.42 113.801C155.432 113.819 155.444 113.851 155.456 113.871L155.417 113.875C155.429 113.893 155.441 113.925 155.453 113.945L155.414 113.949C155.426 113.967 155.438 113.999 155.45 114.019L155.411 114.023C155.423 114.041 155.435 114.073 155.447 114.093L155.408 114.097C155.42 114.115 155.432 114.147 155.444 114.167L155.405 114.171C155.417 114.189 155.429 114.221 155.441 114.241L155.402 114.245C155.414 114.263 155.426 114.295 155.438 114.315L155.399 114.319C155.411 114.337 155.423 114.369 155.435 114.389L155.396 114.393C155.408 114.411 155.42 114.443 155.432 114.463L155.393 114.467C155.405 114.485 155.417 114.517 155.429 114.537L155.39 114.541C155.402 114.559 155.414 114.591 155.426 114.611L155.374 114.615C155.386 114.633 155.398 114.665 155.41 114.685L155.371 114.689C155.383 114.707 155.395 114.739 155.407 114.759L155.368 114.763C155.38 114.781 155.392 114.813 155.404 114.833L155.365 114.837C155.377 114.855 155.389 114.887 155.401 114.907L155.362 114.911C155.374 114.929 155.386 114.961 155.398 114.981L155.359 114.985C155.371 115.003 155.383 115.035 155.395 115.055L155.356 115.059C155.368 115.077 155.38 115.109 155.392 115.129L155.353 115.133C155.365 115.151 155.377 115.183 155.389 115.203L155.35 115.207C155.362 115.225 155.374 115.257 155.386 115.277L155.347 115.281C155.359 115.299 155.371 115.331 155.383 115.351L155.344 115.355C155.356 115.373 155.368 115.405 155.38 115.425L155.341 115.429C155.353 115.447 155.365 115.479 155.377 115.499L155.338 115.503C155.35 115.521 155.362 115.553 155.374 115.573L155.335 115.577C155.347 115.595 155.359 115.627 155.371 115.647L155.332 115.651C155.344 115.669 155.356 115.701 155.368 115.721L155.329 115.725C155.341 115.743 155.353 115.775 155.365 115.795L155.326 115.799C155.338 115.817 155.35 115.849 155.362 115.869L155.323 115.873C155.335 115.891 155.347 115.923 155.359 115.943L155.32 115.947C155.332 115.965 155.344 115.997 155.356 116.017L155.317 116.021C155.329 116.039 155.341 116.071 155.353 116.091L155.314 116.095C155.326 116.113 155.338 116.145 155.35 116.165L155.311 116.169C155.323 116.187 155.335 116.219 155.347 116.239L155.308 116.243C155.32 116.261 155.332 116.293 155.344 116.313L155.305 116.317C155.317 116.335 155.329 116.367 155.341 116.387L155.302 116.391C155.314 116.409 155.326 116.441 155.338 116.461L155.299 116.465C155.311 116.483 155.323 116.515 155.335 116.535L155.296 116.539C155.308 116.557 155.32 116.589 155.332 116.609L155.293 116.613C155.305 116.631 155.317 116.663 155.329 116.683L155.29 116.687C155.302 116.705 155.314 116.737 155.326 116.757L155.287 116.761C155.299 116.779 155.311 116.811 155.323 116.831L155.284 116.835C155.296 116.853 155.308 116.885 155.32 116.905L155.281 116.909C155.293 116.927 155.305 116.959 155.317 116.979L155.278 116.983C155.29 117.001 155.302 117.033 155.314 117.053L155.275 117.057C155.287 117.075 155.299 117.107 155.311 117.127L155.272 117.131C155.284 117.149 155.296 117.181 155.308 117.201L155.269 117.205C155.281 117.223 155.293 117.255 155.305 117.275L155.266 117.279C155.278 117.297 155.29 117.329 155.302 117.349L155.263 117.353C155.275 117.371 155.287 117.403 155.299 117.423L155.26 117.427C155.272 117.445 155.284 117.477 155.296 117.497L155.257 117.501C155.269 117.519 155.281 117.551 155.293 117.571L155.254 117.575C155.266 117.593 155.278 117.625 155.29 117.645L155.251 117.649C155.263 117.667 155.275 117.699 155.287 117.719L155.248 117.723C155.26 117.741 155.272 117.773 155.284 117.793L155.245 117.797C155.257 117.815 155.269 117.847 155.281 117.867L155.242 117.871C155.254 117.889 155.266 117.921 155.278 117.941L155.239 117.945C155.251 117.963 155.263 117.995 155.275 118.015L155.236 118.019C155.248 118.037 155.26 118.069 155.272 118.089L155.233 118.093C155.245 118.111 155.257 118.143 155.269 118.163L155.23 118.167C156.209 119.571 156.831 128.736 156.831 128.736L186.547 130.1C186.549 130.076 186.547 130.05 186.548 130.026H186.55C186.552 130.002 186.55 129.976 186.551 129.952H186.553C186.555 129.928 186.553 129.902 186.554 129.878H186.556C186.558 129.854 186.556 129.828 186.557 129.804H186.559C186.561 129.78 186.559 129.754 186.56 129.73H186.562C186.564 129.706 186.562 129.68 186.563 129.656H186.565C186.567 129.632 186.565 129.606 186.566 129.582H186.568C186.57 129.558 186.568 129.532 186.569 129.508H186.571C186.573 129.484 186.571 129.458 186.572 129.434H186.574C186.576 129.41 186.574 129.384 186.575 129.36H186.577C186.579 129.336 186.577 129.31 186.578 129.286H186.58C186.582 129.262 186.58 129.236 186.581 129.212H186.583C186.585 129.188 186.583 129.162 186.584 129.138H186.586C186.588 129.114 186.586 129.088 186.587 129.064H186.589C186.591 129.04 186.589 129.014 186.59 128.99H186.592C186.594 128.966 186.592 128.94 186.593 128.916H186.595C186.597 128.892 186.595 128.866 186.596 128.842H186.598C186.6 128.818 186.598 128.792 186.599 128.768H186.601C186.603 128.744 186.601 128.718 186.602 128.694H186.604C186.606 128.67 186.604 128.644 186.605 128.62H186.607C186.609 128.596 186.607 128.57 186.608 128.546H186.61C186.612 128.522 186.61 128.496 186.611 128.472H186.613C186.615 128.448 186.613 128.422 186.614 128.398H186.616C186.618 128.374 186.616 128.348 186.617 128.324H186.619C186.621 128.3 186.619 128.274 186.62 128.25H186.622C186.624 128.226 186.622 128.2 186.623 128.176H186.625C186.627 128.152 186.625 128.126 186.626 128.102H186.628C186.63 128.078 186.628 128.052 186.629 128.028H186.631C186.633 128.004 186.631 127.978 186.632 127.954H186.634C186.636 127.93 186.634 127.904 186.635 127.88H186.637C186.639 127.856 186.637 127.83 186.638 127.806H186.64C186.642 127.782 186.64 127.756 186.641 127.732H186.643C186.645 127.708 186.643 127.682 186.644 127.658H186.646C186.648 127.634 186.646 127.608 186.647 127.584H186.649C186.651 127.56 186.649 127.534 186.65 127.51H186.652C186.654 127.486 186.652 127.46 186.653 127.436H186.655C186.657 127.412 186.655 127.386 186.656 127.362H186.658C186.66 127.338 186.658 127.312 186.659 127.288H186.661C186.663 127.264 186.661 127.238 186.662 127.214H186.664C186.666 127.19 186.664 127.164 186.665 127.14H186.667C186.669 127.116 186.667 127.09 186.668 127.066H186.67C186.672 127.042 186.67 127.016 186.671 126.992H186.673C186.675 126.968 186.673 126.942 186.674 126.918H186.676C186.678 126.894 186.676 126.868 186.677 126.844H186.679C186.681 126.82 186.679 126.794 186.68 126.77H186.682C186.684 126.746 186.682 126.72 186.683 126.696H186.685C186.687 126.672 186.685 126.646 186.686 126.622H186.688C186.69 126.598 186.688 126.572 186.689 126.548H186.691C186.693 126.524 186.691 126.498 186.692 126.474H186.694C186.696 126.45 186.694 126.424 186.695 126.4H186.697C186.699 126.376 186.697 126.35 186.698 126.326H186.7C186.702 126.302 186.7 126.276 186.701 126.252H186.703C186.705 126.228 186.703 126.202 186.704 126.178H186.706C186.708 126.154 186.706 126.128 186.707 126.104H186.709C186.711 126.08 186.709 126.054 186.71 126.03H186.712C186.714 126.006 186.712 125.98 186.713 125.956H186.715C186.717 125.932 186.715 125.906 186.716 125.882H186.718C186.72 125.858 186.718 125.832 186.719 125.808H186.721C186.723 125.784 186.721 125.758 186.722 125.734H186.724C186.726 125.71 186.724 125.684 186.725 125.66H186.727C186.729 125.636 186.727 125.61 186.728 125.586H186.73C186.732 125.562 186.73 125.536 186.731 125.512H186.733C186.735 125.488 186.733 125.462 186.734 125.438H186.736C186.738 125.414 186.736 125.388 186.737 125.364H186.739C186.741 125.34 186.739 125.314 186.74 125.29H186.742C186.744 125.266 186.742 125.24 186.743 125.216H186.745C186.747 125.192 186.745 125.166 186.746 125.142H186.748C186.75 125.118 186.748 125.092 186.749 125.068H186.751C186.753 125.044 186.751 125.018 186.752 124.994H186.754C186.756 124.97 186.754 124.944 186.755 124.92H186.757C186.759 124.896 186.757 124.87 186.758 124.846H186.76C186.762 124.822 186.76 124.796 186.761 124.772H186.763C186.765 124.748 186.763 124.722 186.764 124.698H186.766C186.768 124.674 186.766 124.648 186.767 124.624H186.769C186.771 124.6 186.769 124.574 186.77 124.55H186.772C186.774 124.526 186.772 124.5 186.773 124.476H186.775C186.777 124.452 186.775 124.426 186.776 124.402H186.778C186.78 124.378 186.778 124.352 186.779 124.328H186.781C186.783 124.304 186.781 124.278 186.782 124.254H186.784C186.786 124.23 186.784 124.204 186.785 124.18H186.787C186.802 124.156 186.8 124.13 186.802 124.106Z" fill="url(#paint4_linear_15_75)"/>
<path d="M179.527 158.22C179.534 158.182 179.538 158.155 179.538 158.155L179.518 158.145C179.525 158.107 179.529 158.08 179.529 158.08L179.509 158.07C179.516 158.032 179.521 158.005 179.521 158.005L179.501 157.995C179.508 157.957 179.512 157.93 179.512 157.93L179.492 157.92C179.499 157.882 179.504 157.855 179.504 157.855L179.484 157.845C179.491 157.807 179.495 157.78 179.495 157.78L179.475 157.77C179.482 157.732 179.486 157.705 179.486 157.705L179.466 157.695C179.473 157.657 179.477 157.63 179.477 157.63L179.457 157.62C179.464 157.582 179.468 157.555 179.468 157.555L179.448 157.545C179.455 157.507 179.46 157.48 179.46 157.48L179.44 157.47C179.447 157.432 179.451 157.405 179.451 157.405L179.431 157.395C179.438 157.357 179.443 157.33 179.443 157.33L179.423 157.32C179.43 157.282 179.434 157.255 179.434 157.255L179.414 157.245C179.421 157.207 179.425 157.18 179.425 157.18L179.405 157.17C179.412 157.132 179.416 157.105 179.416 157.105L179.396 157.095C179.403 157.057 179.407 157.03 179.407 157.03L179.387 157.02C179.394 156.982 179.399 156.955 179.399 156.955L179.379 156.945C179.386 156.907 179.39 156.88 179.39 156.88L179.37 156.87C179.377 156.832 179.382 156.805 179.382 156.805L179.362 156.795C179.369 156.757 179.373 156.73 179.373 156.73L179.353 156.72C179.36 156.682 179.364 156.655 179.364 156.655L179.344 156.645C179.351 156.607 179.355 156.58 179.355 156.58L179.335 156.57C179.342 156.532 179.346 156.505 179.346 156.505L179.326 156.495C179.333 156.457 179.338 156.43 179.338 156.43L179.318 156.42C179.325 156.382 179.329 156.355 179.329 156.355L179.309 156.345C179.316 156.307 179.32 156.28 179.32 156.28L179.3 156.27C179.307 156.232 179.311 156.205 179.311 156.205L179.291 156.195C179.298 156.157 179.302 156.13 179.302 156.13L179.282 156.12C179.289 156.082 179.293 156.055 179.293 156.055L179.273 156.045C179.28 156.007 179.284 155.98 179.284 155.98L179.264 155.97C179.271 155.932 179.275 155.905 179.275 155.905L179.255 155.895C179.262 155.857 179.266 155.83 179.266 155.83L179.246 155.82C179.253 155.782 179.257 155.755 179.257 155.755L179.237 155.745C179.244 155.707 179.248 155.68 179.248 155.68L179.228 155.67C179.235 155.632 179.239 155.605 179.239 155.605L179.219 155.595C179.226 155.557 179.23 155.53 179.23 155.53L179.21 155.52C179.217 155.482 179.221 155.455 179.221 155.455L179.201 155.445C179.208 155.407 179.212 155.38 179.212 155.38L179.192 155.37C179.199 155.332 179.203 155.305 179.203 155.305L179.183 155.295C179.19 155.257 179.194 155.23 179.194 155.23L179.174 155.22C179.181 155.182 179.185 155.155 179.185 155.155L179.165 155.145C179.172 155.107 179.177 155.08 179.177 155.08L179.157 155.07C179.164 155.032 179.168 155.005 179.168 155.005L179.148 154.995C179.155 154.957 179.159 154.93 179.159 154.93L179.139 154.92C179.146 154.882 179.15 154.855 179.15 154.855L179.13 154.845C179.137 154.807 179.141 154.78 179.141 154.78L179.121 154.77C179.128 154.732 179.132 154.705 179.132 154.705L179.112 154.695C179.119 154.657 179.123 154.63 179.123 154.63L179.103 154.62C179.11 154.582 179.115 154.555 179.115 154.555L179.095 154.545C179.102 154.507 179.106 154.48 179.106 154.48L179.086 154.47C179.093 154.432 179.097 154.405 179.097 154.405L179.077 154.395C179.084 154.357 179.088 154.33 179.088 154.33L179.068 154.32C179.075 154.282 179.079 154.255 179.079 154.255L179.059 154.245C179.066 154.207 179.07 154.18 179.07 154.18L179.05 154.17C179.057 154.132 179.061 154.105 179.061 154.105L179.041 154.095C179.048 154.057 179.053 154.03 179.053 154.03L179.033 154.02C179.04 153.982 179.044 153.955 179.044 153.955L179.024 153.945C179.031 153.907 179.035 153.88 179.035 153.88L179.015 153.87C179.022 153.832 179.026 153.805 179.026 153.805L179.006 153.795C179.013 153.757 179.017 153.73 179.017 153.73L178.997 153.72C179.004 153.682 179.008 153.655 179.008 153.655L178.988 153.645C178.995 153.607 178.999 153.58 178.999 153.58L178.979 153.57C178.986 153.532 178.991 153.505 178.991 153.505L178.971 153.495C178.978 153.457 178.982 153.43 178.982 153.43L178.962 153.42C178.969 153.382 178.973 153.355 178.973 153.355L178.953 153.345C178.96 153.307 178.964 153.28 178.964 153.28L178.944 153.27C178.951 153.232 178.955 153.205 178.955 153.205L178.935 153.195C178.942 153.157 178.946 153.13 178.946 153.13L178.926 153.12C178.933 153.082 178.937 153.055 178.937 153.055L178.917 153.045C178.924 153.007 178.929 152.98 178.929 152.98L178.909 152.97C178.916 152.932 178.92 152.905 178.92 152.905L178.9 152.895C178.907 152.857 178.911 152.83 178.911 152.83L178.891 152.82C178.898 152.782 178.902 152.755 178.902 152.755L178.882 152.745C178.889 152.707 178.893 152.68 178.893 152.68L178.873 152.67C178.88 152.632 178.884 152.605 178.884 152.605L178.864 152.595C178.871 152.557 178.875 152.53 178.875 152.53L178.855 152.52C178.862 152.482 178.867 152.455 178.867 152.455L178.847 152.445C178.854 152.407 178.858 152.38 178.858 152.38L178.838 152.37C178.845 152.332 178.85 152.305 178.85 152.305L178.83 152.295C178.837 152.257 178.841 152.23 178.841 152.23L178.821 152.22C178.828 152.182 178.832 152.155 178.832 152.155L155.453 140.84C155.434 142.018 155.251 144.009 154.258 146.222C153.378 148.184 152.214 149.534 151.414 150.328L151.463 150.359C151.451 150.371 151.435 150.39 151.423 150.402L151.472 150.434C151.46 150.446 151.444 150.465 151.432 150.477L151.481 150.508C151.468 150.52 151.453 150.539 151.44 150.551L151.489 150.582C151.477 150.594 151.461 150.613 151.449 150.625L151.498 150.656C151.485 150.668 151.47 150.687 151.457 150.699L151.507 150.731C151.495 150.743 151.479 150.762 151.466 150.774L151.515 150.805C151.502 150.817 151.487 150.836 151.475 150.848L151.524 150.879C151.512 150.891 151.496 150.91 151.484 150.922L151.533 150.953C151.52 150.965 151.505 150.984 151.493 150.996L151.542 151.028C151.529 151.04 151.514 151.059 151.501 151.071L151.55 151.102C151.538 151.114 151.522 151.133 151.51 151.145L151.559 151.176C151.546 151.188 151.531 151.207 151.518 151.219L151.567 151.25C151.555 151.262 151.539 151.281 151.527 151.293L151.576 151.324C151.563 151.336 151.548 151.355 151.536 151.367L151.585 151.398C151.573 151.41 151.557 151.429 151.545 151.441L151.594 151.472C151.581 151.484 151.566 151.503 151.554 151.515L151.603 151.547C151.59 151.559 151.575 151.578 151.562 151.59L151.611 151.621C151.599 151.633 151.583 151.652 151.571 151.664L151.62 151.695C151.607 151.707 151.592 151.726 151.579 151.738L151.628 151.769C151.616 151.781 151.6 151.8 151.588 151.812L151.637 151.843C151.624 151.855 151.609 151.874 151.597 151.886L151.646 151.917C151.634 151.929 151.618 151.948 151.606 151.96L151.655 151.991C151.642 152.003 151.627 152.022 151.615 152.034L151.664 152.065C151.652 152.077 151.636 152.096 151.624 152.108L151.673 152.139C151.661 152.151 151.645 152.17 151.633 152.182L151.682 152.213C151.669 152.225 151.654 152.244 151.641 152.256L151.69 152.287C151.678 152.299 151.662 152.318 151.65 152.33L151.699 152.362C151.686 152.374 151.671 152.393 151.659 152.405L151.708 152.436C151.696 152.448 151.68 152.467 151.668 152.479L151.717 152.51C151.704 152.522 151.689 152.541 151.677 152.553L151.726 152.584C151.714 152.596 151.698 152.615 151.686 152.627L151.735 152.658C151.723 152.67 151.707 152.689 151.695 152.701L151.744 152.732C151.731 152.744 151.716 152.763 151.703 152.775L151.752 152.806C151.74 152.818 151.724 152.837 151.712 152.849L151.761 152.88C151.748 152.892 151.733 152.911 151.721 152.923L151.77 152.954C151.758 152.966 151.742 152.985 151.73 152.997L151.779 153.028C151.766 153.04 151.751 153.059 151.739 153.071L151.788 153.102C151.776 153.114 151.76 153.133 151.748 153.145L151.797 153.177C151.785 153.189 151.769 153.208 151.757 153.22L151.806 153.251C151.793 153.263 151.778 153.282 151.765 153.294L151.814 153.325C151.802 153.337 151.786 153.356 151.774 153.368L151.823 153.399C151.81 153.411 151.795 153.43 151.782 153.442L151.831 153.473C151.819 153.485 151.803 153.504 151.791 153.516L151.84 153.547C151.827 153.559 151.812 153.578 151.8 153.59L151.849 153.621C151.837 153.633 151.821 153.652 151.809 153.664L151.858 153.695C151.845 153.707 151.83 153.726 151.818 153.738L151.868 153.77C151.855 153.782 151.84 153.801 151.827 153.813L151.876 153.844C151.864 153.856 151.848 153.875 151.836 153.887L151.885 153.918C151.872 153.93 151.857 153.949 151.844 153.961L151.893 153.993C151.881 154.005 151.865 154.024 151.853 154.036L151.902 154.067C151.889 154.079 151.874 154.098 151.862 154.11L151.911 154.141C151.899 154.153 151.883 154.172 151.871 154.184L151.92 154.215C151.907 154.227 151.892 154.246 151.88 154.258L151.929 154.289C151.917 154.301 151.901 154.32 151.889 154.332L151.938 154.363C151.926 154.375 151.91 154.394 151.898 154.406L151.947 154.437C151.934 154.449 151.919 154.468 151.906 154.48L151.955 154.511C151.943 154.523 151.927 154.542 151.915 154.554L151.964 154.586C151.951 154.598 151.936 154.617 151.924 154.629L151.973 154.66C151.961 154.672 151.945 154.691 151.933 154.703L151.982 154.734C151.969 154.746 151.954 154.765 151.941 154.777L151.991 154.809C151.978 154.821 151.963 154.84 151.95 154.852L151.999 154.883C151.987 154.895 151.971 154.914 151.959 154.926L152.008 154.957C151.995 154.969 151.98 154.988 151.967 155L152.016 155.031C152.004 155.043 151.988 155.062 151.976 155.074L152.025 155.105C152.012 155.117 151.997 155.136 151.985 155.148L152.034 155.179C152.022 155.191 152.006 155.21 151.994 155.222L152.043 155.253C152.03 155.265 152.015 155.284 152.003 155.296L152.052 155.327C152.04 155.339 152.024 155.358 152.012 155.37L152.061 155.401C152.049 155.413 152.033 155.432 152.021 155.444L152.07 155.475C152.057 155.487 152.042 155.506 152.029 155.518L152.078 155.549C152.066 155.561 152.05 155.58 152.038 155.592L152.087 155.624C152.074 155.636 152.059 155.655 152.047 155.667L152.096 155.698C152.084 155.71 152.068 155.729 152.056 155.741L152.105 155.772C152.092 155.784 152.077 155.803 152.065 155.815L152.114 155.846C152.102 155.858 152.086 155.877 152.074 155.889L152.123 155.92C152.111 155.932 152.095 155.951 152.083 155.963L152.132 155.994C152.119 156.006 152.104 156.025 152.091 156.037L152.14 156.068C152.128 156.08 152.112 156.099 152.1 156.111L152.149 156.142C152.136 156.154 152.121 156.173 152.108 156.185L152.157 156.217C152.145 156.229 152.129 156.248 152.117 156.26L152.166 156.291C152.153 156.303 152.138 156.322 152.126 156.334L175.53 171.254C177.484 170.016 179.545 158.161 179.545 158.161L179.527 158.22Z" fill="url(#paint5_linear_15_75)"/>
<path d="M144.447 142.71C144.527 141.132 144.587 139.517 144.636 137.886C144.644 137.643 144.658 137.41 144.665 137.166C144.728 134.925 144.752 132.737 144.749 130.591C144.747 127.158 144.667 123.849 144.518 120.676C144.453 119.244 144.377 117.834 144.288 116.457C144.194 115.148 144.081 113.87 143.959 112.607C142.785 100.064 140.292 89.79 137.605 81.811C134.997 74.006 132.213 68.376 130.27 64.939C127.013 59.176 119.846 56.865 113.853 59.676C97.7009 67.254 81.4628 99.491 81.4628 99.491C81.4628 99.491 55.3358 98.354 54.2158 115.105C54.2138 115.137 54.2138 115.171 54.2108 115.204C54.2088 115.236 54.2088 115.27 54.2058 115.303C54.2038 115.335 54.2039 115.369 54.2009 115.402C54.1989 115.434 54.1989 115.468 54.1959 115.501C54.1939 115.533 54.1939 115.567 54.1909 115.6C54.1889 115.632 54.1889 115.666 54.1859 115.699C54.1839 115.731 54.1839 115.765 54.1809 115.798C54.1789 115.83 54.1789 115.864 54.1759 115.897C54.1739 115.929 54.1738 115.963 54.1708 115.996C54.1688 116.028 54.1688 116.062 54.1658 116.095C54.1638 116.127 54.1638 116.161 54.1608 116.194C54.1588 116.226 54.1588 116.26 54.1558 116.293C54.1538 116.325 54.1538 116.359 54.1508 116.392C54.1488 116.424 54.1488 116.458 54.1458 116.491C54.1438 116.523 54.1439 116.557 54.1409 116.59C54.1389 116.622 54.1389 116.656 54.1359 116.689C54.1339 116.721 54.1339 116.755 54.1309 116.788C54.1289 116.82 54.1289 116.854 54.1259 116.887C54.1239 116.919 54.1239 116.953 54.1209 116.986C54.1189 117.018 54.1189 117.052 54.1159 117.085C54.1139 117.117 54.1139 117.151 54.1109 117.184C54.1089 117.216 54.1088 117.25 54.1058 117.283C54.1038 117.315 54.1038 117.349 54.1008 117.382C54.0988 117.414 54.0988 117.448 54.0958 117.481C54.0938 117.513 54.0938 117.547 54.0908 117.58C54.0888 117.612 54.0888 117.646 54.0858 117.679C54.0838 117.711 54.0838 117.745 54.0808 117.778C54.0788 117.81 54.0789 117.844 54.0759 117.877C54.0739 117.909 54.0739 117.943 54.0709 117.976C54.0689 118.008 54.0689 118.042 54.0659 118.075C54.0639 118.107 54.0639 118.141 54.0609 118.174C54.0589 118.206 54.0589 118.24 54.0559 118.273C54.0539 118.305 54.0539 118.339 54.0509 118.372C54.0489 118.404 54.0488 118.438 54.0458 118.471C54.0438 118.503 54.0438 118.537 54.0408 118.57C54.0388 118.602 54.0388 118.636 54.0358 118.669C54.0338 118.701 54.0338 118.735 54.0308 118.768C54.0288 118.8 54.0288 118.834 54.0258 118.867C54.0238 118.899 54.0238 118.933 54.0208 118.966C54.0188 118.998 54.0189 119.032 54.0159 119.065C54.0139 119.097 54.0139 119.131 54.0109 119.164C54.0089 119.196 54.0089 119.23 54.0059 119.263C54.0039 119.295 54.0039 119.329 54.0009 119.362C53.9989 119.394 53.9989 119.428 53.9959 119.461C53.9939 119.493 53.9939 119.527 53.9909 119.56C53.9889 119.592 53.9889 119.626 53.9859 119.659C53.9839 119.691 53.9838 119.725 53.9808 119.758C53.9788 119.79 53.9788 119.824 53.9758 119.857C53.9738 119.889 53.9738 119.923 53.9708 119.956C53.9688 119.988 53.9688 120.022 53.9658 120.055C53.9638 120.087 53.9638 120.121 53.9608 120.154C53.9588 120.186 53.9588 120.22 53.9558 120.253C53.9538 120.285 53.9539 120.319 53.9509 120.352C53.9489 120.384 53.9489 120.418 53.9459 120.451C53.9439 120.483 53.9439 120.517 53.9409 120.55C53.9389 120.582 53.9389 120.616 53.9359 120.649C53.9339 120.681 53.9339 120.715 53.9309 120.748C53.9289 120.78 53.9289 120.814 53.9259 120.847C53.9239 120.879 53.9238 120.913 53.9208 120.946C53.9188 120.978 53.9188 121.012 53.9158 121.045C53.9138 121.077 53.9138 121.111 53.9108 121.144C53.9088 121.176 53.9088 121.21 53.9058 121.243C53.9038 121.275 53.9038 121.309 53.9008 121.342C53.8988 121.374 53.8988 121.408 53.8958 121.441C53.8938 121.473 53.8939 121.507 53.8909 121.54C53.8889 121.572 53.8889 121.606 53.8859 121.639C53.8839 121.671 53.8839 121.705 53.8809 121.738C53.8789 121.77 53.8789 121.804 53.8759 121.837C53.8739 121.869 53.8739 121.903 53.8709 121.936C53.8689 121.968 53.8689 122.002 53.8659 122.035C53.8639 122.067 53.8639 122.101 53.8609 122.134C53.8589 122.166 53.8588 122.2 53.8558 122.233C53.8538 122.265 53.8538 122.299 53.8508 122.332C53.8488 122.364 53.8488 122.398 53.8458 122.431C53.8438 122.463 53.8438 122.497 53.8408 122.53C53.8388 122.562 53.8388 122.596 53.8358 122.629C53.8338 122.661 53.8338 122.695 53.8308 122.728C53.8288 122.76 53.8289 122.794 53.8259 122.827C53.8239 122.859 53.8239 122.893 53.8209 122.926C53.8189 122.958 53.8189 122.992 53.8159 123.025C53.7759 123.571 53.7619 124.134 53.7769 124.719C53.7769 124.719 53.9708 136.877 59.3098 144.22C61.1508 146.751 63.9908 148.377 67.0958 148.767C69.8128 149.109 72.6899 149.383 75.7139 149.561C81.2539 149.887 86.3639 149.832 90.9509 149.565C94.8599 152.686 99.3239 155.807 104.196 159.04C110.679 163.342 118.5 168.022 125.152 170.538C127.85 171.558 130.712 172.104 133.595 172.014C137.449 171.894 142.089 170.668 142.755 165.603C142.835 164.933 142.904 164.229 142.979 163.546C143.453 159.41 143.824 155.048 144.056 150.432C144.058 150.399 144.059 150.366 144.061 150.333C144.063 150.3 144.064 150.267 144.066 150.234C144.068 150.201 144.069 150.168 144.071 150.135C144.073 150.102 144.074 150.069 144.076 150.036C144.078 150.003 144.079 149.97 144.081 149.937C144.083 149.904 144.084 149.871 144.086 149.838C144.088 149.805 144.089 149.772 144.091 149.739C144.093 149.706 144.094 149.673 144.096 149.64C144.098 149.607 144.099 149.574 144.101 149.541C144.103 149.508 144.104 149.475 144.106 149.442C144.108 149.409 144.109 149.376 144.111 149.343C144.113 149.31 144.114 149.277 144.116 149.244C144.118 149.211 144.119 149.178 144.121 149.145C144.123 149.112 144.124 149.079 144.126 149.046C144.128 149.013 144.129 148.98 144.131 148.947C144.133 148.914 144.134 148.881 144.136 148.848C144.138 148.815 144.139 148.782 144.141 148.749C144.143 148.716 144.144 148.683 144.146 148.65C144.148 148.617 144.149 148.584 144.151 148.551C144.153 148.518 144.154 148.485 144.156 148.452C144.158 148.419 144.159 148.386 144.161 148.353C144.163 148.32 144.164 148.287 144.166 148.254C144.168 148.221 144.169 148.188 144.171 148.155C144.173 148.122 144.174 148.089 144.176 148.056C144.178 148.023 144.179 147.99 144.181 147.957C144.183 147.924 144.184 147.891 144.186 147.858C144.188 147.825 144.189 147.792 144.191 147.759C144.193 147.726 144.194 147.693 144.196 147.66C144.198 147.627 144.199 147.594 144.201 147.561C144.203 147.528 144.204 147.495 144.206 147.462C144.208 147.429 144.209 147.396 144.211 147.363C144.213 147.33 144.214 147.297 144.216 147.264C144.218 147.231 144.219 147.198 144.221 147.165C144.223 147.132 144.224 147.099 144.226 147.066C144.228 147.033 144.229 147 144.231 146.967C144.233 146.934 144.234 146.901 144.236 146.868C144.238 146.835 144.239 146.802 144.241 146.769C144.243 146.736 144.244 146.703 144.246 146.67C144.248 146.637 144.249 146.604 144.251 146.571C144.253 146.538 144.254 146.505 144.256 146.472C144.258 146.439 144.259 146.406 144.261 146.373C144.263 146.34 144.264 146.307 144.266 146.274C144.268 146.241 144.269 146.208 144.271 146.175C144.273 146.142 144.274 146.109 144.276 146.076C144.278 146.043 144.279 146.01 144.281 145.977C144.283 145.944 144.284 145.911 144.286 145.878C144.288 145.845 144.289 145.812 144.291 145.779C144.293 145.746 144.294 145.713 144.296 145.68C144.298 145.647 144.299 145.614 144.301 145.581C144.303 145.548 144.304 145.515 144.306 145.482C144.308 145.449 144.309 145.416 144.311 145.383C144.313 145.35 144.314 145.317 144.316 145.284C144.318 145.251 144.319 145.218 144.321 145.185C144.323 145.152 144.324 145.119 144.326 145.086C144.328 145.053 144.329 145.02 144.331 144.987C144.333 144.954 144.334 144.921 144.336 144.888C144.338 144.855 144.339 144.822 144.341 144.789C144.343 144.756 144.344 144.723 144.346 144.69C144.348 144.657 144.349 144.624 144.351 144.591C144.353 144.558 144.354 144.525 144.356 144.492C144.358 144.459 144.359 144.426 144.361 144.393C144.363 144.36 144.364 144.327 144.366 144.294C144.368 144.261 144.369 144.228 144.371 144.195C144.373 144.162 144.374 144.129 144.376 144.096C144.378 144.063 144.379 144.03 144.381 143.997C144.383 143.964 144.384 143.931 144.386 143.898C144.388 143.865 144.389 143.832 144.391 143.799C144.393 143.766 144.394 143.733 144.396 143.7C144.398 143.667 144.399 143.634 144.401 143.601C144.403 143.568 144.404 143.535 144.406 143.502C144.408 143.469 144.409 143.436 144.411 143.403C144.413 143.37 144.414 143.337 144.416 143.304C144.418 143.271 144.419 143.238 144.421 143.205C144.423 143.172 144.424 143.139 144.426 143.106C144.428 143.073 144.429 143.04 144.431 143.007C144.433 142.974 144.434 142.941 144.436 142.908C144.438 142.875 144.439 142.842 144.441 142.809C144.445 142.776 144.446 142.743 144.447 142.71Z" fill="#C7C97E"/>
<path d="M177.204 76.0932L177.248 76.0702L168.28 64.8472L147.256 81.5222L147.291 81.5652L147.252 81.5962L147.287 81.6392L147.249 81.6702L147.284 81.7132L147.245 81.7442L147.28 81.7872L147.242 81.8172L147.277 81.8612L147.239 81.8922L147.274 81.9352L147.235 81.9662L147.27 82.0092L147.232 82.0402L147.267 82.0832L147.228 82.1142L147.263 82.1572L147.225 82.1872L147.26 82.2312L147.222 82.2622L147.257 82.3052L147.218 82.3362L147.253 82.3792L147.215 82.4092L147.25 82.4532L147.211 82.4842L147.246 82.5272L147.208 82.5572L147.243 82.6012L147.205 82.6312L147.24 82.6752L147.201 82.7052L147.236 82.7492L147.198 82.7792L147.233 82.8232L147.194 82.8542L147.229 82.8972L147.191 82.9272L147.226 82.9712L147.188 83.0012L147.223 83.0452L147.184 83.0752L147.219 83.1192L147.181 83.1492L147.216 83.1932L147.177 83.2232L147.212 83.2672L147.174 83.2972L147.209 83.3412L147.171 83.3712L147.206 83.4152L147.167 83.4452L147.202 83.4892L147.164 83.5192L147.199 83.5632L147.16 83.5932L147.195 83.6372L147.157 83.6672L147.192 83.7112L147.154 83.7412L147.189 83.7852L147.15 83.8152L147.185 83.8592L147.147 83.8892L147.182 83.9332L147.143 83.9632L147.179 84.0072L147.14 84.0372L147.175 84.0812L147.137 84.1112L147.172 84.1552L147.133 84.1852L147.168 84.2292L147.13 84.2592L147.165 84.3032L147.127 84.3332L147.162 84.3772L147.123 84.4072L147.158 84.4512L147.12 84.4812L147.155 84.5252L147.116 84.5552L147.151 84.5992L147.113 84.6292L147.148 84.6732L147.11 84.7032L147.145 84.7472L147.106 84.7772L147.141 84.8212L147.103 84.8512L147.138 84.8952L147.099 84.9252L147.134 84.9692L147.096 84.9992L147.131 85.0432L147.093 85.0732L147.128 85.1172L147.089 85.1472L147.124 85.1912L147.086 85.2212L147.121 85.2652L147.082 85.2952L147.117 85.3392L147.079 85.3692L147.114 85.4132L147.076 85.4432L147.111 85.4872L147.072 85.5172L147.107 85.5612L147.069 85.5912L147.104 85.6352L147.065 85.6652L147.1 85.7092L147.062 85.7392L147.097 85.7832L147.059 85.8132L147.094 85.8572L147.055 85.8872L147.09 85.9312L147.052 85.9612L147.087 86.0052L147.048 86.0352L147.083 86.0792L147.045 86.1092L147.08 86.1532L147.042 86.1832L147.077 86.2272L147.038 86.2572L147.073 86.3012L147.035 86.3312L147.07 86.3752L147.031 86.4052L147.066 86.4492L147.028 86.4792L147.063 86.5232L147.025 86.5532L147.06 86.5972L147.021 86.6272L147.056 86.6712L147.018 86.7012L147.053 86.7452L147.014 86.7752L147.049 86.8192L147.011 86.8492L147.046 86.8932L147.008 86.9232L147.043 86.9672L147.004 86.9972L147.039 87.0412L147.001 87.0712L147.036 87.1152L146.997 87.1452L147.032 87.1892L146.994 87.2192L147.029 87.2632L146.991 87.2932L147.026 87.3372L146.987 87.3672L147.022 87.4112L146.984 87.4412L147.019 87.4852L146.98 87.5152L152.689 94.6052L176.973 82.0632L176.932 82.0122L176.977 81.9892L176.936 81.9382L176.98 81.9152L176.939 81.8642L176.984 81.8422L176.943 81.7902L176.987 81.7682L176.946 81.7162L176.99 81.6932L176.949 81.6422L176.994 81.6192L176.953 81.5682L176.997 81.5462L176.956 81.4942L177.001 81.4712L176.96 81.4202L177.004 81.3982L176.963 81.3462L177.007 81.3242L176.966 81.2722L177.011 81.2502L176.97 81.1982L177.014 81.1762L176.973 81.1242L177.017 81.1012L176.977 81.0502L177.021 81.0282L176.98 80.9762L177.024 80.9542L176.983 80.9022L177.028 80.8802L176.987 80.8282L177.031 80.8062L176.99 80.7542L177.034 80.7322L176.994 80.6802L177.038 80.6582L176.997 80.6062L177.041 80.5842L177 80.5322L177.045 80.5102L177.004 80.4582L177.048 80.4362L177.007 80.3842L177.051 80.3622L177.011 80.3102L177.055 80.2882L177.014 80.2362L177.058 80.2142L177.017 80.1622L177.062 80.1402L177.021 80.0882L177.065 80.0662L177.024 80.0142L177.068 79.9922L177.028 79.9402L177.072 79.9182L177.031 79.8662L177.075 79.8442L177.034 79.7922L177.079 79.7702L177.038 79.7182L177.082 79.6962L177.041 79.6442L177.085 79.6222L177.045 79.5702L177.089 79.5482L177.048 79.4962L177.092 79.4742L177.051 79.4222L177.096 79.4002L177.055 79.3482L177.099 79.3262L177.058 79.2742L177.102 79.2522L177.062 79.2002L177.106 79.1782L177.065 79.1262L177.109 79.1042L177.068 79.0522L177.113 79.0302L177.072 78.9792L177.116 78.9562L177.075 78.9042L177.119 78.8822L177.078 78.8302L177.123 78.8082L177.082 78.7562L177.126 78.7342L177.085 78.6822L177.13 78.6602L177.089 78.6092L177.133 78.5862L177.092 78.5342L177.136 78.5122L177.095 78.4612L177.14 78.4382L177.099 78.3872L177.143 78.3642L177.102 78.3122L177.147 78.2902L177.106 78.2392L177.15 78.2162L177.109 78.1652L177.153 78.1422L177.112 78.0912L177.157 78.0682L177.116 78.0172L177.16 77.9942L177.119 77.9422L177.164 77.9202L177.123 77.8692L177.167 77.8462L177.126 77.7952L177.17 77.7722L177.129 77.7212L177.174 77.6982L177.133 77.6472L177.177 77.6242L177.136 77.5732L177.181 77.5502L177.14 77.4992L177.184 77.4762L177.143 77.4252L177.187 77.4022L177.146 77.3512L177.191 77.3282L177.15 77.2772L177.194 77.2542L177.153 77.2032L177.197 77.1802L177.157 77.1292L177.201 77.1062L177.16 77.0552L177.204 77.0322L177.163 76.9812L177.208 76.9582L177.167 76.9072L177.211 76.8842L177.17 76.8332L177.214 76.8102L177.174 76.7592L177.218 76.7362L177.177 76.6852L177.221 76.6622L177.18 76.6112L177.225 76.5882L177.184 76.5372L177.228 76.5142L177.187 76.4632L177.231 76.4402L177.191 76.3892L177.235 76.3662L177.194 76.3152L177.238 76.2922L177.197 76.2412L177.242 76.2182L177.201 76.1672L177.245 76.1442L177.204 76.0932Z" fill="#C7C97E"/>
<path d="M187.122 117.113H187.124C187.583 111.254 182.295 102.476 182.295 102.476L155.806 105.18C155.82 105.2 155.834 105.238 155.848 105.262L155.802 105.267C155.816 105.287 155.83 105.325 155.844 105.349L155.798 105.354C155.812 105.374 155.826 105.412 155.84 105.436L155.794 105.441C155.808 105.461 155.822 105.499 155.836 105.523L155.79 105.528C155.804 105.548 155.818 105.586 155.832 105.61L155.786 105.615C155.8 105.635 155.814 105.673 155.828 105.697L155.782 105.702C155.796 105.723 155.81 105.76 155.824 105.784L155.778 105.789C155.792 105.809 155.806 105.847 155.82 105.871L155.774 105.876C155.788 105.896 155.802 105.934 155.816 105.958L155.77 105.963C155.784 105.983 155.798 106.021 155.812 106.045L155.766 106.05C155.78 106.07 155.794 106.108 155.808 106.132L155.762 106.137C155.776 106.157 155.79 106.195 155.804 106.219L155.758 106.224C155.772 106.244 155.786 106.282 155.8 106.306L155.754 106.311C155.768 106.331 155.782 106.369 155.796 106.393L155.75 106.398C155.764 106.418 155.778 106.456 155.792 106.48L155.746 106.485C155.76 106.505 155.774 106.543 155.788 106.567L155.742 106.572C155.756 106.592 155.77 106.63 155.784 106.654L155.738 106.659C155.752 106.679 155.766 106.717 155.78 106.741L155.734 106.746C155.748 106.766 155.762 106.804 155.776 106.828L155.73 106.833C155.744 106.853 155.758 106.891 155.772 106.915L155.726 106.92C155.74 106.94 155.754 106.978 155.768 107.002L155.722 107.007C155.736 107.027 155.75 107.065 155.764 107.089L155.718 107.094C155.732 107.114 155.746 107.152 155.76 107.176L155.714 107.181C155.728 107.201 155.742 107.239 155.756 107.263L155.71 107.268C155.724 107.288 155.738 107.326 155.752 107.35L155.706 107.355C155.72 107.375 155.734 107.413 155.748 107.437L155.702 107.442C155.716 107.462 155.73 107.5 155.744 107.524L155.698 107.529C155.712 107.549 155.726 107.587 155.74 107.611L155.694 107.616C155.708 107.636 155.722 107.674 155.736 107.698L155.69 107.703C155.704 107.723 155.718 107.761 155.732 107.785L155.686 107.79C155.7 107.81 155.714 107.848 155.728 107.872L155.682 107.877C155.696 107.897 155.71 107.935 155.724 107.959L155.678 107.964C155.692 107.984 155.706 108.022 155.72 108.046L155.674 108.051C155.688 108.071 155.702 108.109 155.716 108.133L155.67 108.138C155.684 108.158 155.698 108.196 155.712 108.22L155.666 108.225C155.68 108.245 155.694 108.283 155.708 108.307L155.662 108.312C155.676 108.332 155.69 108.37 155.704 108.394L155.658 108.399C155.672 108.419 155.686 108.457 155.7 108.481L155.654 108.486C155.668 108.506 155.682 108.544 155.696 108.568L155.65 108.573C155.664 108.593 155.678 108.631 155.692 108.655L155.646 108.66C155.66 108.68 155.674 108.718 155.688 108.742L155.642 108.747C155.656 108.767 155.67 108.805 155.684 108.829L155.638 108.834C155.652 108.854 155.666 108.892 155.68 108.916L155.634 108.921C155.648 108.941 155.662 108.979 155.676 109.003L155.63 109.008C155.644 109.028 155.658 109.066 155.672 109.09L155.626 109.095C155.64 109.115 155.654 109.153 155.668 109.177L155.622 109.182C155.636 109.202 155.65 109.24 155.664 109.264L155.618 109.269C155.632 109.289 155.646 109.327 155.66 109.351L155.614 109.356C155.628 109.376 155.642 109.414 155.656 109.438L155.61 109.443C155.624 109.464 155.638 109.501 155.652 109.525L155.606 109.53C155.62 109.55 155.634 109.588 155.648 109.612L155.602 109.617C155.616 109.637 155.63 109.675 155.644 109.699L155.598 109.704C155.612 109.724 155.626 109.762 155.64 109.786L155.594 109.791C155.608 109.811 155.622 109.849 155.636 109.873L155.59 109.878C155.604 109.898 155.618 109.936 155.632 109.96L155.586 109.965C155.6 109.985 155.614 110.023 155.628 110.047L155.582 110.052C155.596 110.072 155.61 110.11 155.624 110.134L155.578 110.139C155.592 110.159 155.606 110.197 155.62 110.221L155.574 110.226C155.588 110.246 155.602 110.284 155.616 110.308L155.57 110.313C155.584 110.333 155.598 110.371 155.612 110.395L155.566 110.4C155.58 110.42 155.594 110.458 155.608 110.482L155.562 110.487C155.576 110.507 155.59 110.545 155.604 110.569L155.558 110.574C155.572 110.594 155.586 110.632 155.6 110.656L155.554 110.661C155.568 110.681 155.582 110.719 155.596 110.743L155.55 110.748C155.564 110.768 155.578 110.806 155.592 110.83L155.546 110.835C155.56 110.855 155.574 110.893 155.588 110.917L155.542 110.922C155.556 110.942 155.57 110.98 155.584 111.004L155.538 111.009C155.552 111.029 155.566 111.067 155.58 111.091L155.534 111.096C155.548 111.116 155.562 111.154 155.576 111.178L155.53 111.183C155.544 111.203 155.558 111.241 155.572 111.265L155.526 111.27C155.54 111.29 155.554 111.328 155.568 111.352L155.522 111.357C155.536 111.377 155.55 111.415 155.564 111.439L155.518 111.444C155.532 111.464 155.546 111.502 155.56 111.526L155.514 111.531C155.528 111.551 155.542 111.589 155.556 111.613L155.51 111.618C155.524 111.638 155.538 111.676 155.552 111.7L155.506 111.705C155.52 111.725 155.534 111.763 155.548 111.787L155.502 111.792C155.516 111.812 155.53 111.85 155.544 111.874L155.498 111.879C155.512 111.899 155.526 111.937 155.54 111.961L155.494 111.966C155.508 111.986 155.522 112.024 155.536 112.048L155.49 112.053C155.504 112.073 155.518 112.111 155.532 112.135L155.486 112.14C155.5 112.16 155.514 112.198 155.528 112.222L155.482 112.227C156.461 113.631 157.083 122.796 157.083 122.796L186.799 124.16C186.801 124.132 186.799 124.102 186.801 124.074H186.803C186.805 124.046 186.803 124.016 186.805 123.988H186.807C186.809 123.96 186.807 123.93 186.809 123.902H186.811C186.813 123.874 186.811 123.844 186.813 123.816H186.815C186.817 123.788 186.815 123.758 186.817 123.73H186.819C186.821 123.702 186.819 123.672 186.821 123.644H186.823C186.825 123.616 186.823 123.586 186.825 123.558H186.827C186.829 123.53 186.827 123.5 186.829 123.472H186.831C186.833 123.444 186.831 123.414 186.833 123.386H186.835C186.837 123.358 186.835 123.328 186.837 123.3H186.839C186.841 123.272 186.839 123.242 186.841 123.214H186.843C186.845 123.186 186.843 123.156 186.845 123.128H186.847C186.849 123.1 186.847 123.07 186.849 123.042H186.851C186.853 123.014 186.851 122.984 186.853 122.956H186.855C186.857 122.928 186.855 122.898 186.857 122.87H186.859C186.861 122.842 186.859 122.812 186.861 122.784H186.863C186.865 122.756 186.863 122.726 186.865 122.698H186.867C186.869 122.67 186.867 122.64 186.869 122.612H186.871C186.873 122.584 186.871 122.554 186.873 122.526H186.875C186.877 122.498 186.875 122.468 186.877 122.44H186.879C186.881 122.412 186.879 122.382 186.881 122.354H186.883C186.885 122.326 186.883 122.296 186.885 122.268H186.887C186.889 122.24 186.887 122.21 186.889 122.182H186.891C186.893 122.154 186.891 122.124 186.893 122.096H186.895C186.897 122.068 186.895 122.038 186.897 122.01H186.899C186.901 121.982 186.899 121.952 186.901 121.924H186.903C186.905 121.896 186.903 121.866 186.905 121.838H186.907C186.909 121.81 186.907 121.78 186.909 121.752H186.911C186.913 121.724 186.911 121.694 186.913 121.666H186.915C186.917 121.638 186.915 121.608 186.917 121.58H186.919C186.921 121.552 186.919 121.522 186.921 121.494H186.923C186.925 121.466 186.923 121.436 186.925 121.408H186.927C186.929 121.38 186.927 121.35 186.929 121.322H186.931C186.933 121.294 186.931 121.264 186.933 121.236H186.935C186.937 121.208 186.935 121.178 186.937 121.15H186.939C186.941 121.122 186.939 121.092 186.941 121.064H186.943C186.945 121.036 186.943 121.006 186.945 120.978H186.947C186.949 120.95 186.947 120.92 186.949 120.892H186.951C186.953 120.864 186.951 120.834 186.953 120.806H186.955C186.957 120.778 186.955 120.748 186.957 120.72H186.959C186.961 120.692 186.959 120.662 186.961 120.634H186.963C186.965 120.606 186.963 120.576 186.965 120.548H186.967C186.969 120.52 186.967 120.49 186.969 120.462H186.971C186.973 120.434 186.971 120.404 186.973 120.376H186.975C186.977 120.348 186.975 120.318 186.977 120.29H186.979C186.981 120.262 186.979 120.232 186.981 120.204H186.983C186.985 120.176 186.983 120.146 186.985 120.118H186.987C186.989 120.09 186.987 120.06 186.989 120.032H186.991C186.993 120.004 186.991 119.974 186.993 119.946H186.995C186.997 119.918 186.995 119.888 186.997 119.86H186.999C187.001 119.832 186.999 119.802 187.001 119.774H187.003C187.005 119.746 187.003 119.716 187.005 119.688H187.007C187.009 119.66 187.007 119.63 187.009 119.602H187.011C187.013 119.574 187.011 119.544 187.013 119.516H187.015C187.017 119.488 187.015 119.458 187.017 119.43H187.019C187.021 119.402 187.019 119.372 187.021 119.344H187.023C187.025 119.316 187.023 119.286 187.025 119.258H187.027C187.029 119.23 187.027 119.2 187.029 119.172H187.031C187.033 119.144 187.031 119.114 187.033 119.086H187.035C187.037 119.058 187.035 119.028 187.037 119H187.039C187.041 118.972 187.039 118.942 187.041 118.914H187.043C187.045 118.886 187.043 118.856 187.045 118.828H187.047C187.049 118.8 187.047 118.77 187.049 118.742H187.051C187.053 118.714 187.051 118.684 187.053 118.656H187.055C187.057 118.628 187.055 118.598 187.057 118.57H187.059C187.061 118.542 187.059 118.512 187.061 118.484H187.063C187.065 118.456 187.063 118.426 187.065 118.398H187.067C187.069 118.37 187.067 118.34 187.069 118.312H187.071C187.073 118.284 187.071 118.254 187.073 118.226H187.075C187.077 118.198 187.075 118.168 187.077 118.14H187.079C187.081 118.112 187.079 118.082 187.081 118.054H187.083C187.085 118.026 187.083 117.996 187.085 117.968H187.087C187.089 117.94 187.087 117.91 187.089 117.882H187.091C187.093 117.854 187.091 117.824 187.093 117.796H187.095C187.097 117.768 187.095 117.738 187.097 117.71H187.099C187.101 117.682 187.099 117.652 187.101 117.624H187.103C187.105 117.596 187.103 117.566 187.105 117.538H187.107C187.109 117.51 187.107 117.48 187.109 117.452H187.111C187.113 117.424 187.111 117.394 187.113 117.366H187.115C187.117 117.338 187.115 117.308 187.117 117.28H187.119C187.123 117.171 187.12 117.141 187.122 117.113Z" fill="#C7C97E"/>
<path d="M178.645 153.161C178.652 153.126 178.658 153.094 178.664 153.06C178.67 153.029 178.675 153.001 178.681 152.972C178.687 152.942 178.692 152.915 178.697 152.886C178.702 152.862 178.706 152.841 178.71 152.817C178.717 152.781 178.723 152.748 178.73 152.714C178.736 152.684 178.741 152.657 178.746 152.628C178.752 152.598 178.757 152.571 178.762 152.542C178.767 152.518 178.771 152.497 178.775 152.474C178.782 152.438 178.788 152.405 178.795 152.371C178.801 152.341 178.806 152.314 178.811 152.285C178.815 152.262 178.819 152.241 178.824 152.219C178.831 152.183 178.837 152.148 178.844 152.114C178.85 152.084 178.855 152.057 178.86 152.028C178.866 151.998 178.871 151.971 178.876 151.942C178.881 151.918 178.885 151.897 178.889 151.874C178.896 151.838 178.902 151.805 178.909 151.771C178.915 151.741 178.92 151.714 178.925 151.685C178.931 151.655 178.936 151.628 178.941 151.599C178.946 151.575 178.95 151.554 178.954 151.531C178.961 151.495 178.967 151.462 178.974 151.428C178.979 151.399 178.984 151.373 178.99 151.345C178.995 151.32 178.999 151.298 179.003 151.274C179.01 151.238 179.016 151.205 179.023 151.171C179.029 151.141 179.034 151.114 179.039 151.085C179.045 151.055 179.05 151.028 179.055 150.999C179.06 150.975 179.064 150.954 179.068 150.93C179.075 150.894 179.081 150.861 179.088 150.827C179.094 150.797 179.099 150.77 179.104 150.741C179.11 150.711 179.115 150.684 179.12 150.655C179.125 150.631 179.129 150.61 179.133 150.586C179.14 150.551 179.146 150.519 179.152 150.485C179.158 150.454 179.163 150.426 179.169 150.397C179.174 150.373 179.178 150.352 179.182 150.329C179.189 150.293 179.195 150.26 179.202 150.226C179.208 150.196 179.213 150.169 179.218 150.14C179.224 150.11 179.229 150.083 179.234 150.054C179.239 150.03 179.243 150.009 179.247 149.986C179.254 149.95 179.26 149.917 179.267 149.883C179.273 149.853 179.278 149.826 179.283 149.797C179.289 149.767 179.294 149.74 179.299 149.711C179.303 149.687 179.308 149.666 179.312 149.643C179.319 149.608 179.325 149.576 179.331 149.542C179.337 149.511 179.342 149.483 179.348 149.454C179.354 149.424 179.359 149.397 179.364 149.368C179.369 149.344 179.373 149.323 179.377 149.3C179.384 149.264 179.39 149.231 179.397 149.197C179.403 149.167 179.408 149.14 179.413 149.111C179.418 149.087 179.422 149.066 179.426 149.043C179.433 149.007 179.439 148.974 179.446 148.94C179.452 148.91 179.457 148.883 179.462 148.854C179.468 148.824 179.473 148.797 179.478 148.768C179.482 148.745 179.486 148.724 179.491 148.702C179.498 148.666 179.504 148.631 179.511 148.597C179.517 148.567 179.522 148.54 179.527 148.511C179.533 148.481 179.538 148.454 179.543 148.425C179.548 148.401 179.552 148.38 179.556 148.356C179.563 148.32 179.569 148.287 179.576 148.253C179.582 148.223 179.587 148.196 179.592 148.167C179.597 148.143 179.601 148.122 179.605 148.098C179.612 148.062 179.618 148.029 179.625 147.995C179.631 147.965 179.636 147.938 179.641 147.909C179.646 147.88 179.651 147.854 179.657 147.826C179.662 147.801 179.666 147.779 179.671 147.755C179.678 147.719 179.684 147.686 179.691 147.652C179.697 147.622 179.702 147.595 179.707 147.566C179.713 147.536 179.718 147.509 179.723 147.48C179.728 147.456 179.732 147.435 179.736 147.412C179.743 147.376 179.749 147.343 179.756 147.309C179.762 147.279 179.767 147.252 179.772 147.223C179.777 147.199 179.781 147.178 179.785 147.155C179.792 147.119 179.798 147.086 179.805 147.052C179.81 147.023 179.815 146.997 179.821 146.969C179.827 146.938 179.832 146.91 179.838 146.881C179.843 146.857 179.847 146.836 179.851 146.813C179.858 146.777 179.864 146.744 179.871 146.71C179.877 146.68 179.882 146.653 179.887 146.624C179.893 146.594 179.898 146.567 179.903 146.538C179.908 146.514 179.912 146.493 179.916 146.47C179.923 146.434 179.929 146.401 179.936 146.367C180.069 145.669 180.143 145.243 180.143 145.243L156.764 133.928C156.764 133.956 156.762 133.991 156.761 134.02L156.748 134.014C156.748 134.042 156.746 134.077 156.745 134.106L156.732 134.1C156.731 134.128 156.73 134.163 156.729 134.192L156.716 134.186C156.716 134.214 156.714 134.249 156.713 134.278L156.7 134.272C156.699 134.3 156.698 134.335 156.697 134.364L156.684 134.358C156.684 134.386 156.682 134.421 156.681 134.45L156.668 134.444C156.668 134.472 156.666 134.507 156.665 134.536L156.652 134.53C156.652 134.558 156.65 134.593 156.649 134.622L156.636 134.616C156.636 134.644 156.634 134.679 156.633 134.708L156.62 134.702C156.62 134.73 156.618 134.765 156.617 134.794L156.604 134.788C156.604 134.816 156.602 134.851 156.601 134.88L156.588 134.874C156.587 134.902 156.586 134.937 156.585 134.966L156.572 134.96C156.572 134.988 156.57 135.023 156.569 135.052L156.556 135.046C156.556 135.074 156.554 135.109 156.553 135.138L156.54 135.132C156.54 135.16 156.538 135.195 156.537 135.224L156.524 135.218C156.524 135.246 156.522 135.281 156.521 135.31L156.508 135.304C156.508 135.332 156.506 135.367 156.505 135.396L156.492 135.39C156.492 135.418 156.49 135.453 156.489 135.482L156.476 135.476C156.475 135.504 156.474 135.539 156.473 135.568L156.46 135.562C156.46 135.59 156.458 135.625 156.457 135.654L156.444 135.648C156.443 135.676 156.442 135.711 156.441 135.74L156.428 135.734C156.428 135.762 156.426 135.797 156.425 135.826L156.412 135.82C156.412 135.848 156.41 135.883 156.409 135.912L156.396 135.906C156.396 135.934 156.394 135.969 156.393 135.998L156.38 135.992C156.38 136.02 156.378 136.055 156.377 136.084L156.364 136.078C156.363 136.106 156.362 136.141 156.361 136.17L156.348 136.164C156.348 136.192 156.346 136.227 156.345 136.256L156.332 136.25C156.331 136.278 156.33 136.313 156.329 136.342L156.316 136.336C156.316 136.364 156.314 136.399 156.313 136.428L156.3 136.422C156.3 136.45 156.298 136.485 156.297 136.514L156.284 136.508C156.284 136.536 156.282 136.571 156.281 136.6L156.268 136.594C156.268 136.622 156.266 136.657 156.265 136.686L156.252 136.68C156.251 136.708 156.25 136.743 156.249 136.772L156.236 136.766C156.236 136.794 156.234 136.829 156.233 136.858L156.22 136.852C156.219 136.88 156.218 136.915 156.217 136.944L156.204 136.938C156.204 136.966 156.202 137.001 156.201 137.03L156.188 137.024C156.188 137.052 156.186 137.087 156.185 137.116L156.172 137.11C156.172 137.138 156.17 137.173 156.169 137.202L156.156 137.196C156.156 137.224 156.154 137.259 156.153 137.288L156.14 137.282C156.139 137.31 156.138 137.345 156.137 137.374L156.112 137.359C156.112 137.387 156.11 137.422 156.109 137.451L156.096 137.445C156.095 137.473 156.094 137.508 156.093 137.537L156.08 137.531C156.08 137.559 156.078 137.594 156.077 137.623L156.064 137.617C156.064 137.645 156.062 137.68 156.061 137.709L156.048 137.703C156.048 137.731 156.046 137.766 156.045 137.795L156.032 137.789C156.032 137.817 156.03 137.852 156.029 137.881L156.016 137.875C156.016 137.903 156.014 137.938 156.013 137.967L156 137.961C156 137.989 155.998 138.024 155.997 138.053L155.984 138.047C155.983 138.075 155.982 138.11 155.981 138.139L155.968 138.133C155.968 138.161 155.966 138.196 155.965 138.225L155.952 138.219C155.952 138.247 155.95 138.282 155.949 138.311L155.936 138.305C155.936 138.333 155.934 138.368 155.933 138.397L155.92 138.391C155.92 138.414 155.918 138.443 155.917 138.466C155.915 138.471 155.914 138.476 155.912 138.481L155.903 138.477C155.903 138.486 155.902 138.498 155.902 138.508C155.803 138.773 155.694 139.042 155.571 139.314C154.691 141.276 153.527 142.626 152.727 143.42L152.767 143.446C152.749 143.464 152.728 143.489 152.71 143.506L152.75 143.532C152.733 143.55 152.711 143.575 152.693 143.592L152.733 143.618C152.715 143.636 152.694 143.661 152.677 143.678L152.717 143.704C152.7 143.722 152.678 143.747 152.66 143.764L152.7 143.79C152.682 143.808 152.661 143.833 152.644 143.85L152.684 143.876C152.667 143.894 152.645 143.919 152.627 143.936L152.667 143.962C152.65 143.98 152.628 144.005 152.611 144.022L152.651 144.048C152.633 144.066 152.612 144.091 152.594 144.108L152.634 144.134C152.617 144.152 152.595 144.177 152.578 144.194L152.618 144.22C152.6 144.238 152.579 144.263 152.561 144.28L152.601 144.306C152.584 144.324 152.562 144.349 152.544 144.366L152.584 144.392C152.566 144.41 152.545 144.435 152.528 144.452L152.568 144.478C152.551 144.496 152.529 144.521 152.511 144.538L152.551 144.564C152.534 144.582 152.512 144.607 152.495 144.624L152.535 144.65C152.517 144.668 152.496 144.693 152.478 144.71L152.518 144.736C152.501 144.754 152.479 144.779 152.462 144.796L152.502 144.822C152.484 144.84 152.463 144.865 152.445 144.882L152.485 144.908C152.468 144.926 152.446 144.951 152.428 144.968L152.468 144.994C152.45 145.012 152.429 145.037 152.412 145.054L152.452 145.08C152.435 145.098 152.413 145.123 152.395 145.14L152.435 145.166C152.417 145.184 152.396 145.209 152.378 145.226L152.418 145.252C152.4 145.27 152.379 145.295 152.361 145.312L152.401 145.338C152.384 145.356 152.362 145.381 152.345 145.398L152.385 145.424C152.367 145.442 152.346 145.467 152.328 145.484L152.368 145.51C152.351 145.528 152.329 145.553 152.311 145.57L152.351 145.596C152.333 145.614 152.312 145.639 152.295 145.656L152.335 145.682C152.318 145.7 152.296 145.725 152.278 145.742L152.318 145.768C152.301 145.786 152.279 145.811 152.262 145.828L152.302 145.854C152.284 145.872 152.263 145.897 152.245 145.914L152.285 145.94C152.268 145.958 152.246 145.983 152.229 146L152.269 146.026C152.251 146.044 152.23 146.069 152.212 146.086L152.252 146.112C152.235 146.13 152.213 146.155 152.195 146.172L152.235 146.198C152.217 146.216 152.196 146.241 152.179 146.258L152.219 146.284C152.202 146.302 152.18 146.327 152.162 146.344L152.202 146.37C152.184 146.388 152.163 146.413 152.145 146.43L152.185 146.456C152.167 146.474 152.146 146.499 152.128 146.516L152.168 146.542C152.151 146.56 152.129 146.585 152.112 146.602L152.152 146.628C152.134 146.646 152.113 146.671 152.095 146.688L152.135 146.714C152.118 146.732 152.096 146.757 152.078 146.774L152.118 146.8C152.1 146.818 152.079 146.843 152.062 146.86L152.102 146.886C152.085 146.904 152.063 146.929 152.045 146.946L152.085 146.972C152.067 146.99 152.046 147.015 152.029 147.032L152.069 147.058C152.052 147.076 152.03 147.101 152.012 147.118L152.052 147.144C152.035 147.162 152.013 147.187 151.996 147.204L152.036 147.23C152.018 147.248 151.997 147.273 151.979 147.29L152.019 147.316C152.002 147.334 151.98 147.359 151.963 147.376L152.003 147.402C151.985 147.42 151.964 147.445 151.946 147.462L151.986 147.488C151.969 147.506 151.947 147.531 151.929 147.548L151.969 147.574C151.951 147.592 151.93 147.617 151.913 147.634L151.953 147.66C151.936 147.678 151.914 147.703 151.896 147.72L151.936 147.746C151.919 147.764 151.897 147.789 151.88 147.806L151.92 147.832C151.902 147.85 151.881 147.875 151.863 147.892L151.903 147.918C151.886 147.936 151.864 147.961 151.847 147.978L151.887 148.004C151.869 148.022 151.848 148.047 151.83 148.064L151.87 148.09C151.853 148.108 151.831 148.133 151.813 148.15L151.853 148.176C151.835 148.194 151.814 148.219 151.797 148.236L151.837 148.262C151.82 148.28 151.798 148.305 151.78 148.322L151.82 148.348C151.802 148.366 151.781 148.391 151.763 148.408L151.803 148.434C151.785 148.452 151.764 148.477 151.746 148.494L151.786 148.52C151.769 148.538 151.747 148.563 151.73 148.58L151.77 148.606C151.752 148.624 151.731 148.649 151.713 148.666L151.753 148.692C151.736 148.71 151.714 148.735 151.696 148.752L151.736 148.778C151.718 148.796 151.697 148.821 151.68 148.838L151.72 148.864C151.703 148.882 151.681 148.907 151.663 148.924L151.703 148.95C151.685 148.968 151.664 148.993 151.646 149.01L151.686 149.036C151.668 149.054 151.647 149.079 151.629 149.096L151.669 149.122C151.652 149.14 151.63 149.165 151.613 149.182L151.653 149.208C151.635 149.226 151.614 149.251 151.596 149.268L151.636 149.294C151.619 149.312 151.597 149.337 151.579 149.354L151.619 149.38C151.601 149.398 151.58 149.423 151.563 149.44L151.603 149.466C151.586 149.484 151.564 149.509 151.546 149.526L151.586 149.552C151.568 149.57 151.547 149.595 151.529 149.612L151.569 149.638C151.551 149.656 151.53 149.681 151.512 149.698L151.552 149.724C151.535 149.742 151.513 149.767 151.496 149.784L151.536 149.81C151.518 149.828 151.497 149.853 151.479 149.87L151.519 149.896C151.502 149.914 151.48 149.939 151.462 149.956L151.502 149.982C151.484 150 151.463 150.025 151.446 150.042L151.486 150.068C151.469 150.086 151.447 150.111 151.429 150.128L151.469 150.154C151.451 150.172 151.43 150.197 151.413 150.214L151.453 150.24C151.436 150.258 151.414 150.283 151.396 150.3L151.436 150.326C151.419 150.344 151.397 150.369 151.38 150.386L174.784 165.306C176.383 164.292 178.054 156.166 178.608 153.252C178.637 153.205 178.641 153.184 178.645 153.161Z" fill="#C7C97E"/>
<path d="M144.288 116.459C142.339 89.4639 134.401 72.2509 130.27 64.9409C127.013 59.1779 119.846 56.8659 113.853 59.6779C97.701 67.2559 81.463 99.4929 81.463 99.4929C81.463 99.4929 53.7 98.2819 54.182 116.703C54.182 116.703 54.376 128.861 59.715 136.204C61.556 138.735 64.396 140.361 67.501 140.751C70.218 141.092 73.095 141.367 76.119 141.545C81.659 141.871 86.769 141.816 91.356 141.549C95.265 144.67 99.729 147.791 104.601 151.024C111.084 155.326 118.905 160.006 125.557 162.522C128.254 163.542 131.117 164.088 134 163.998C137.854 163.878 142.494 162.652 143.16 157.587C143.907 151.352 144.46 144.521 144.666 137.168C144.874 129.723 144.697 122.792 144.288 116.459Z" fill="#FDFED2"/>
<path d="M147.256 81.5217L152.964 88.6117L177.248 76.0697L168.28 64.8467L147.256 81.5217Z" fill="#F8FFD4"/>
<path d="M155.807 105.181L182.296 102.477C182.296 102.477 187.583 111.255 187.125 117.114L157.409 115.75C157.409 115.75 156.786 106.585 155.807 105.181Z" fill="#F8FFD4"/>
<path d="M156.764 133.928L180.143 145.243C180.143 145.243 178.082 157.098 176.128 158.336L152.724 143.416C153.524 142.622 154.687 141.272 155.568 139.31C156.562 137.097 156.745 135.106 156.764 133.928Z" fill="#FFFDD2"/>
<defs>
<linearGradient id="paint0_linear_15_75" x1="123.374" y1="34.864" x2="123.374" y2="214.351" gradientUnits="userSpaceOnUse">
<stop stop-color="#F9A000"/>
<stop offset="1" stop-color="#EE4200"/>
</linearGradient>
<linearGradient id="paint1_linear_15_75" x1="122.889" y1="41.5989" x2="122.889" y2="191.206" gradientUnits="userSpaceOnUse">
<stop stop-color="#FBBC00"/>
<stop offset="1" stop-color="#EF5F00"/>
</linearGradient>
<linearGradient id="paint2_linear_15_75" x1="102.377" y1="62.3395" x2="97.0161" y2="179.259" gradientUnits="userSpaceOnUse">
<stop stop-color="#EA8614"/>
<stop offset="0.6623" stop-color="#EB5B0B"/>
<stop offset="1" stop-color="#EC4406"/>
</linearGradient>
<linearGradient id="paint3_linear_15_75" x1="163.354" y1="54.5646" x2="156.458" y2="204.969" gradientUnits="userSpaceOnUse">
<stop stop-color="#EA8614"/>
<stop offset="0.4492" stop-color="#EA8414"/>
<stop offset="0.6355" stop-color="#EA7D12"/>
<stop offset="0.773" stop-color="#EB710F"/>
<stop offset="0.8865" stop-color="#EB5F0C"/>
<stop offset="0.9842" stop-color="#EC4807"/>
<stop offset="1" stop-color="#EC4406"/>
</linearGradient>
<linearGradient id="paint4_linear_15_75" x1="174.765" y1="39.0572" x2="167.171" y2="204.693" gradientUnits="userSpaceOnUse">
<stop stop-color="#EA8614"/>
<stop offset="0.2278" stop-color="#EA8113"/>
<stop offset="0.4936" stop-color="#EB7310"/>
<stop offset="0.7772" stop-color="#EB5C0B"/>
<stop offset="1" stop-color="#EC4406"/>
</linearGradient>
<linearGradient id="paint5_linear_15_75" x1="170.779" y1="38.5161" x2="164.049" y2="185.294" gradientUnits="userSpaceOnUse">
<stop stop-color="#EA8614"/>
<stop offset="0.2417" stop-color="#EA8213"/>
<stop offset="0.4916" stop-color="#EA7510"/>
<stop offset="0.7453" stop-color="#EB610C"/>
<stop offset="1" stop-color="#EC4406"/>
</linearGradient>
</defs>
</svg>
